<?xml version="1.0" standalone="no"?>
<!DOCTYPE svg PUBLIC "-//W3C//DTD SVG 1.1//EN" "http://www.w3.org/Graphics/SVG/1.1/DTD/svg11.dtd" >
<svg xmlns="http://www.w3.org/2000/svg">
<metadata></metadata>
<defs>
<font id="steelfish_rgregular" horiz-adv-x="573" >
<font-face units-per-em="2048" ascent="1743" descent="-305" />
<missing-glyph horiz-adv-x="278" />
<glyph horiz-adv-x="2048" />
<glyph horiz-adv-x="2048" />
<glyph unicode="&#xd;" horiz-adv-x="278" />
<glyph horiz-adv-x="278" />
<glyph unicode=" "  horiz-adv-x="278" />
<glyph unicode="&#x09;" horiz-adv-x="278" />
<glyph unicode="&#xa0;" horiz-adv-x="278" />
<glyph unicode="!" horiz-adv-x="327" d="M82 1026v660h164v-658l-33 -702h-100zM84 0v223h160v-223h-160z" />
<glyph unicode="&#x22;" horiz-adv-x="526" d="M63 1503v183h144v-183l-31 -284h-82zM319 1503v183h144v-183l-31 -284h-82z" />
<glyph unicode="#" horiz-adv-x="808" d="M43 606v133h147l41 252h-153v133h176l92 562h113l-97 -562h173l94 562h110l-96 -562h123v-133h-143l-43 -252h147v-133h-170l-100 -606h-109l103 606h-175l-102 -606h-106l100 606h-125zM299 739h172l43 252h-174z" />
<glyph unicode="$" horiz-adv-x="585" d="M63 295v323h119v-253q0 -86 11.5 -139.5t68.5 -63.5v610q-45 45 -77.5 78t-55.5 61q-37 47 -51.5 97.5t-14.5 140.5v242q0 129 50.5 195.5t146.5 76.5v117h64v-117q100 -10 146 -75.5t46 -196.5v-273h-117v244q0 66 -13 108.5t-67 53.5v-596q33 -29 68 -57.5t64 -63.5 q39 -49 55 -113.5t16 -173.5v-225q0 -123 -49 -194.5t-149 -82.5v-124h-64v126q-102 10 -149.5 81t-47.5 194zM182 1147q0 -57 19.5 -97t60.5 -79v553q-43 -8 -61.5 -40t-18.5 -85v-252zM319 162q78 12 78 121v221q0 86 -16 137t-62 92v-571z" />
<glyph unicode="%" horiz-adv-x="983" d="M64 0l741 1686h105l-740 -1686h-106zM65 998v575q0 143 138 143q139 0 139 -143v-575q0 -143 -139 -144q-137 0 -138 144zM160 996q0 -47 43 -48q45 0 45 48v579q0 47 -45 47q-43 0 -43 -47v-579zM639 113v575q0 143 138 143q139 0 139 -143v-575q0 -143 -139 -144 q-137 0 -138 144zM734 111q0 -47 43 -48q45 0 45 48v579q0 47 -45 47q-43 0 -43 -47v-579z" />
<glyph unicode="&#x26;" horiz-adv-x="770" d="M55 332v117q0 70 8.5 126t25.5 107t47 100t73 105q-37 100 -57.5 166.5t-30.5 113.5t-12.5 83t-2.5 73v102q0 147 51.5 211t168.5 64q61 0 102 -19.5t65.5 -55.5t36 -86t11.5 -109v-119q0 -68 -13.5 -125.5t-37 -110.5t-56.5 -105t-74 -110l195 -553q23 55 32 121t9 131 v66h119v-72q0 -113 -21.5 -217.5t-70.5 -183.5q8 -6 21 -11.5t30 -5.5q43 0 61 27v-146q-16 -10 -38.5 -17t-61.5 -7q-37 0 -64.5 12t-46.5 33q-35 -29 -83 -42t-105 -13q-86 0 -140.5 21.5t-85 65.5t-43 109.5t-12.5 153.5zM207 334q0 -113 29.5 -160t111.5 -47 q76 0 117 35l-197 567q-18 -29 -30.5 -55.5t-18.5 -58t-9 -70.5t-3 -90v-121zM240 1315q0 -78 18 -155t47 -152q47 61 79 137t32 182v86q0 59 -18.5 98t-65.5 39q-49 0 -70.5 -31.5t-21.5 -97.5v-106z" />
<glyph unicode="'" horiz-adv-x="270" d="M63 1503v183h144v-183l-31 -284h-82z" />
<glyph unicode="(" horiz-adv-x="524" d="M152 190v1305q0 186 76.5 270t234.5 84h16v-114h-16q-102 0 -150.5 -58.5t-48.5 -181.5v-1305q0 -125 48 -183t151 -58h16v-113h-16q-158 0 -234.5 84t-76.5 270z" />
<glyph unicode=")" horiz-adv-x="524" d="M152 -51h16q102 0 150.5 58.5t48.5 182.5v1305q0 123 -48.5 181.5t-150.5 58.5h-16v114h16q158 0 234.5 -84t76.5 -270v-1305q0 -186 -76.5 -270t-234.5 -84h-16v113z" />
<glyph unicode="*" horiz-adv-x="686" d="M31 1423l30 93l244 -93l-14 263h100l-14 -263l246 95l28 -95l-252 -69l164 -203l-78 -57l-145 219l-141 -219l-78 57l162 203z" />
<glyph unicode="+" horiz-adv-x="946" d="M76 801v117h340v337h116v-337h340v-117h-340v-342h-116v342h-340z" />
<glyph unicode="," horiz-adv-x="274" d="M63 45v211h148v-264q0 -53 -25.5 -84t-85.5 -31h-16v68h12q35 0 35 37v63h-68z" />
<glyph unicode="-" horiz-adv-x="372" d="M27 788v121h323v-121h-323z" />
<glyph unicode="." horiz-adv-x="272" d="M63 0v256h146v-256h-146z" />
<glyph unicode="/" horiz-adv-x="493" d="M12 0l353 1686h114l-352 -1686h-115z" />
<glyph unicode="0" horiz-adv-x="671" d="M63 268v1149q0 141 66 214t207 73t206.5 -72.5t65.5 -214.5v-1149q0 -141 -65.5 -213.5t-206.5 -72.5t-207 72.5t-66 213.5zM219 264q0 -131 117 -131q119 0 119 131v1155q0 131 -119 131q-117 0 -117 -131v-1155z" />
<glyph unicode="1" horiz-adv-x="360" d="M35 1409v152h45q33 0 47 17t14 58v50h138v-1686h-154v1409h-90z" />
<glyph unicode="2" horiz-adv-x="632" d="M55 0v309q0 72 4 128.5t19.5 107.5t46.5 104t82 121q68 90 110.5 151.5t67.5 109.5t33 94t8 106v180q0 135 -111 135q-63 0 -84.5 -34.5t-21.5 -102.5v-291h-154v291q0 156 63.5 225.5t196.5 69.5q135 0 201 -71.5t66 -223.5v-188q0 -68 -12.5 -127.5t-35 -114.5 t-58.5 -109.5t-81 -113.5q-63 -80 -100 -136.5t-55.5 -103.5t-23.5 -95t-5 -112v-155h371v-154h-527z" />
<glyph unicode="3" horiz-adv-x="634" d="M53 266v332h158v-332q0 -61 24.5 -96t81.5 -35q59 0 85 35t26 98v385q0 68 -21.5 100.5t-91.5 32.5h-79v146h88q63 0 82.5 33.5t19.5 99.5v348q0 70 -22.5 101.5t-86.5 31.5q-61 0 -83.5 -31.5t-22.5 -101.5v-297h-154v297q0 154 62.5 222.5t197.5 68.5t196.5 -68.5 t61.5 -224.5v-362q0 -82 -30.5 -125t-89.5 -66q57 -14 91 -56t34 -134v-400q0 -129 -63.5 -207.5t-199.5 -78.5q-133 0 -198.5 77.5t-65.5 206.5z" />
<glyph unicode="4" horiz-adv-x="653" d="M20 346v135l379 1205h148v-1192h82v-148h-82v-346h-144v346h-383zM160 494h243l5 794z" />
<glyph unicode="5" horiz-adv-x="647" d="M63 834l21 852h491v-158h-350l-18 -543q23 35 63.5 59.5t112.5 24.5q98 0 150.5 -59.5t52.5 -200.5v-545q0 -143 -61.5 -212.5t-196.5 -69.5q-262 0 -262 282v354h151v-354q0 -129 111 -129q109 0 108 131v545q0 119 -112 119q-98 0 -123 -103z" />
<glyph unicode="6" horiz-adv-x="653" d="M63 266v1151q0 135 66 211t199 76q135 0 195.5 -76t60.5 -211v-291h-150v291q0 61 -25.5 95t-80.5 34q-53 0 -81 -33.5t-28 -95.5v-444q20 37 59 61.5t105 24.5q109 0 160 -62.5t51 -205.5v-523q0 -135 -65.5 -210.5t-200.5 -75.5q-133 0 -199 75.5t-66 208.5zM219 305 q0 -80 22.5 -125t86.5 -45q59 0 84.5 35t25.5 98v488q0 78 -25.5 115.5t-84.5 37.5q-49 0 -77 -26.5t-32 -73.5v-504z" />
<glyph unicode="7" horiz-adv-x="589" d="M29 1528v158h532v-146q-68 -152 -118 -315.5t-81.5 -351t-48 -403.5t-16.5 -470h-156q0 350 33 611t76 446.5t89 300.5t75 170h-385z" />
<glyph unicode="8" horiz-adv-x="645" d="M57 262v404q0 92 35 139t90 65q-51 20 -81.5 64.5t-30.5 130.5v348q0 141 58 216t191 75q135 0 192.5 -75t57.5 -216v-348q0 -86 -29.5 -130t-80.5 -65q53 -18 89 -65t36 -139v-404q0 -137 -64.5 -208.5t-200.5 -71.5q-133 0 -197.5 71.5t-64.5 208.5zM211 264 q0 -66 24.5 -97.5t83.5 -31.5t85 32t26 97v412q0 57 -25.5 83.5t-85.5 26.5q-109 0 -108 -110v-412zM213 1044q0 -59 24.5 -85.5t81.5 -26.5q109 0 109 112v369q0 72 -21.5 102.5t-87.5 30.5q-63 0 -84.5 -30.5t-21.5 -102.5v-369z" />
<glyph unicode="9" horiz-adv-x="653" d="M59 920v497q0 139 65.5 213t197.5 74q135 0 200.5 -74t65.5 -211v-1151q0 -135 -65.5 -210.5t-200.5 -75.5q-125 0 -193 75.5t-68 210.5v291h152v-291q0 -63 27.5 -98t81.5 -35q55 0 82.5 35t27.5 98v469q-20 -37 -59 -60.5t-103 -23.5q-111 0 -161 61.5t-50 205.5z M213 928q0 -121 109 -121q51 0 78.5 26.5t31.5 73.5v508q0 70 -26.5 100.5t-83.5 30.5t-83 -28.5t-26 -102.5v-487z" />
<glyph unicode=":" horiz-adv-x="272" d="M63 0v256h146v-256h-146zM63 750v254h146v-254h-146z" />
<glyph unicode=";" horiz-adv-x="274" d="M63 45v211h148v-264q0 -53 -25.5 -84t-85.5 -31h-16v68h12q35 0 35 37v63h-68zM63 750v254h146v-254h-146z" />
<glyph unicode="&#x3c;" horiz-adv-x="946" d="M76 786v144l796 262v-119l-677 -211l677 -223v-117z" />
<glyph unicode="=" horiz-adv-x="946" d="M76 608v119h796v-119h-796zM76 991v119h796v-119h-796z" />
<glyph unicode="&#x3e;" horiz-adv-x="946" d="M76 522v117l678 223l-678 211v119l796 -262v-144z" />
<glyph unicode="?" horiz-adv-x="612" d="M49 1118v295q0 150 61.5 220.5t196.5 70.5q133 0 195.5 -70.5t62.5 -222.5v-176q0 -125 -23.5 -201t-76.5 -139q-37 -41 -57.5 -70.5t-31.5 -58.5t-13.5 -63.5t-2.5 -88.5v-231h-145v227q0 59 5 105.5t17.5 84.5t33 72.5t51.5 69.5q29 33 47 59.5t27.5 56t12.5 70.5 t3 107v178q0 133 -105 133q-109 0 -108 -131v-297h-150zM215 0v256h145v-256h-145z" />
<glyph unicode="@" horiz-adv-x="1054" d="M59 299v715q0 254 112 362.5t353 108.5q233 0 341 -103.5t108 -328.5v-625q0 -96 -47 -158.5t-133 -62.5q-55 0 -96.5 24.5t-57.5 63.5q-8 -31 -41 -55.5t-88 -24.5q-76 0 -122 41t-46 152v444q0 61 12.5 102t34 64.5t53 33t68.5 9.5q45 0 74.5 -21.5t44.5 -56.5 q0 18 1 34.5t3 33.5h76v-641q4 -39 17 -70t60 -31q35 0 57.5 24.5t22.5 88.5v633q0 143 -79.5 225t-262.5 82q-98 0 -164.5 -23.5t-106.5 -70.5t-56.5 -118t-16.5 -165v-690q0 -109 24.5 -180.5t72 -116.5t115 -63.5t155.5 -18.5q96 0 161.5 12.5t105.5 35t57.5 56 t17.5 76.5q0 23 -2 33h102q6 -18 6 -45q0 -61 -21.5 -114.5t-75.5 -93.5t-144 -63.5t-226 -23.5q-109 0 -194.5 25.5t-147 85t-94.5 157t-33 242.5zM446 434q0 -66 21.5 -93.5t71.5 -27.5q59 0 75 68v479q-6 45 -22.5 66.5t-52.5 21.5q-45 0 -69 -23.5t-24 -78.5v-412z" />
<glyph unicode="A" horiz-adv-x="686" d="M25 0l231 1686h182l219 -1686h-155l-37 283h-252l-37 -283h-151zM231 426h215q-27 217 -53 431t-51 433q-27 -219 -54.5 -433t-56.5 -431z" />
<glyph unicode="B" horiz-adv-x="665" d="M76 0v1686h268q135 0 192.5 -69t57.5 -220v-338q0 -158 -102 -187q49 -10 85.5 -52t36.5 -134v-401q0 -150 -67.5 -217.5t-202.5 -67.5h-268zM231 154h113q111 0 111 131v374q0 72 -21.5 104t-87.5 32h-115v-641zM231 932h115q55 0 79 26.5t24 85.5v355q0 72 -24 100.5 t-81 28.5h-113v-596z" />
<glyph unicode="C" horiz-adv-x="632" d="M63 266v1147q0 291 269 291q246 0 246 -287v-299h-142v297q0 68 -22.5 99.5t-81.5 31.5q-111 0 -111 -131v-1147q0 -133 111 -133q57 0 80.5 33t23.5 100v350h142v-348q0 -147 -58.5 -217.5t-187.5 -70.5q-268 0 -269 284z" />
<glyph unicode="D" horiz-adv-x="667" d="M76 0v1686h262q133 0 199.5 -77t66.5 -212v-1110q0 -287 -266 -287h-262zM231 154h107q111 0 111 133v1108q0 63 -28 98t-83 35h-107v-1374z" />
<glyph unicode="E" d="M76 0v1686h446v-158h-291v-592h205v-156h-205v-626h301v-154h-456z" />
<glyph unicode="F" horiz-adv-x="552" d="M76 0v1686h456v-158h-301v-600h207v-156h-207v-772h-155z" />
<glyph unicode="G" horiz-adv-x="659" d="M63 268v1147q0 139 67 214t200 75q135 0 195.5 -75t60.5 -214v-297h-140v297q0 66 -26.5 98.5t-89.5 32.5q-59 0 -85 -32.5t-26 -98.5v-1147q0 -66 31 -99.5t78 -33.5q111 0 121 121v383h-130v147h279v-796h-25l-51 92q-25 -49 -80 -74.5t-125 -25.5q-55 0 -101 14 t-80 48t-53.5 89t-19.5 135z" />
<glyph unicode="H" horiz-adv-x="679" d="M76 0v1686h155v-752h218v752h155v-1686h-155v780h-218v-780h-155z" />
<glyph unicode="I" horiz-adv-x="315" d="M80 0v1686h156v-1686h-156z" />
<glyph unicode="J" horiz-adv-x="444" d="M20 2v156q37 -14 99 -15q100 0 100 131v1412h156v-1412q0 -150 -65.5 -218t-190.5 -68q-63 0 -99 14z" />
<glyph unicode="K" horiz-adv-x="714" d="M76 0v1686h155v-728l285 728h168l-319 -768l340 -918h-179l-295 829v-829h-155z" />
<glyph unicode="L" horiz-adv-x="552" d="M76 0v1686h155v-1532h301v-154h-456z" />
<glyph unicode="M" horiz-adv-x="923" d="M72 0v1686h209l178 -1317l178 1317h215v-1686h-145v510q0 184 1 364.5t3 364.5l-183 -1239h-137l-180 1239q2 -184 3 -364.5t1 -364.5v-510h-143z" />
<glyph unicode="N" horiz-adv-x="722" d="M72 0v1686h186l258 -1235q-2 174 -2 343v339v553h137v-1686h-155l-291 1231q2 -188 2 -373.5v-374.5v-483h-135z" />
<glyph unicode="O" horiz-adv-x="657" d="M63 268v1149q0 141 66 214t199 73q135 0 200.5 -72.5t65.5 -214.5v-1149q0 -141 -65.5 -213.5t-200.5 -72.5q-133 0 -199 72.5t-66 213.5zM219 268q0 -133 109 -133q111 0 110 133v1149q0 129 -110 129q-109 0 -109 -129v-1149z" />
<glyph unicode="P" horiz-adv-x="659" d="M76 0v1686h262q147 0 218 -74t71 -232v-276q0 -160 -70 -231.5t-217 -71.5h-109v-801h-155zM231 952h109q68 0 100.5 35t32.5 113v280q0 76 -30.5 112t-104.5 36h-107v-576z" />
<glyph unicode="Q" horiz-adv-x="657" d="M63 295v1122q0 141 65 214t200 73t200.5 -72.5t65.5 -214.5v-1122q0 -121 -53.5 -198t-171.5 -85q0 -35 24.5 -60.5t83.5 -25.5q78 0 117 51v-124q-16 -20 -50 -35t-87 -15q-49 0 -86 17.5t-60.5 46.5t-36 66.5t-12.5 80.5q-199 33 -199 281zM219 287q0 -129 109 -129 q111 0 110 129v1130q0 129 -110 129q-109 0 -109 -129v-1130z" />
<glyph unicode="R" horiz-adv-x="677" d="M76 0v1686h256q147 0 220 -69t73 -235v-335q0 -184 -125 -248q41 -201 75.5 -401.5t65.5 -397.5h-170q-27 195 -55.5 384t-63.5 382q-10 -2 -18 -2h-19h-84v-764h-155zM231 905h103q72 0 102.5 34t30.5 105v318q0 90 -26.5 128t-108.5 38h-101v-623z" />
<glyph unicode="S" horiz-adv-x="634" d="M55 260v358h150v-335q0 -66 23.5 -107t84.5 -41q59 0 85 32t26 93v240q0 37 -2 62.5t-8 44t-16.5 33.5t-24.5 34q-31 37 -61.5 68.5t-63.5 63.5t-67 67.5t-70 80.5q-41 47 -48.5 97.5t-7.5 122.5v251q0 279 262 279q141 0 198.5 -68.5t57.5 -210.5v-307h-145v287 q0 63 -21.5 102t-84.5 39q-109 0 -109 -121v-249q0 -53 7 -78t30 -54q61 -78 125.5 -137t130.5 -137q45 -53 59.5 -110.5t14.5 -157.5v-242q0 -135 -60.5 -206.5t-202.5 -71.5q-137 0 -199.5 71.5t-62.5 206.5z" />
<glyph unicode="T" horiz-adv-x="575" d="M23 1528v158h530v-158h-188v-1528h-154v1528h-188z" />
<glyph unicode="U" horiz-adv-x="667" d="M70 268v1418h155v-1418q0 -133 109 -133t108 133v1418h156v-1418q0 -286 -262 -286h-2q-264 0 -264 286z" />
<glyph unicode="V" horiz-adv-x="692" d="M25 1686h161q12 -104 28.5 -238.5t32 -279t32 -288t30 -266t21.5 -215t12 -131.5q4 41 14.5 132.5t24.5 214t30.5 266t34 288t34 278.5t30.5 239h156l-224 -1686h-209z" />
<glyph unicode="W" horiz-adv-x="1077" d="M25 1686h161q12 -104 25.5 -231.5t27 -261.5t25.5 -265t22.5 -243t17.5 -198t11 -127q4 41 12.5 127t20.5 198t26.5 243t29 265t30 261t27.5 232h155q10 -104 23.5 -231.5t27 -261.5t26 -265t22.5 -243t17 -198t11 -127q4 41 13.5 127t20.5 198t25.5 243t29 265t30 261 t27.5 232h164l-213 -1686h-189q-10 90 -22.5 208t-24.5 245t-24.5 254t-21.5 235.5t-16 189t-10 117.5q-2 -37 -9 -117.5t-18 -189t-23.5 -235.5t-26 -254t-26.5 -245t-26 -208h-190z" />
<glyph unicode="X" horiz-adv-x="694" d="M10 0l246 899l-209 787h166q18 -68 38.5 -158t40 -177t35 -160t21.5 -110q6 37 21.5 110t36 160t41 177t38.5 158h162l-213 -783l250 -903h-168q-25 86 -52.5 198.5t-52 219t-44 192.5t-25.5 121q-6 -35 -24.5 -121t-43 -192.5t-52 -218t-52.5 -199.5h-160z" />
<glyph unicode="Y" horiz-adv-x="679" d="M18 1686h164q20 -84 45 -185.5t47.5 -200t41 -181.5t26.5 -128q8 45 26.5 128t42 181.5t49 200t48.5 185.5h151l-245 -930v-756h-158v756z" />
<glyph unicode="Z" horiz-adv-x="628" d="M51 0v156l373 1378h-358v152h514v-142l-367 -1386h367v-158h-529z" />
<glyph unicode="[" horiz-adv-x="505" d="M152 -164v2013h309v-114h-197v-1786h197v-113h-309z" />
<glyph unicode="\" horiz-adv-x="493" d="M12 1686h115l352 -1686h-114z" />
<glyph unicode="]" horiz-adv-x="505" d="M152 -51h196v1786h-196v114h309v-2013h-309v113z" />
<glyph unicode="^" horiz-adv-x="643" d="M76 1038l176 648h141l172 -648h-112l-127 521l-138 -521h-112z" />
<glyph unicode="_" horiz-adv-x="608" d="M-2 -117h612v-104h-612v104z" />
<glyph unicode="`" horiz-adv-x="563" d="M76 1673h180l231 -330h-137z" />
<glyph unicode="a" horiz-adv-x="581" d="M47 182v187q0 92 25.5 154.5t69.5 105.5t103.5 72.5t127.5 58.5v276q0 53 -19.5 82t-72.5 29q-55 0 -74 -28.5t-19 -82.5v-266h-125v268q0 125 53.5 187.5t168.5 62.5q223 0 223 -250v-893q0 -45 2 -83.5t8 -61.5h-129q-4 16 -6 34.5t-2 41.5q-51 -94 -152 -94 q-86 0 -134 47t-48 153zM184 223q0 -104 97 -104q31 0 56 18.5t36 61.5v448q-61 -23 -99 -48.5t-57.5 -60t-26 -78.5t-6.5 -102v-135z" />
<glyph unicode="b" horiz-adv-x="620" d="M76 0v1686h141v-480q23 37 62.5 59.5t91.5 22.5q96 0 140 -54t44 -179v-811q0 -133 -49 -195.5t-160 -62.5q-63 0 -105 30.5t-67 77.5q-4 -25 -9 -48t-13 -46h-76zM217 219q14 -41 44 -62.5t65 -21.5q47 0 68.5 23.5t21.5 83.5v802q0 96 -90 97q-35 0 -65 -20.5 t-44 -61.5v-840z" />
<glyph unicode="c" horiz-adv-x="579" d="M63 240v786q0 117 57.5 189.5t174.5 72.5t169 -71.5t52 -188.5v-274h-127v276q0 53 -23.5 83t-70.5 30t-70.5 -31t-23.5 -84v-788q0 -115 94 -115t94 113v280h131v-282q0 -115 -54 -184.5t-171 -69.5t-174.5 70.5t-57.5 187.5z" />
<glyph unicode="d" horiz-adv-x="620" d="M63 223v832q0 125 45.5 179t141.5 54q49 0 89 -22.5t64 -59.5v480h140v-1686h-119q-2 23 -3 46.5t-1 47.5q-23 -51 -65 -79.5t-111 -28.5q-180 0 -181 237zM205 242q0 -59 20.5 -83t67.5 -24q35 0 64.5 21.5t45.5 62.5v842q-16 41 -45.5 62.5t-64.5 21.5 q-47 0 -67.5 -23.5t-20.5 -81.5v-798z" />
<glyph unicode="e" d="M63 238v790q0 129 56.5 194.5t163.5 65.5q227 0 227 -260v-407h-315v-383q0 -113 88 -113q94 0 94 113v278h133v-278q0 -256 -227 -256q-219 0 -220 256zM195 723h182v305q0 113 -94 113q-88 0 -88 -113v-305z" />
<glyph unicode="f" horiz-adv-x="391" d="M20 1143v125h62v176q0 119 42 185.5t152 66.5q25 0 49.5 -3t43.5 -10v-120q-23 6 -52 6q-49 0 -72.5 -30t-23.5 -99v-172h144v-125h-144v-1143h-139v1143h-62z" />
<glyph unicode="g" horiz-adv-x="620" d="M63 291v751q0 123 46.5 180.5t134.5 57.5q66 0 107.5 -27.5t68.5 -81.5q0 25 1 49.5t3 47.5h119v-1334q0 -117 -56.5 -178t-175.5 -61q-66 0 -110.5 16.5t-71.5 47t-38 74.5t-11 101v52h127v-58q0 -53 24.5 -81.5t77.5 -28.5q98 0 99 110v211q-23 -37 -65 -58.5 t-95 -21.5q-96 0 -140.5 53.5t-44.5 178.5zM203 295q0 -53 19.5 -76.5t70.5 -23.5q37 0 67.5 20.5t47.5 60.5v771q-16 41 -47 62t-68 21q-53 0 -71.5 -25.5t-18.5 -70.5v-739z" />
<glyph unicode="h" horiz-adv-x="618" d="M76 0v1686h141v-490q29 41 72 66.5t96 25.5q86 0 125 -55t39 -178v-1055h-141v1047q0 55 -18.5 78.5t-63.5 23.5q-31 0 -62 -18.5t-47 -59.5v-1071h-141z" />
<glyph unicode="i" horiz-adv-x="301" d="M80 0v1268h141v-1268h-141zM80 1430v256h141v-256h-141z" />
<glyph unicode="j" horiz-adv-x="333" d="M-66 -147q16 -4 36 -6.5t38 -2.5q102 0 103 129v1295h141v-1295q0 -141 -60.5 -204.5t-183.5 -63.5q-23 0 -40 2t-34 6v140zM111 1430v256h141v-256h-141z" />
<glyph unicode="k" horiz-adv-x="614" d="M76 0v1686h137v-965l229 547h150l-248 -561l254 -707h-156l-229 651v-651h-137z" />
<glyph unicode="l" horiz-adv-x="292" d="M76 0v1686h141v-1686h-141z" />
<glyph unicode="m" horiz-adv-x="899" d="M76 0v1268h119q6 -47 6 -94q27 53 69.5 83.5t96.5 30.5q111 0 137 -110q27 51 70.5 80.5t99.5 29.5q80 0 116.5 -58.5t36.5 -172.5v-1057h-139v1055q0 94 -72 94q-29 0 -53 -18.5t-41 -59.5v-1071h-141v1055q0 94 -72 94q-27 0 -51.5 -18.5t-40.5 -59.5v-1071h-141z" />
<glyph unicode="n" horiz-adv-x="618" d="M76 0v1268h119q6 -47 6 -97q29 53 76 85t106 32q86 0 126 -56t40 -177v-1055h-141v1047q0 55 -18.5 78.5t-63.5 23.5q-31 0 -62 -18.5t-47 -59.5v-1071h-141z" />
<glyph unicode="o" horiz-adv-x="593" d="M63 233v801q0 123 57.5 188.5t176.5 65.5q117 0 175 -65.5t58 -188.5v-801q0 -123 -58 -187t-175 -64q-119 0 -176.5 64.5t-57.5 186.5zM201 233q0 -53 19.5 -80.5t76.5 -27.5t76.5 28.5t19.5 84.5v792q0 53 -19.5 83t-76.5 30t-76.5 -30t-19.5 -83v-797z" />
<glyph unicode="p" horiz-adv-x="620" d="M76 -285v1553h119q6 -47 6 -97q23 53 63.5 81t110.5 28q88 0 134 -57.5t46 -180.5v-829q0 -127 -44 -179t-140 -52q-51 0 -91 21.5t-63 55.5v-344h-141zM217 205q14 -41 44 -61.5t65 -20.5q47 0 68.5 23.5t21.5 78.5v799q0 59 -21.5 82.5t-68.5 23.5q-35 0 -65 -20 t-44 -61v-844z" />
<glyph unicode="q" horiz-adv-x="620" d="M63 213v829q0 123 46.5 180.5t134.5 57.5q68 0 110.5 -30.5t65.5 -78.5q0 49 6 97h117v-1553h-140v344q-25 -35 -64.5 -56t-88.5 -21q-96 0 -141.5 52t-45.5 179zM205 225q0 -55 20.5 -78.5t67.5 -23.5q35 0 64.5 20.5t45.5 61.5v846q-16 41 -45.5 62.5t-64.5 21.5 q-47 0 -67.5 -25t-20.5 -82v-803z" />
<glyph unicode="r" horiz-adv-x="423" d="M76 0v1268h119q6 -47 6 -92q27 55 64.5 79.5t88.5 24.5q23 0 43 -8v-158q-10 8 -28.5 11t-34.5 3q-33 0 -64.5 -15t-52.5 -60v-1053h-141z" />
<glyph unicode="s" horiz-adv-x="569" d="M55 217v207h127v-203q0 -47 28 -74.5t69 -27.5q92 0 92 102v146q0 41 -11.5 70.5t-50.5 76.5q-43 51 -96 97t-92 94q-41 45 -53.5 90t-12.5 118v131q0 131 57.5 187.5t168.5 56.5q129 0 177 -58.5t48 -185.5v-206h-129v206q0 47 -26.5 75t-65.5 28q-92 0 -92 -103v-149 q0 -45 11 -70.5t46 -62.5q41 -45 92 -86t90 -86q47 -55 63.5 -107.5t16.5 -134.5v-137q0 -121 -58.5 -175t-177.5 -54q-221 0 -221 235z" />
<glyph unicode="t" horiz-adv-x="391" d="M20 1143v125h60v401h141v-401h144v-125h-144v-899q0 -78 27.5 -110t93.5 -32h13t14 2v-112q-10 -4 -30 -7t-36 -3q-113 0 -168 69.5t-55 192.5v899h-60z" />
<glyph unicode="u" horiz-adv-x="614" d="M70 205v1063h141v-1041q0 -57 18.5 -79.5t59.5 -22.5q33 0 62.5 17.5t45.5 58.5v1067h142v-1268h-121q-2 23 -3 45.5t-1 46.5q-29 -51 -75 -78.5t-106 -27.5q-164 0 -163 219z" />
<glyph unicode="v" horiz-adv-x="567" d="M23 1268h141q16 -115 34.5 -250t34 -264t27.5 -236.5t19 -169.5q6 61 20 169t31.5 237t37 264t38.5 250h135l-193 -1268h-141z" />
<glyph unicode="w" horiz-adv-x="856" d="M27 1268h133l80 -996l116 996h138l104 -996l96 996h133l-139 -1268h-170l-94 946l-107 -946h-167z" />
<glyph unicode="x" horiz-adv-x="581" d="M14 0l185 674l-160 594h147q12 -53 28.5 -121t32 -135.5t28 -127t18.5 -91.5q6 33 18.5 92t27.5 126.5t31.5 135t28.5 121.5h142l-160 -592l186 -676h-147q-18 68 -38 147.5t-38 158.5t-33.5 148.5t-23.5 118.5q-10 -49 -24.5 -118.5t-33 -148.5t-37 -158.5t-36.5 -147.5 h-142z" />
<glyph unicode="y" horiz-adv-x="567" d="M23 1268h147q10 -72 21.5 -160t22.5 -182.5t21.5 -187.5t19.5 -176t15 -147.5t11 -101.5q4 37 11 101.5t17 146.5t22.5 176t25 188.5t24.5 182.5t25 160h135l-193 -1284q-10 -68 -24.5 -119t-40 -87t-66.5 -54.5t-102 -18.5q-20 0 -40 3t-36 7v142q29 -10 70 -11 q43 0 62 35t30 94l8 52z" />
<glyph unicode="z" horiz-adv-x="524" d="M51 0v131l289 997h-285v140h420v-131l-282 -994h280v-143h-422z" />
<glyph unicode="{" horiz-adv-x="534" d="M33 842l151 196q16 20 23.5 39t7.5 60v444q0 131 62.5 199.5t203.5 68.5h17v-114h-15q-84 0 -119.5 -36t-35.5 -120v-424q0 -68 -12.5 -105.5t-41.5 -74.5l-104 -133l104 -133q29 -39 41.5 -78t12.5 -105v-422q0 -84 35.5 -119.5t119.5 -35.5h15v-113h-17 q-141 0 -203.5 66.5t-62.5 197.5v449q0 39 -7 57.5t-24 40.5z" />
<glyph unicode="|" horiz-adv-x="395" d="M139 -164v2013h115v-2013h-115z" />
<glyph unicode="}" horiz-adv-x="534" d="M33 -51h14q84 0 120 35.5t36 119.5v422q0 66 12 105t41 78l104 133l-104 133q-29 37 -41 74.5t-12 105.5v424q0 84 -36 120t-120 36h-14v114h16q141 0 203.5 -68.5t62.5 -199.5v-444q0 -41 7.5 -59.5t23.5 -39.5l152 -196l-152 -195q-16 -23 -23.5 -41t-7.5 -57v-449 q0 -131 -62.5 -197.5t-203.5 -66.5h-16v113z" />
<glyph unicode="~" horiz-adv-x="948" d="M76 748v141q31 35 80 58.5t120 23.5q57 0 107.5 -16.5t96.5 -35t89 -35t88 -16.5q68 0 119 26t98 79v-139q-43 -41 -95 -61.5t-126 -20.5q-51 0 -98 16t-92 34.5t-90 35t-90 16.5q-55 0 -106.5 -23.5t-100.5 -82.5z" />
<glyph unicode="&#xa1;" horiz-adv-x="327" d="M82 -1v658l33 702h100l31 -700v-660h-164zM84 1462v223h160v-223h-160z" />
<glyph unicode="&#xa2;" horiz-adv-x="575" d="M63 438v781q0 111 49.5 179t151.5 79v209h64v-209q100 -10 144 -80t44 -176v-277h-113v279q0 43 -20.5 73.5t-56.5 36.5v-1007q78 10 77 110v275h117v-277q0 -106 -46 -173.5t-146 -78.5v-182h-64v180q-102 8 -151.5 79t-49.5 179zM188 438q0 -102 80 -112v1007 q-41 -8 -60.5 -37.5t-19.5 -72.5v-785z" />
<glyph unicode="&#xa3;" horiz-adv-x="585" d="M41 -18v141q20 29 46 48t58 24q4 45 7.5 82.5t4.5 78.5t2 90.5t1 120.5v387h-113v119h113v305q0 160 63.5 243t184.5 83q27 0 52 -3t48 -11v-144q-37 14 -70 15q-72 0 -107.5 -47.5t-35.5 -133.5v-307h213v-119h-213v-387q0 -70 -2 -123t-5 -99t-8.5 -88t-11.5 -87 q29 -10 67 -31.5t81 -21.5q39 0 67.5 14t51.5 53h8v-137q-47 -63 -140 -63q-35 0 -65.5 12t-58 27.5t-53 27.5t-52.5 12q-33 0 -62.5 -17t-62.5 -64h-8z" />
<glyph unicode="&#xa4;" horiz-adv-x="987" d="M33 422q10 12 28.5 29.5t39 37t39 38l28.5 28.5q-84 102 -84 246q0 68 21.5 129t62.5 114l-133 130l84 86l129 -136q102 86 244 86q137 0 247 -88l125 138l86 -86l-133 -130q41 -51 62.5 -113.5t21.5 -129.5q0 -72 -22.5 -133.5t-61.5 -112.5l135 -133l-86 -84l-129 137 q-53 -39 -113.5 -61.5t-131.5 -22.5q-68 0 -131.5 22.5t-110.5 61.5l-133 -137zM213 801q0 -59 21.5 -110.5t59.5 -89.5t88 -59.5t110 -21.5q57 0 109 21.5t90 59.5t60.5 89.5t22.5 110.5q0 57 -22.5 108.5t-60.5 89t-90 59t-109 21.5q-59 0 -109.5 -21.5t-88.5 -59 t-59.5 -89t-21.5 -108.5z" />
<glyph unicode="&#xa5;" horiz-adv-x="696" d="M25 1686h168l157 -693l162 693h156l-252 -936v-115h233v-125h-233v-197h233v-125h-233v-188h-148v188h-233v125h233v197h-233v125h233v117z" />
<glyph unicode="&#xa6;" horiz-adv-x="395" d="M139 -164v846h115v-846h-115zM139 1004v845h115v-845h-115z" />
<glyph unicode="&#xa7;" horiz-adv-x="587" d="M53 647v203q0 78 32 134t89 79q-59 55 -85 103t-26 128v179q0 231 232 231q131 0 177 -65.5t46 -196.5v-195h-127v205q0 55 -19.5 87t-72.5 32q-96 0 -96 -98v-177q0 -43 5 -70.5t28 -49.5q59 -61 109 -103.5t95 -91.5q25 -27 40.5 -48.5t25.5 -45t14 -51t4 -66.5v-201 q0 -78 -32.5 -128t-85.5 -74q31 -31 51 -56.5t32.5 -53.5t18.5 -58.5t6 -73.5v-178q0 -231 -231 -232q-68 0 -111 16.5t-67.5 49.5t-35 82t-10.5 114v195h127v-205q0 -57 19.5 -88t73.5 -31q96 0 96 99v176q0 49 -6.5 72.5t-26.5 46.5q-59 66 -111.5 108.5t-93.5 91.5 q-37 43 -60.5 89.5t-23.5 115.5zM188 684q0 -43 5.5 -72.5t19.5 -52t37.5 -44t58.5 -48.5q45 4 62.5 29.5t17.5 72.5v166q0 43 -5 72t-18.5 51.5t-38 43t-61.5 48.5q-43 -4 -60.5 -29.5t-17.5 -70.5v-166z" />
<glyph unicode="&#xa8;" horiz-adv-x="600" d="M76 1368v256h141v-256h-141zM383 1368v256h141v-256h-141z" />
<glyph unicode="&#xa9;" horiz-adv-x="1056" d="M63 453v780q0 127 28 217t84 146.5t144.5 82t208.5 25.5q121 0 209 -25.5t144.5 -82t84 -146.5t27.5 -217v-780q0 -127 -27.5 -217.5t-84 -146.5t-144.5 -81.5t-209 -25.5t-209 25.5t-144 81.5t-84 146.5t-28 217.5zM170 438q0 -96 19.5 -163.5t62.5 -109.5t110.5 -61.5 t165.5 -19.5t167 19.5t111 61.5t61.5 109.5t19.5 163.5v805q0 100 -19.5 169t-61.5 111t-110.5 60.5t-167.5 18.5q-98 0 -166.5 -18.5t-111.5 -60.5t-61.5 -111t-18.5 -169v-805zM362 489v721q0 184 168 185q154 0 154 -183v-188h-90v188q0 80 -64 80q-66 0 -65 -82v-721 q0 -80 65 -79q63 0 64 79v222h90v-219q0 -92 -36 -136.5t-118 -44.5q-168 0 -168 178z" />
<glyph unicode="&#xaa;" horiz-adv-x="444" d="M86 715v102q0 49 13.5 83t36 56.5t53 39t65.5 30.5v158q0 45 -39 45q-23 0 -30 -11.5t-7 -33.5v-146h-84v148q0 137 123 137q125 0 125 -137v-512q0 -20 2 -35.5t4 -24.5h-86q-4 20 -4 39q-27 -49 -78 -49q-45 0 -69.5 25.5t-24.5 85.5zM178 739q0 -43 37 -43q27 0 39 29 v225q-29 -10 -44 -23.5t-22.5 -29.5t-8.5 -37.5t-1 -48.5v-72z" />
<glyph unicode="&#xab;" horiz-adv-x="798" d="M39 606v154l321 229v-133l-245 -172l245 -180v-139zM438 606v154l321 229v-133l-245 -172l245 -180v-139z" />
<glyph unicode="&#xac;" horiz-adv-x="858" d="M41 797v149h739v-946h-145v797h-594z" />
<glyph unicode="&#xad;" horiz-adv-x="372" d="M27 788v121h323v-121h-323z" />
<glyph unicode="&#xae;" horiz-adv-x="1056" d="M63 453v780q0 127 28 217t84 146.5t144.5 82t208.5 25.5q121 0 209 -25.5t144.5 -82t84 -146.5t27.5 -217v-780q0 -127 -27.5 -217.5t-84 -146.5t-144.5 -81.5t-209 -25.5t-209 25.5t-144 81.5t-84 146.5t-28 217.5zM170 438q0 -96 19.5 -163.5t62.5 -109.5t110.5 -61.5 t165.5 -19.5t167 19.5t111 61.5t61.5 109.5t19.5 163.5v805q0 100 -19.5 169t-61.5 111t-110.5 60.5t-167.5 18.5q-98 0 -166.5 -18.5t-111.5 -60.5t-61.5 -111t-18.5 -169v-805zM365 322v1060h161q94 0 139.5 -44t45.5 -150v-211q0 -123 -76 -158q27 -125 48.5 -250 t39.5 -247h-111q-16 123 -33.5 239.5t-39.5 235.5h-74v-475h-100zM465 891h61q45 0 64.5 23.5t19.5 64.5v197q0 53 -17.5 78.5t-66.5 25.5h-61v-389z" />
<glyph unicode="&#xaf;" horiz-adv-x="622" d="M76 1434v120h471v-120h-471z" />
<glyph unicode="&#xb0;" horiz-adv-x="624" d="M63 1415q0 117 62.5 196t185.5 79t185.5 -79t62.5 -196q0 -119 -62.5 -193.5t-185.5 -74.5t-185.5 74.5t-62.5 193.5zM152 1415q-1 -180 157 -180q82 0 119 46t37 134t-37 135t-119 47q-78 0 -117.5 -47t-39.5 -135z" />
<glyph unicode="&#xb1;" horiz-adv-x="946" d="M76 271v117h796v-117h-796zM76 801v117h340v337h116v-337h340v-117h-340v-342h-116v342h-340z" />
<glyph unicode="&#xb2;" horiz-adv-x="378" d="M55 865v153q0 37 3 65.5t11.5 55.5t25 54.5t40.5 64.5q29 43 47.5 71.5t28.5 52t14 46t4 53.5v90q0 49 -41 49q-39 0 -38 -49v-147h-95v145q0 78 33 112.5t100 34.5q135 0 136 -147v-98q0 -63 -21.5 -118.5t-66.5 -117.5q-29 -41 -45.5 -68.5t-25.5 -51t-11 -46t-2 -51.5 v-59h172v-94h-269z" />
<glyph unicode="&#xb3;" horiz-adv-x="380" d="M55 998v166h97v-166q0 -49 38 -50q41 0 41 50v202q0 49 -41 50h-43v88h48q23 0 28.5 13t5.5 36v184q0 49 -39 49t-38 -49v-149h-95v149q0 78 33 111.5t100 33.5q68 0 100 -34.5t32 -112.5v-186q0 -66 -56 -90q29 -8 43.5 -29t14.5 -62v-204q0 -66 -33 -105t-101 -39 t-101.5 39t-33.5 105z" />
<glyph unicode="&#xb4;" horiz-adv-x="563" d="M76 1343l229 330h182l-276 -330h-135z" />
<glyph unicode="&#xb6;" horiz-adv-x="866" d="M35 1454q0 47 11 89t35.5 74t63.5 50.5t97 18.5h585v-150h-120v-1810h-129v1810h-179v-1595q0 -104 -49 -172t-149 -68q-45 0 -88 14v109q31 -8 49 -8q55 0 79.5 28.5t24.5 96.5v1292h-33q-109 0 -153.5 61.5t-44.5 159.5zM141 1417q0 -47 19.5 -79.5t64.5 -32.5h41v231 h-37q-47 0 -67.5 -34t-20.5 -85z" />
<glyph unicode="&#xb7;" horiz-adv-x="272" d="M63 696v256h146v-256h-146z" />
<glyph unicode="&#xb8;" horiz-adv-x="272" d="M76 -41h119v-184q0 -39 -18.5 -59.5t-61.5 -20.5h-23v51h17q23 0 22 25v41h-55v147z" />
<glyph unicode="&#xb9;" horiz-adv-x="256" d="M47 1553v92h21q35 0 34 39v22h84v-841h-94v688h-45z" />
<glyph unicode="&#xba;" horiz-adv-x="450" d="M94 743v441q0 139 131 139t131 -139v-441q0 -139 -131 -139t-131 139zM186 745q0 -45 39 -45q23 0 31 11.5t8 33.5v435q0 23 -8 35t-31 12q-39 0 -39 -47v-435z" />
<glyph unicode="&#xbb;" horiz-adv-x="798" d="M39 365v139l246 180l-246 172v133l321 -229v-154zM438 365v139l246 180l-246 172v133l321 -229v-154z" />
<glyph unicode="&#xbc;" horiz-adv-x="983" d="M64 0l741 1686h105l-740 -1686h-106zM153 1553v92h21q35 0 34 39v22h84v-841h-94v688h-45zM576 147v82l180 592h88v-585h41v-89h-41v-167h-88v167h-180zM660 236h96q0 125 2 202.5t4 141.5q-18 -63 -40.5 -141.5t-61.5 -202.5z" />
<glyph unicode="&#xbd;" horiz-adv-x="983" d="M64 0l741 1686h105l-740 -1686h-106zM153 1553v92h21q35 0 34 39v22h84v-841h-94v688h-45zM633 -20v153q0 37 3 65.5t11.5 55.5t25 54.5t40.5 64.5q29 43 47.5 71.5t28.5 52t14 46t4 53.5v90q0 49 -41 49q-39 0 -38 -49v-147h-95v145q0 78 33 112.5t100 34.5 q135 0 136 -147v-98q0 -63 -21.5 -118.5t-66.5 -117.5q-29 -41 -45.5 -68.5t-25.5 -51t-11 -46t-2 -51.5v-59h172v-94h-269z" />
<glyph unicode="&#xbe;" horiz-adv-x="983" d="M64 0l741 1686h105l-740 -1686h-106zM98 998v166h97v-166q0 -49 38 -50q41 0 41 50v202q0 49 -41 50h-43v88h48q23 0 28.5 13t5.5 36v184q0 49 -39 49t-38 -49v-149h-95v149q0 78 33 111.5t100 33.5q68 0 100 -34.5t32 -112.5v-186q0 -66 -56 -90q29 -8 43.5 -29 t14.5 -62v-204q0 -66 -33 -105t-101 -39t-101.5 39t-33.5 105zM555 147v82l180 592h88v-585h41v-89h-41v-167h-88v167h-180zM639 236h96q0 125 2 202.5t4 141.5q-18 -63 -40.5 -141.5t-61.5 -202.5z" />
<glyph unicode="&#xbf;" horiz-adv-x="612" d="M49 274v176q0 125 23.5 201t76.5 139q37 41 57.5 70.5t31.5 58.5t13.5 63.5t2.5 88.5v231h145v-227q0 -59 -5 -105.5t-17.5 -84.5t-33 -72.5t-51.5 -69.5q-29 -33 -47 -59.5t-27.5 -56t-12.5 -70.5t-3 -107v-178q0 -133 105 -133q109 0 108 131v297h150v-295 q0 -150 -61.5 -220.5t-196.5 -70.5q-133 0 -195.5 70.5t-62.5 222.5zM254 1429v256h145v-256h-145z" />
<glyph unicode="&#xc0;" horiz-adv-x="686" d="M25 0l231 1686h182l219 -1686h-155l-37 283h-252l-37 -283h-151zM37 2091h180l231 -330h-137zM231 426h215q-27 217 -53 431t-51 433q-27 -219 -54.5 -433t-56.5 -431z" />
<glyph unicode="&#xc1;" horiz-adv-x="686" d="M25 0l231 1686h182l219 -1686h-155l-37 283h-252l-37 -283h-151zM231 426h215q-27 217 -53 431t-51 433q-27 -219 -54.5 -433t-56.5 -431zM240 1761l229 330h182l-276 -330h-135z" />
<glyph unicode="&#xc2;" horiz-adv-x="686" d="M25 0l231 1686h182l219 -1686h-155l-37 283h-252l-37 -283h-151zM47 1761l221 330h164l213 -330h-137l-162 252l-168 -252h-131zM231 426h215q-27 217 -53 431t-51 433q-27 -219 -54.5 -433t-56.5 -431z" />
<glyph unicode="&#xc3;" horiz-adv-x="686" d="M25 0l231 1686h182l219 -1686h-155l-37 283h-252l-37 -283h-151zM99 1829v125q20 23 50 39t73 16q37 0 67.5 -10t60 -23.5t58.5 -23.5t64 -10q33 0 63.5 16t52.5 45v-125q-18 -23 -50 -38t-75 -15q-35 0 -65.5 10t-60 23.5t-59.5 24t-62 10.5q-33 0 -64 -16.5t-53 -47.5z M231 426h215q-27 217 -53 431t-51 433q-27 -219 -54.5 -433t-56.5 -431z" />
<glyph unicode="&#xc4;" horiz-adv-x="686" d="M25 0l231 1686h182l219 -1686h-155l-37 283h-252l-37 -283h-151zM119 1786v256h141v-256h-141zM231 426h215q-27 217 -53 431t-51 433q-27 -219 -54.5 -433t-56.5 -431zM426 1786v256h141v-256h-141z" />
<glyph unicode="&#xc5;" horiz-adv-x="686" d="M25 0l231 1686h182l219 -1686h-155l-37 283h-252l-37 -283h-151zM146 1927q0 72 49 118t147 46t148.5 -46t50.5 -118q0 -70 -50 -114.5t-149 -44.5q-98 0 -147 45t-49 114zM224 1927q0 -92 118 -92q117 0 117 92q0 94 -117 95q-119 0 -118 -95zM231 426h215 q-27 217 -53 431t-51 433q-27 -219 -54.5 -433t-56.5 -431z" />
<glyph unicode="&#xc6;" horiz-adv-x="946" d="M25 0l231 1686h639v-158h-291v-592h207v-156h-207v-626h299v-154h-457v283h-231l-39 -283h-151zM233 426h213v1102h-67z" />
<glyph unicode="&#xc7;" horiz-adv-x="632" d="M63 266v1147q0 291 269 291q246 0 246 -287v-299h-142v297q0 68 -22.5 99.5t-81.5 31.5q-111 0 -111 -131v-1147q0 -133 111 -133q57 0 80.5 33t23.5 100v350h142v-348q0 -147 -58.5 -217.5t-187.5 -70.5q-268 0 -269 284zM277 -41h119v-184q0 -39 -18.5 -59.5 t-61.5 -20.5h-23v51h17q23 0 22 25v41h-55v147z" />
<glyph unicode="&#xc8;" d="M-18 2091h180l231 -330h-137zM76 0v1686h446v-158h-291v-592h205v-156h-205v-626h301v-154h-456z" />
<glyph unicode="&#xc9;" d="M76 0v1686h446v-158h-291v-592h205v-156h-205v-626h301v-154h-456zM182 1761l229 330h182l-276 -330h-135z" />
<glyph unicode="&#xca;" d="M0 1761l221 330h164l213 -330h-137l-162 252l-168 -252h-131zM76 0v1686h446v-158h-291v-592h205v-156h-205v-626h301v-154h-456z" />
<glyph unicode="&#xcb;" d="M76 0v1686h446v-158h-291v-592h205v-156h-205v-626h301v-154h-456zM76 1786v256h141v-256h-141zM383 1786v256h141v-256h-141z" />
<glyph unicode="&#xcc;" horiz-adv-x="315" d="M-147 2091h180l231 -330h-137zM80 0v1686h156v-1686h-156z" />
<glyph unicode="&#xcd;" horiz-adv-x="315" d="M58 1761l229 330h182l-276 -330h-135zM80 0v1686h156v-1686h-156z" />
<glyph unicode="&#xce;" horiz-adv-x="315" d="M-139 1761l221 330h164l213 -330h-137l-162 252l-168 -252h-131zM80 0v1686h156v-1686h-156z" />
<glyph unicode="&#xcf;" horiz-adv-x="315" d="M-63 1786v256h141v-256h-141zM80 0v1686h156v-1686h-156zM244 1786v256h141v-256h-141z" />
<glyph unicode="&#xd0;" horiz-adv-x="663" d="M20 780v156h52v750h264q131 0 197.5 -77t66.5 -212v-1110q0 -287 -264 -287h-264v780h-52zM227 154h109q111 0 110 133v1110q0 53 -25.5 92t-84.5 39h-109v-592h123v-156h-123v-626z" />
<glyph unicode="&#xd1;" horiz-adv-x="722" d="M72 0v1686h186l258 -1235q-2 174 -2 343v339v553h137v-1686h-155l-291 1231q2 -188 2 -373.5v-374.5v-483h-135zM117 1829v125q20 23 50 39t73 16q37 0 67.5 -10t60 -23.5t58.5 -23.5t64 -10q33 0 63.5 16t52.5 45v-125q-18 -23 -50 -38t-75 -15q-35 0 -65.5 10t-60 23.5 t-59.5 24t-62 10.5q-33 0 -64 -16.5t-53 -47.5z" />
<glyph unicode="&#xd2;" horiz-adv-x="657" d="M23 2091h180l231 -330h-137zM63 268v1149q0 141 66 214t199 73q135 0 200.5 -72.5t65.5 -214.5v-1149q0 -141 -65.5 -213.5t-200.5 -72.5q-133 0 -199 72.5t-66 213.5zM219 268q0 -133 109 -133q111 0 110 133v1149q0 129 -110 129q-109 0 -109 -129v-1149z" />
<glyph unicode="&#xd3;" horiz-adv-x="657" d="M63 268v1149q0 141 66 214t199 73q135 0 200.5 -72.5t65.5 -214.5v-1149q0 -141 -65.5 -213.5t-200.5 -72.5q-133 0 -199 72.5t-66 213.5zM219 268q0 -133 109 -133q111 0 110 133v1149q0 129 -110 129q-109 0 -109 -129v-1149zM226 1761l229 330h182l-276 -330h-135z " />
<glyph unicode="&#xd4;" horiz-adv-x="657" d="M33 1761l221 330h164l213 -330h-137l-162 252l-168 -252h-131zM63 268v1149q0 141 66 214t199 73q135 0 200.5 -72.5t65.5 -214.5v-1149q0 -141 -65.5 -213.5t-200.5 -72.5q-133 0 -199 72.5t-66 213.5zM219 268q0 -133 109 -133q111 0 110 133v1149q0 129 -110 129 q-109 0 -109 -129v-1149z" />
<glyph unicode="&#xd5;" horiz-adv-x="657" d="M63 268v1149q0 141 66 214t199 73q135 0 200.5 -72.5t65.5 -214.5v-1149q0 -141 -65.5 -213.5t-200.5 -72.5q-133 0 -199 72.5t-66 213.5zM84 1829v125q20 23 50 39t73 16q37 0 67.5 -10t60 -23.5t58.5 -23.5t64 -10q33 0 63.5 16t52.5 45v-125q-18 -23 -50 -38t-75 -15 q-35 0 -65.5 10t-60 23.5t-59.5 24t-62 10.5q-33 0 -64 -16.5t-53 -47.5zM219 268q0 -133 109 -133q111 0 110 133v1149q0 129 -110 129q-109 0 -109 -129v-1149z" />
<glyph unicode="&#xd6;" horiz-adv-x="657" d="M63 268v1149q0 141 66 214t199 73q135 0 200.5 -72.5t65.5 -214.5v-1149q0 -141 -65.5 -213.5t-200.5 -72.5q-133 0 -199 72.5t-66 213.5zM105 1786v256h141v-256h-141zM219 268q0 -133 109 -133q111 0 110 133v1149q0 129 -110 129q-109 0 -109 -129v-1149zM412 1786 v256h141v-256h-141z" />
<glyph unicode="&#xd7;" horiz-adv-x="946" d="M150 618l239 240l-239 240l83 82l238 -238l242 240l82 -82l-240 -242l242 -242l-84 -81l-242 241l-240 -239z" />
<glyph unicode="&#xd8;" horiz-adv-x="657" d="M63 -193l56 259q-55 74 -56 202v1149q0 141 66 214t199 73q84 0 141 -29l45 203h80l-57 -260q57 -70 57 -201v-1149q0 -141 -65.5 -213.5t-200.5 -72.5q-84 0 -142 28l-45 -203h-78zM219 522l209 961q-25 63 -100 63q-109 0 -109 -129v-895zM227 203q25 -68 101 -68 q111 0 110 133v895z" />
<glyph unicode="&#xd9;" horiz-adv-x="667" d="M29 2091h180l231 -330h-137zM70 268v1418h155v-1418q0 -133 109 -133t108 133v1418h156v-1418q0 -287 -264 -286q-264 0 -264 286z" />
<glyph unicode="&#xda;" horiz-adv-x="667" d="M70 268v1418h155v-1418q0 -133 109 -133t108 133v1418h156v-1418q0 -287 -264 -286q-264 0 -264 286zM230 1761l229 330h182l-276 -330h-135z" />
<glyph unicode="&#xdb;" horiz-adv-x="667" d="M37 1761l221 330h164l213 -330h-137l-162 252l-168 -252h-131zM70 268v1418h155v-1418q0 -133 109 -133t108 133v1418h156v-1418q0 -287 -264 -286q-264 0 -264 286z" />
<glyph unicode="&#xdc;" horiz-adv-x="667" d="M70 268v1418h155v-1418q0 -133 109 -133t108 133v1418h156v-1418q0 -287 -264 -286q-264 0 -264 286zM109 1786v256h141v-256h-141zM416 1786v256h141v-256h-141z" />
<glyph unicode="&#xdd;" horiz-adv-x="679" d="M18 1686h164q20 -84 45 -185.5t47.5 -200t41 -181.5t26.5 -128q8 45 26.5 128t42 181.5t49 200t48.5 185.5h151l-245 -930v-756h-158v756zM240 1761l229 330h182l-276 -330h-135z" />
<glyph unicode="&#xde;" horiz-adv-x="669" d="M76 0v1686h155v-300h113q147 0 219 -73.5t72 -229.5v-518q0 -147 -71.5 -225t-217.5 -78h-115v-262h-155zM231 416h115q133 0 133 149v518q0 145 -135 146h-113v-813z" />
<glyph unicode="&#xdf;" horiz-adv-x="671" d="M76 0v1452q0 123 57 187.5t176 64.5q117 0 174.5 -64.5t57.5 -187.5v-410q0 -59 -21.5 -93t-44.5 -44q59 -14 99 -65.5t40 -147.5v-450q0 -133 -52 -196.5t-179 -63.5q-53 0 -72 6l2 141q20 -6 60 -6q55 0 78.5 26.5t23.5 92.5v456q0 63 -27.5 88t-76.5 25h-84v135h43 q33 0 53 18.5t20 77.5v406q0 47 -20.5 80t-73.5 33t-74.5 -33t-21.5 -80v-1448h-137z" />
<glyph unicode="&#xe0;" horiz-adv-x="581" d="M-14 1673h180l231 -330h-137zM47 182v187q0 92 25.5 154.5t69.5 105.5t103.5 72.5t127.5 58.5v276q0 53 -19.5 82t-72.5 29q-55 0 -74 -28.5t-19 -82.5v-266h-125v268q0 125 53.5 187.5t168.5 62.5q223 0 223 -250v-893q0 -45 2 -83.5t8 -61.5h-129q-4 16 -6 34.5 t-2 41.5q-51 -94 -152 -94q-86 0 -134 47t-48 153zM184 223q0 -104 97 -104q31 0 56 18.5t36 61.5v448q-61 -23 -99 -48.5t-57.5 -60t-26 -78.5t-6.5 -102v-135z" />
<glyph unicode="&#xe1;" horiz-adv-x="581" d="M47 182v187q0 92 25.5 154.5t69.5 105.5t103.5 72.5t127.5 58.5v276q0 53 -19.5 82t-72.5 29q-55 0 -74 -28.5t-19 -82.5v-266h-125v268q0 125 53.5 187.5t168.5 62.5q223 0 223 -250v-893q0 -45 2 -83.5t8 -61.5h-129q-4 16 -6 34.5t-2 41.5q-51 -94 -152 -94 q-86 0 -134 47t-48 153zM184 223q0 -104 97 -104q31 0 56 18.5t36 61.5v448q-61 -23 -99 -48.5t-57.5 -60t-26 -78.5t-6.5 -102v-135zM187 1343l229 330h182l-276 -330h-135z" />
<glyph unicode="&#xe2;" horiz-adv-x="581" d="M-6 1343l221 330h164l213 -330h-137l-162 252l-168 -252h-131zM47 182v187q0 92 25.5 154.5t69.5 105.5t103.5 72.5t127.5 58.5v276q0 53 -19.5 82t-72.5 29q-55 0 -74 -28.5t-19 -82.5v-266h-125v268q0 125 53.5 187.5t168.5 62.5q223 0 223 -250v-893q0 -45 2 -83.5 t8 -61.5h-129q-4 16 -6 34.5t-2 41.5q-51 -94 -152 -94q-86 0 -134 47t-48 153zM184 223q0 -104 97 -104q31 0 56 18.5t36 61.5v448q-61 -23 -99 -48.5t-57.5 -60t-26 -78.5t-6.5 -102v-135z" />
<glyph unicode="&#xe3;" horiz-adv-x="581" d="M47 182v187q0 92 25.5 154.5t69.5 105.5t103.5 72.5t127.5 58.5v276q0 53 -19.5 82t-72.5 29q-55 0 -74 -28.5t-19 -82.5v-266h-125v268q0 125 53.5 187.5t168.5 62.5q223 0 223 -250v-893q0 -45 2 -83.5t8 -61.5h-129q-4 16 -6 34.5t-2 41.5q-51 -94 -152 -94 q-86 0 -134 47t-48 153zM49 1411v125q20 23 50 39t73 16q37 0 67.5 -10t60 -23.5t58.5 -23.5t64 -10q33 0 63.5 16t52.5 45v-125q-18 -23 -50 -38t-75 -15q-35 0 -65.5 10t-60 23.5t-59.5 24t-62 10.5q-33 0 -64 -16.5t-53 -47.5zM184 223q0 -104 97 -104q31 0 56 18.5 t36 61.5v448q-61 -23 -99 -48.5t-57.5 -60t-26 -78.5t-6.5 -102v-135z" />
<glyph unicode="&#xe4;" horiz-adv-x="581" d="M47 182v187q0 92 25.5 154.5t69.5 105.5t103.5 72.5t127.5 58.5v276q0 53 -19.5 82t-72.5 29q-55 0 -74 -28.5t-19 -82.5v-266h-125v268q0 125 53.5 187.5t168.5 62.5q223 0 223 -250v-893q0 -45 2 -83.5t8 -61.5h-129q-4 16 -6 34.5t-2 41.5q-51 -94 -152 -94 q-86 0 -134 47t-48 153zM70 1368v256h141v-256h-141zM184 223q0 -104 97 -104q31 0 56 18.5t36 61.5v448q-61 -23 -99 -48.5t-57.5 -60t-26 -78.5t-6.5 -102v-135zM377 1368v256h141v-256h-141z" />
<glyph unicode="&#xe5;" horiz-adv-x="581" d="M47 182v187q0 92 25.5 154.5t69.5 105.5t103.5 72.5t127.5 58.5v276q0 53 -19.5 82t-72.5 29q-55 0 -74 -28.5t-19 -82.5v-266h-125v268q0 125 53.5 187.5t168.5 62.5q223 0 223 -250v-893q0 -45 2 -83.5t8 -61.5h-129q-4 16 -6 34.5t-2 41.5q-51 -94 -152 -94 q-86 0 -134 47t-48 153zM92 1509q0 72 49 118t147 46t148.5 -46t50.5 -118q0 -70 -50 -114.5t-149 -44.5q-98 0 -147 45t-49 114zM170 1509q0 -92 118 -92q117 0 117 92q0 94 -117 95q-119 0 -118 -95zM184 223q0 -104 97 -104q31 0 56 18.5t36 61.5v448q-61 -23 -99 -48.5 t-57.5 -60t-26 -78.5t-6.5 -102v-135z" />
<glyph unicode="&#xe6;" horiz-adv-x="886" d="M47 182v187q0 92 25.5 154.5t69.5 105.5t103.5 72.5t127.5 58.5v278q0 53 -19.5 81t-72.5 28t-73 -27.5t-20 -81.5v-268h-125v268q0 125 53.5 187.5t168.5 62.5q104 0 159 -59q53 59 152 59q227 0 227 -260v-407h-315v-394q0 -53 23.5 -77.5t64.5 -24.5q94 0 94 113v278 h133v-278q0 -256 -227 -256q-70 0 -113 24.5t-69 73.5q-23 -41 -64 -69.5t-114 -28.5q-86 0 -137.5 47t-51.5 153zM184 236q0 -59 21.5 -88t75.5 -29q31 0 56 18.5t36 61.5v448q-61 -23 -99 -48.5t-57.5 -60t-26 -78.5t-6.5 -102v-122zM508 723h182v305q0 113 -94 113 q-88 0 -88 -113v-305z" />
<glyph unicode="&#xe7;" horiz-adv-x="579" d="M63 240v786q0 117 57.5 189.5t174.5 72.5t169 -71.5t52 -188.5v-274h-127v276q0 53 -23.5 83t-70.5 30t-70.5 -31t-23.5 -84v-788q0 -115 94 -115t94 113v280h131v-282q0 -115 -54 -184.5t-171 -69.5t-174.5 70.5t-57.5 187.5zM240 -41h119v-184q0 -39 -18.5 -59.5 t-61.5 -20.5h-23v51h17q23 0 22 25v41h-55v147z" />
<glyph unicode="&#xe8;" d="M-18 1673h180l231 -330h-137zM63 238v790q0 129 56.5 194.5t163.5 65.5q227 0 227 -260v-407h-315v-383q0 -113 88 -113q94 0 94 113v278h133v-278q0 -256 -227 -256q-219 0 -220 256zM195 723h182v305q0 113 -94 113q-88 0 -88 -113v-305z" />
<glyph unicode="&#xe9;" d="M63 238v790q0 129 56.5 194.5t163.5 65.5q227 0 227 -260v-407h-315v-383q0 -113 88 -113q94 0 94 113v278h133v-278q0 -256 -227 -256q-219 0 -220 256zM182 1343l229 330h182l-276 -330h-135zM195 723h182v305q0 113 -94 113q-88 0 -88 -113v-305z" />
<glyph unicode="&#xea;" d="M-10 1343l221 330h164l213 -330h-137l-162 252l-168 -252h-131zM63 238v790q0 129 56.5 194.5t163.5 65.5q227 0 227 -260v-407h-315v-383q0 -113 88 -113q94 0 94 113v278h133v-278q0 -256 -227 -256q-219 0 -220 256zM195 723h182v305q0 113 -94 113q-88 0 -88 -113 v-305z" />
<glyph unicode="&#xeb;" d="M63 238v790q0 129 56.5 194.5t163.5 65.5q227 0 227 -260v-407h-315v-383q0 -113 88 -113q94 0 94 113v278h133v-278q0 -256 -227 -256q-219 0 -220 256zM66 1368v256h141v-256h-141zM195 723h182v305q0 113 -94 113q-88 0 -88 -113v-305zM373 1368v256h141v-256h-141z " />
<glyph unicode="&#xec;" horiz-adv-x="323" d="M-133 1673h180l231 -330h-137zM103 0v1268h141v-1268h-141z" />
<glyph unicode="&#xed;" horiz-adv-x="323" d="M49 1343l229 330h182l-276 -330h-135zM80 0v1268h141v-1268h-141z" />
<glyph unicode="&#xee;" horiz-adv-x="464" d="M-64 1343l221 330h164l213 -330h-137l-162 252l-168 -252h-131zM162 0v1268h141v-1268h-141z" />
<glyph unicode="&#xef;" horiz-adv-x="364" d="M-41 1368v256h141v-256h-141zM111 0v1268h141v-1268h-141zM266 1368v256h141v-256h-141z" />
<glyph unicode="&#xf0;" horiz-adv-x="657" d="M63 274v541q0 135 62.5 192.5t169.5 57.5q55 0 95 -24.5t61 -65.5v235q0 131 -31 209l-211 -262l-55 47l225 281q-55 59 -172 61v158q92 0 158.5 -25.5t111.5 -72.5l90 110l56 -47l-101 -123q39 -70 55.5 -164t16.5 -211v-897q0 -141 -65.5 -216.5t-200.5 -75.5 q-131 0 -198 75.5t-67 216.5zM219 293q0 -72 24.5 -115t84.5 -43q109 0 108 133v508q-4 25 -8 49.5t-14.5 43t-29.5 30.5t-52 12q-113 0 -113 -123v-495z" />
<glyph unicode="&#xf1;" horiz-adv-x="618" d="M68 1411v125q20 23 50 39t73 16q37 0 67.5 -10t60 -23.5t58.5 -23.5t64 -10q33 0 63.5 16t52.5 45v-125q-18 -23 -50 -38t-75 -15q-35 0 -65.5 10t-60 23.5t-59.5 24t-62 10.5q-33 0 -64 -16.5t-53 -47.5zM76 0v1268h119q6 -47 6 -97q29 53 76 85t106 32q86 0 126 -56 t40 -177v-1055h-141v1047q0 55 -18.5 78.5t-63.5 23.5q-31 0 -62 -18.5t-47 -59.5v-1071h-141z" />
<glyph unicode="&#xf2;" horiz-adv-x="593" d="M-8 1673h180l231 -330h-137zM63 233v801q0 123 57.5 188.5t176.5 65.5q117 0 175 -65.5t58 -188.5v-801q0 -123 -58 -187t-175 -64q-119 0 -176.5 64.5t-57.5 186.5zM201 233q0 -53 19.5 -80.5t76.5 -27.5t76.5 28.5t19.5 84.5v792q0 53 -19.5 83t-76.5 30t-76.5 -30 t-19.5 -83v-797z" />
<glyph unicode="&#xf3;" horiz-adv-x="593" d="M63 233v801q0 123 57.5 188.5t176.5 65.5q117 0 175 -65.5t58 -188.5v-801q0 -123 -58 -187t-175 -64q-119 0 -176.5 64.5t-57.5 186.5zM193 1343l229 330h182l-276 -330h-135zM201 233q0 -53 19.5 -80.5t76.5 -27.5t76.5 28.5t19.5 84.5v792q0 53 -19.5 83t-76.5 30 t-76.5 -30t-19.5 -83v-797z" />
<glyph unicode="&#xf4;" horiz-adv-x="593" d="M0 1343l221 330h164l213 -330h-137l-162 252l-168 -252h-131zM63 233v801q0 123 57.5 188.5t176.5 65.5q117 0 175 -65.5t58 -188.5v-801q0 -123 -58 -187t-175 -64q-119 0 -176.5 64.5t-57.5 186.5zM201 233q0 -53 19.5 -80.5t76.5 -27.5t76.5 28.5t19.5 84.5v792 q0 53 -19.5 83t-76.5 30t-76.5 -30t-19.5 -83v-797z" />
<glyph unicode="&#xf5;" horiz-adv-x="593" d="M56 1411v125q20 23 50 39t73 16q37 0 67.5 -10t60 -23.5t58.5 -23.5t64 -10q33 0 63.5 16t52.5 45v-125q-18 -23 -50 -38t-75 -15q-35 0 -65.5 10t-60 23.5t-59.5 24t-62 10.5q-33 0 -64 -16.5t-53 -47.5zM63 233v801q0 123 57.5 188.5t176.5 65.5q117 0 175 -65.5 t58 -188.5v-801q0 -123 -58 -187t-175 -64q-119 0 -176.5 64.5t-57.5 186.5zM201 233q0 -53 19.5 -80.5t76.5 -27.5t76.5 28.5t19.5 84.5v792q0 53 -19.5 83t-76.5 30t-76.5 -30t-19.5 -83v-797z" />
<glyph unicode="&#xf6;" horiz-adv-x="593" d="M63 233v801q0 123 57.5 188.5t176.5 65.5q117 0 175 -65.5t58 -188.5v-801q0 -123 -58 -187t-175 -64q-119 0 -176.5 64.5t-57.5 186.5zM76 1368v256h141v-256h-141zM201 233q0 -53 19.5 -80.5t76.5 -27.5t76.5 28.5t19.5 84.5v792q0 53 -19.5 83t-76.5 30t-76.5 -30 t-19.5 -83v-797zM383 1368v256h141v-256h-141z" />
<glyph unicode="&#xf7;" horiz-adv-x="946" d="M76 801v117h796v-117h-796zM399 401v256h146v-256h-146zM399 1061v256h146v-256h-146z" />
<glyph unicode="&#xf8;" horiz-adv-x="593" d="M63 -193l56 240q-55 63 -56 186v801q0 123 57.5 188.5t176.5 65.5q59 0 111 -20l45 192h77l-57 -241q57 -68 57 -185v-801q0 -123 -58 -187t-175 -64q-66 0 -111 18l-45 -193h-78zM201 391l170 723q-23 29 -74 29q-57 0 -76.5 -30t-19.5 -83v-639zM221 150q20 -25 76 -25 q57 0 76.5 28.5t19.5 84.5v639l-172 -725v-2z" />
<glyph unicode="&#xf9;" horiz-adv-x="614" d="M2 1673h180l231 -330h-137zM70 205v1063h141v-1041q0 -57 18.5 -79.5t59.5 -22.5q33 0 62.5 17.5t45.5 58.5v1067h142v-1268h-121q-2 23 -3 45.5t-1 46.5q-29 -51 -75 -78.5t-106 -27.5q-164 0 -163 219z" />
<glyph unicode="&#xfa;" horiz-adv-x="614" d="M70 205v1063h141v-1041q0 -57 18.5 -79.5t59.5 -22.5q33 0 62.5 17.5t45.5 58.5v1067h142v-1268h-121q-2 23 -3 45.5t-1 46.5q-29 -51 -75 -78.5t-106 -27.5q-164 0 -163 219zM203 1343l229 330h182l-276 -330h-135z" />
<glyph unicode="&#xfb;" horiz-adv-x="614" d="M10 1343l221 330h164l213 -330h-137l-162 252l-168 -252h-131zM70 205v1063h141v-1041q0 -57 18.5 -79.5t59.5 -22.5q33 0 62.5 17.5t45.5 58.5v1067h142v-1268h-121q-2 23 -3 45.5t-1 46.5q-29 -51 -75 -78.5t-106 -27.5q-164 0 -163 219z" />
<glyph unicode="&#xfc;" horiz-adv-x="614" d="M70 205v1063h141v-1041q0 -57 18.5 -79.5t59.5 -22.5q33 0 62.5 17.5t45.5 58.5v1067h142v-1268h-121q-2 23 -3 45.5t-1 46.5q-29 -51 -75 -78.5t-106 -27.5q-164 0 -163 219zM82 1368v256h141v-256h-141zM389 1368v256h141v-256h-141z" />
<glyph unicode="&#xfd;" horiz-adv-x="567" d="M23 1268h147q10 -72 21.5 -160t22.5 -182.5t21.5 -187.5t19.5 -176t15 -147.5t11 -101.5q4 37 11 101.5t17 146.5t22.5 176t25 188.5t24.5 182.5t25 160h135l-193 -1284q-10 -68 -24.5 -119t-40 -87t-66.5 -54.5t-102 -18.5q-20 0 -40 3t-36 7v142q29 -10 70 -11 q43 0 62 35t30 94l8 52zM180 1343l229 330h182l-276 -330h-135z" />
<glyph unicode="&#xfe;" horiz-adv-x="620" d="M76 -285v1971h141v-480q23 37 62.5 59.5t91.5 22.5q96 0 140 -54t44 -179v-842q0 -127 -44 -179t-140 -52q-51 0 -91 21.5t-63 55.5v-344h-141zM217 209q14 -41 44 -61.5t65 -20.5q47 0 68.5 22.5t21.5 81.5v805q0 57 -21.5 81t-68.5 24q-35 0 -65 -20.5t-44 -61.5v-850z " />
<glyph unicode="&#xff;" horiz-adv-x="567" d="M23 1268h147q10 -72 21.5 -160t22.5 -182.5t21.5 -187.5t19.5 -176t15 -147.5t11 -101.5q4 37 11 101.5t17 146.5t22.5 176t25 188.5t24.5 182.5t25 160h135l-193 -1284q-10 -68 -24.5 -119t-40 -87t-66.5 -54.5t-102 -18.5q-20 0 -40 3t-36 7v142q29 -10 70 -11 q43 0 62 35t30 94l8 52zM62 1368v256h141v-256h-141zM369 1368v256h141v-256h-141z" />
<glyph unicode="&#x152;" horiz-adv-x="894" d="M63 268v1149q0 141 66 214t199 73q66 0 112 -18h404v-158h-291v-592h205v-156h-205v-626h301v-154h-414q-47 -18 -112 -18q-133 0 -199 72.5t-66 213.5zM219 268q0 -133 109 -133q39 0 69 10v1391q-14 6 -31.5 8t-37.5 2q-109 0 -109 -129v-1149z" />
<glyph unicode="&#x153;" horiz-adv-x="909" d="M63 233v801q0 123 57.5 188.5t176.5 65.5q109 0 166 -63q57 63 155 63q227 0 228 -260v-407h-316v-383q0 -113 88 -113q94 0 95 113v278h133v-278q0 -256 -228 -256q-102 0 -157 57q-55 -57 -164 -57q-119 0 -176.5 64.5t-57.5 186.5zM201 233q0 -53 19.5 -80.5 t76.5 -27.5t76.5 28.5t19.5 84.5v792q0 53 -19.5 83t-76.5 30t-76.5 -30t-19.5 -83v-797zM530 723h183v305q0 113 -95 113q-88 0 -88 -113v-305z" />
<glyph unicode="&#x178;" horiz-adv-x="679" d="M18 1686h164q20 -84 45 -185.5t47.5 -200t41 -181.5t26.5 -128q8 45 26.5 128t42 181.5t49 200t48.5 185.5h151l-245 -930v-756h-158v756zM115 1786v256h141v-256h-141zM422 1786v256h141v-256h-141z" />
<glyph unicode="&#x2c6;" horiz-adv-x="788" d="M94 1343l221 330h164l213 -330h-137l-162 252l-168 -252h-131z" />
<glyph unicode="&#x2dc;" horiz-adv-x="643" d="M76 1411v125q20 23 50 39t73 16q37 0 67.5 -10t60 -23.5t58.5 -23.5t64 -10q33 0 63.5 16t52.5 45v-125q-18 -23 -50 -38t-75 -15q-35 0 -65.5 10t-60 23.5t-59.5 24t-62 10.5q-33 0 -64 -16.5t-53 -47.5z" />
<glyph unicode="&#x2000;" horiz-adv-x="1045" />
<glyph unicode="&#x2001;" horiz-adv-x="2091" />
<glyph unicode="&#x2002;" horiz-adv-x="1045" />
<glyph unicode="&#x2003;" horiz-adv-x="2091" />
<glyph unicode="&#x2004;" horiz-adv-x="697" />
<glyph unicode="&#x2005;" horiz-adv-x="522" />
<glyph unicode="&#x2006;" horiz-adv-x="348" />
<glyph unicode="&#x2007;" horiz-adv-x="348" />
<glyph unicode="&#x2008;" horiz-adv-x="261" />
<glyph unicode="&#x2009;" horiz-adv-x="418" />
<glyph unicode="&#x200a;" horiz-adv-x="116" />
<glyph unicode="&#x2010;" horiz-adv-x="372" d="M27 788v121h323v-121h-323z" />
<glyph unicode="&#x2011;" horiz-adv-x="372" d="M27 788v121h323v-121h-323z" />
<glyph unicode="&#x2012;" horiz-adv-x="372" d="M27 788v121h323v-121h-323z" />
<glyph unicode="&#x2013;" horiz-adv-x="571" d="M27 788v121h518v-121h-518z" />
<glyph unicode="&#x2014;" horiz-adv-x="897" d="M27 788v121h845v-121h-845z" />
<glyph unicode="&#x2018;" horiz-adv-x="274" d="M63 1321v266q0 51 26 82t85 31h16v-68h-14q-16 0 -24.5 -7t-8.5 -30v-63h68v-211h-148z" />
<glyph unicode="&#x2019;" horiz-adv-x="274" d="M63 1475v211h148v-265q0 -53 -25.5 -83.5t-85.5 -30.5h-16v67h12q35 0 35 37v64h-68z" />
<glyph unicode="&#x201a;" horiz-adv-x="282" d="M68 45v211h147v-264q0 -53 -25.5 -84t-85.5 -31h-16v68h12q35 0 35 37v63h-67z" />
<glyph unicode="&#x201c;" horiz-adv-x="548" d="M63 1321v266q0 51 26 82t85 31h16v-68h-14q-16 0 -24.5 -7t-8.5 -30v-63h68v-211h-148zM337 1321v266q0 51 26 82t85 31h16v-68h-14q-16 0 -24.5 -7t-8.5 -30v-63h68v-211h-148z" />
<glyph unicode="&#x201d;" horiz-adv-x="548" d="M63 1475v211h148v-265q0 -53 -25.5 -83.5t-85.5 -30.5h-16v67h12q35 0 35 37v64h-68zM337 1475v211h148v-265q0 -53 -25.5 -83.5t-85.5 -30.5h-16v67h12q35 0 35 37v64h-68z" />
<glyph unicode="&#x201e;" horiz-adv-x="565" d="M68 45v211h147v-264q0 -53 -25.5 -84t-85.5 -31h-16v68h12q35 0 35 37v63h-67zM351 45v211h147v-264q0 -53 -25.5 -84t-85.5 -31h-16v68h12q35 0 35 37v63h-67z" />
<glyph unicode="&#x2022;" horiz-adv-x="428" d="M63 963q0 72 40 119.5t112 47.5q70 0 110 -48t40 -119q0 -72 -40 -122t-110 -50q-72 0 -112 50t-40 122z" />
<glyph unicode="&#x2026;" horiz-adv-x="1361" d="M63 0v256h146v-256h-146zM608 0v256h146v-256h-146zM1153 0v256h146v-256h-146z" />
<glyph unicode="&#x202f;" horiz-adv-x="418" />
<glyph unicode="&#x2039;" horiz-adv-x="399" d="M39 606v154l321 229v-133l-245 -172l245 -180v-139z" />
<glyph unicode="&#x203a;" horiz-adv-x="399" d="M39 365v139l246 180l-246 172v133l321 -229v-154z" />
<glyph unicode="&#x205f;" horiz-adv-x="522" />
<glyph unicode="&#x20ac;" horiz-adv-x="700" d="M20 606l19 119h76v264h-95l19 121h76v266q0 82 17.5 144.5t59 102.5t109.5 60.5t170 20.5q59 0 112.5 -3t96.5 -7l-25 -158q-92 12 -180 12q-63 0 -103 -11t-62.5 -32.5t-31 -53.5t-8.5 -75v-266h320l-21 -121h-299v-264h260l-20 -119h-240v-342q0 -53 33 -92t86 -39 q70 0 93.5 42t23.5 126v125h153v-158q0 -141 -64.5 -213.5t-205.5 -72.5t-207.5 72.5t-66.5 213.5v338h-95z" />
<glyph unicode="&#x2122;" horiz-adv-x="991" d="M55 1610v76h320v-76h-111v-703h-98v703h-111zM444 907v779h129l107 -609l102 609h131v-779h-88v262v153t2 151l-104 -566h-86l-107 566q2 -76 3.5 -152t1.5 -152v-262h-91z" />
<glyph unicode="&#xe000;" horiz-adv-x="1269" d="M0 0v1270h1270v-1270h-1270z" />
<glyph unicode="&#xfb01;" horiz-adv-x="692" d="M20 1143v125h62v176q0 119 42 185.5t152 66.5q25 0 49.5 -3t43.5 -10v-120q-23 6 -52 6q-49 0 -72.5 -30t-23.5 -99v-172h144v-125h-144v-1143h-139v1143h-62zM471 0v1268h141v-1268h-141zM471 1430v256h141v-256h-141z" />
<glyph unicode="&#xfb02;" horiz-adv-x="684" d="M20 1143v125h62v176q0 119 42 185.5t152 66.5q25 0 49.5 -3t43.5 -10v-120q-23 6 -52 6q-49 0 -72.5 -30t-23.5 -99v-172h144v-125h-144v-1143h-139v1143h-62zM467 0v1686h141v-1686h-141z" />
</font>
</defs>
</svg>
