<?xml version="1.0" encoding="utf-8"?>
<!-- Generator: Adobe Illustrator 18.1.0, SVG Export Plug-In . SVG Version: 6.00 Build 0)  -->
<svg version="1.1" xmlns="http://www.w3.org/2000/svg" xmlns:xlink="http://www.w3.org/1999/xlink" x="0px" y="0px"
	 viewBox="0 0 32 32" enable-background="new 0 0 32 32" xml:space="preserve">
<g id="circle_background" display="none">
	<rect y="0" display="inline" fill="none" width="32" height="32"/>
	<g display="inline">
		<circle fill="#494949" cx="16" cy="16" r="16"/>
	</g>
	<g display="inline">
		<circle fill="#494949" cx="16" cy="16" r="16"/>
	</g>
</g>
<g id="icons">
	<circle fill="#D3EAF9" cx="16" cy="16" r="16"/>
	<g>
		<path fill="none" d="M29.3124905,18.859375c-0.0595608-0.171936-0.2451077-0.609436-0.2656155-0.78125
			c-0.0391235-0.3575439-0.6972656-1.4336548-1.0351562-1.8398438c0.0166016,0.1425781,0.0663452,0.3300781,0.1308594,0.5371094
			c0.1455078,0.4608765,0.3408203,0.8983765,0.4638062,1.0410156c0.0137329,0.0116577,0.0899048,0.0761719,0.2402954,0.4921875
			c0.0488281,0.1464844,0.2128906,0.703064,0.2128906,0.703064c0.0674438,0.2403564,0.1386108,0.4727173,0.2080078,0.6660156
			c0.0342407,0.0859985,0.0674438,0.1602173,0.1025391,0.2246094c0.0321655,0.0703735,0.0605469,0.1132812,0.0878906,0.1348267
			c0.0194702,0.015564,0.1776733,0.0253906,0.2207031,0.0253906c0.0810547,0,0.1601562,0.0194702,0.2265625,0.0390625
			c0.0075073,0.0023193,0.2023926,0.0830688,0.4611816,0.1911621c0.0697632-0.2328491,0.1242676-0.4718628,0.1828003-0.7092896
			c-0.3850098-0.1566772-0.7158203-0.2943726-0.7904663-0.2943726C29.4335938,19.2558594,29.3848267,19.078064,29.3124905,18.859375
			z"/>
		<path fill="none" d="M30.625,14.984375c-0.140625,0.15625-0.171875,0.28125,0.03125,0.5625
			c0.0454712,0.0454712,0.1744385,0.1262817,0.3319092,0.2194214c-0.0046387-0.2987671-0.0230713-0.5941162-0.0449829-0.8884277
			C30.7596436,14.9298706,30.6395874,14.9681396,30.625,14.984375z"/>
		<path fill="none" d="M20.1669922,29.1659546c0.1054688-0.468689,0.2587891-0.7304688,0.6845703-1.1600952
			c0.3574219-0.3574829,0.4804077-0.7753906,0.4277344-1.4433594c-0.0205078-0.3066406-0.1884766-0.4727173-0.3231812-0.609436
			l-0.0928345-0.0917969c-0.1602173-0.1640015-0.2167969-0.4022827-0.1494141-0.6190796
			c0.0223999-0.0899048,0.1904297-0.6699219,0.1123047-0.9434204c-0.0448608-0.1717529-0.1445923-0.3026733-0.4853516-0.3924561
			c-0.100647-0.031311-0.2041016-0.0508423-0.3135376-0.0743408c-0.2158203-0.0410156-0.453064-0.0897827-0.7020874-0.171814
			c-0.1571655-0.0507812-0.3721313-0.0761719-0.6377048-0.0761719c-0.2958889,0-0.5966702,0.0292969-0.8604031,0.0643921
			c-0.2166748,0.0234985-1.2391968,0.1699829-1.3623047,0.1699829c-0.4198608,0-0.8670654-0.1972656-1.3300171-0.5859985
			c-0.3271484-0.2635498-0.5908813-0.6952515-0.7431641-1.2089844c-0.0703125-0.2324219-0.2393188-0.421814-0.4111328-0.5917969
			l-0.2704468-0.2539062c-0.1231079-0.1112671-0.1846313-0.1932983-0.2246094-0.2518921
			c-0.116333-0.1679688-0.2012329-0.4160156-0.2286377-0.6660156c-0.0077515-0.1524048-0.0028687-0.2539062,0.0166016-0.343811
			c0.0274048-0.1327515,0.0957031-0.2479858,0.2041016-0.343689c0.2626953-0.2284546,0.4003906-0.6875,0.4003906-1.0253906
			c0-0.2050781,0.0059204-0.3320923,0.0440063-0.4960938c0.031189-0.1464844,0.1035156-0.328125,0.2656145-0.6641235
			c0.3104963-0.6073608,0.9813948-1.3632812,1.4882917-1.5233765c0,0,0.4208984-0.1621094,0.4570312-0.1914062
			c0.0917969-0.0703125,0.1621094-0.1542969,0.2304688-0.3515625c0.1727905-0.4432983,0.4022827-0.65625,0.8515015-0.9668579
			c0.1016235-0.0625,0.5665283-0.5526733,0.5801392-0.5625c0.1132812-0.1112671,0.2685547-0.1757812,0.4316406-0.1757812
			c0.0732422,0,0.1357422,0.0098267,0.1914673,0.0292969c0.0741577,0.0176392,0.7049561,0.3731079,0.7684326,0.3964844
			l0.093811-0.0018921c0.0010376-0.0019531,0.1708984-0.0546875,0.1708984-0.0546875s0.5078125-0.281311,0.8143921-0.3046875
			c0.2305298-0.0253906,0.6201172-0.0585938,1.0108032-0.0585938c0,0,0.6259155,0.0332031,0.8066406,0.0761719
			c0.3037109,0.0625,0.6210938,0.3925171,0.5733032,0.7207031l-0.0245361,0.1699219
			c0.0010376,0.0253906,0.0215454,0.2069702,0.0977173,0.2891235c0.2802734,0.3319702,1.414978,0.7752686,1.8076172,0.828064
			c0.0733032,0,0.093811-0.0234985,0.1112671-0.0527954c0.0186157-0.0332031,0.0352173-0.0742188,0.0498047-0.1132202
			l0.0332031-0.1210938c0.0634766-0.2753906,0.3184204-0.4765625,0.6065063-0.4765625
			c0.0126953,0,0.3867188,0.0858765,0.5009766,0.1444702c0.1054077,0.0507812,0.4326172,0.1661377,0.4990234,0.1661377
			c0.2235718-0.0254517,0.3223267-0.0606079,0.4481812-0.1075439c0.1856079-0.0722046,0.3301392-0.1289062,0.5489502-0.1953125
			c0.0809937-0.0233765,0.2694702-0.0819702,0.2694702-0.3964844c0-0.125-0.0322266-0.3457031-0.1835938-0.6815796
			c-0.0576172-0.1522827-0.2313843-0.2539062-0.4932251-0.2891235c-0.086853-0.0097046-0.4393921-0.0097046-0.4393921-0.0097046
			c-0.2753906,0-0.5087891-0.1582031-0.6054688-0.3925781c-0.0264282-0.0742188-0.0664062-0.1425781-0.1191406-0.2070312
			c-0.0401001-0.0410767-0.0702515-0.0625-0.0849609-0.0703735c0.0087795,0.0117798-0.0273438,0.0430298-0.0527344,0.0859985
			c-0.1123047,0.2012329-0.3359985,0.343689-0.5419922,0.3457031c-0.2734985,0-0.4649048-0.0899048-0.5645142-0.2559204
			c-0.1034546-0.1503906-0.1796875-0.3457031-0.1972046-0.5039062c-0.006897-0.0507812-0.0488892-0.1542969-0.2050781-0.3495483
			c-0.1289062-0.1426392-0.7442017-0.703125-0.8858032-0.78125c-0.0078125-0.0058594-0.0175171-0.0136719-0.0283203-0.0195923
			c-0.0497437,0.1777954-0.1875,0.3399048-0.3729858,0.4296875c-0.0986938,0.0528564-0.2138672,0.0625-0.2929688,0.0625
			c-0.1484375,0-0.2891235-0.0429688-0.3965454-0.1229858c-0.1473999-0.1171875-0.2714844-0.2070923-0.3573608-0.2616577
			c-0.1074219-0.0625-0.2158203-0.093811-0.3408203-0.093811c-0.1768188,0-0.3671875,0.0664062-0.5664062,0.1953125
			c-0.0498047,0.0370483-0.1035156,0.0917969-0.1591797,0.1523438l-0.1132812,0.1582031
			c-0.1064453,0.1484375-0.2217407,0.2949219-0.4453125,0.4042969c-0.0820312,0.046814-0.2783203,0.3418579-0.2783203,0.3418579
			c-0.0585938,0.1366577-0.2901001,0.5057983-0.4071655,0.6073608c-0.1807251,0.1679077-0.375,0.2479858-0.5928345,0.2479858
			c-0.0186157,0-0.093811-0.0018921-0.1162109-0.0039062c-0.086853-0.0116577-0.6474609-0.1698608-0.6474609-0.1698608
			c-0.2930298-0.0684204-0.5018921-0.3555298-0.4873047-0.6680298c0.0028687-0.3417969,0.0058594-0.6385498,0.046875-0.9159546
			c0.0253906-0.1641235,0.0615234-0.3008423,0.1102905-0.421936c0.0928345-0.218689,0.3448486-0.3710938,0.6133423-0.3710938
			c0.0507812,0,0.5274048,0.1132812,0.6524048,0.125c0.0340576,0.0059204,0.2909546-0.0039062,0.3797607-0.0252686
			c0.0488892-0.0098267,0.1221313-0.0274048,0.1152954-0.1973267c-0.006897-0.1444702-0.0772095-0.3359985-0.1181641-0.4511719
			L19.3690796,10.3125c-0.1289062-0.3262329,0.0186157-0.6816406,0.3330078-0.8184204
			c0.3917236-0.1600952,0.7744751-0.4979858,0.8936157-0.6444702c0.0985718-0.1328125,0.3056641-0.3475952,0.4989624-0.5215454
			c0.0889282-0.0839844,0.194397-0.1698608,0.2930298-0.2401733c0.1162109-0.078125,0.25-0.1190796,0.3876953-0.1190796
			c0.085022,0,0.1708984,0.0174561,0.2479858,0.0506592c0,0,0.4180298,0.1796875,0.6748047,0.1796875
			c0.5488892,0,0.6104126-0.109375,0.7745361-0.4003906C23.6436157,7.5,23.671875,7.1854858,23.5645142,6.8104858
			c-0.0411377-0.1445312-0.178833-0.2459717-0.3165283-0.3358765c0,0-0.2080078-0.1289062-0.2362671-0.1504517
			c-0.0713501-0.0526733-0.1269531-0.109375-0.1650391-0.1737671c-0.0302734-0.031311-0.0614624-0.0410156-0.0888672-0.0410156
			c-0.0342407,0-0.0625,0.015625-0.0771484,0.0272827c-0.0595703,0.0606079-0.1288452,0.1875-0.1288452,0.2891235
			c0,0.1171875,0.008667,0.281189,0.0194702,0.4453125l0.0117188,0.1444702
			c0.0175781,0.2422485-0.1074219,0.4727173-0.3184204,0.5859985c-0.0877686,0.0527344-0.1942749,0.0820312-0.3037109,0.0820312
			c-0.1297607,0-0.2539062-0.0391235-0.3583984-0.1132812c-0.2782593-0.1894531-0.5653687-0.4316406-0.8515015-0.7168579
			c-0.1864624-0.1875-0.3067017-0.5507812-0.1875-0.796875c0.0350952-0.0604858,0.2479858-0.3847046,0.296936-0.4804077
			l0.281189-0.6210938c0.0791016-0.1484985,0.1259766-0.2207031,0.1503906-0.2559204
			c0.2246094-0.2733765,0.7108765-0.6522827,1.1035156-0.6522827c0.0458984,0,0.8358765,0.2011108,0.8358765,0.2011108
			c0.1856079,0.0606079,0.6152954,0.203186,0.8887329,0.203186c0-0.0020142,0.0712891-0.1113892,0.0712891-0.1113892
			c-0.0166016-0.0507202-0.1289158-0.2850952-0.1289158-0.2850952c-0.0214748-0.0410156,0.0087986-0.0769043,0.0225315-0.1210938
			c0.0279541-0.0899658,0.0925293-0.2521362,0.1735229-0.442688C21.8877563,1.9204102,19.0505371,1,16,1
			c-2.4992676,0-4.8527832,0.6229248-6.9273682,1.7086182C9.1278687,2.7950439,9.1696167,2.859375,9.171875,2.859375
			C9.625,2.84375,10.2865601,2.6129761,10.2139282,2.6229858c0.0429077-0.0291748,0.3094482-0.1541748,0.3788452-0.1776733
			c0,0,0.2763062-0.0879517,0.2890015-0.0879517c0.1123047,0,0.218811,0.0215454,0.3447876,0.0723267
			c0.2617188,0.0975952,0.4101562,0.4276733,0.4004517,0.6875C11.6123047,3.3866577,11.5,3.6991577,11.3270874,3.953064
			c-0.3173218,0.4727173-0.7949219,1.1387329-1.0946655,1.4960938c-0.1113281,0.1387329-0.3008423,0.2246094-0.4922485,0.2246094
			c0,0-0.7987671-0.1953125-0.8886108-0.2049561C8.8104858,5.4647827,8.7744141,5.4589844,8.7412109,5.4589844
			c-0.1816406,0-0.2723999,0.0449219-0.4424438,0.4979858C8.2265625,6.1386719,8.0272827,6.6366577,7.4580078,6.6366577
			c-0.0244141,0-0.1102905-0.0018921-0.1279297-0.0038452C6.8876953,6.578064,6.4931641,6.578064,6.0751953,6.578064
			c-0.4589844,0-0.8427734,0.3417969-1.085022,0.6270142C4.8643188,7.3339844,4.1552734,7.796875,4.1171875,7.796875
			c-0.0881348-0.0078125-0.329834-0.0181274-0.6419067-0.0297852c-1.187561,1.8005981-1.9862061,3.8724976-2.305542,6.0992432
			c0.2809448,0.0767212,0.4680786,0.1277466,0.4698486,0.1277466c0.0322876,0,0.0634766,0.015686,0.0820923,0.0430298
			c0.1434937,0.2089844,0.2255859,0.4511719,0.25,0.7460938c0.0214844,0.3690796,0.1766968,0.6269531,0.3475952,0.8808594
			c0,0,0.2520142,0.3807983,0.3037109,0.46875c0.0820923,0.1308594,0.203186,0.3378906,0.303833,0.6054688
			c0.1463623,0.3789062,0.5957031,1.2850952,0.5957031,1.2850952c0.1864624,0.3731079,0.4012451,0.828186,0.5692749,1.3516235
			c0.1503906,0.4707031,0.1259766,0.828064,0.085022,1.1835938c-0.0234985,0.156189-0.0411377,0.2753906-0.0372314,0.390564
			c0.0048828,0.1113281,0.0333252,0.1992188,0.0899048,0.2754517c0.0751953,0.0957031,1.3710938,0.953064,1.3710938,0.953064
			C6.4979858,22.75,6.9824219,23.1328125,7.2196655,23.4550781c0.046936,0.0604858,0.0869141,0.1210938,0.1153564,0.1660156
			c0.0985718,0.1757812,0.0585938,0.390564,0.0262451,0.5018921c-0.0448608,0.1679688-0.1962891,0.3203735-0.3251953,0.3964844
			c-0.1503906,0.0801392-0.2733765,0.1524048-0.3964844,0.2421875c-0.2293701,0.1660156-0.2744141,0.3145142-0.2744141,0.5176392
			c0.0078125,0.171875-0.227478,1.0020142-0.305603,1.0858765c-0.0014648,0.0018921-0.1258545,0.2235107-0.3116455,0.5541992
			C8.4329224,29.4418335,12.0340576,31,16,31c1.4483643,0,2.8450928-0.2173462,4.1710205-0.6021729
			c-0.0097656-0.4677734-0.0172119-0.8187866-0.0196533-0.8470459C20.1416016,29.4022827,20.140564,29.281311,20.1669922,29.1659546
			z M19.0419922,6.8612671c0.1494141,0,0.2988281,0.0567017,0.4091797,0.156311
			c0.1621094,0.1425781,0.2871094,0.3300781,0.3496094,0.5272827c0.031189,0.0996094,0.0380859,0.203125,0.0205078,0.2989502
			c0.2539062,0.0877686,0.4453125,0.3299561,0.453125,0.593689c0.015564,0.2539062-0.1600952,0.6444702-0.4014282,0.7479858
			c-0.0545654,0.0292969-0.1239624,0.0449829-0.2049561,0.0449829c-0.1465454,0-0.3028564-0.0567017-0.4385376-0.1582031
			c-0.1807251-0.1308594-0.289978-0.4042969-0.2529297-0.6367798c0.0029297-0.0449219,0.0068359-0.0820312,0.0107422-0.1132202
			c-0.0039062-0.0019531-0.0068359-0.0019531-0.0068359-0.0019531c-0.2442017-0.0547485-0.4433594-0.1875-0.53125-0.3418579
			c-0.1103516-0.2167969-0.1338501-0.4003906-0.0713501-0.5487671c0.0274048-0.0664062,0.0576172-0.1328125,0.0869141-0.1934204
			c0.1026001-0.2011108,0.2686157-0.3241577,0.4570923-0.3592529L19.0419922,6.8612671z M13.7108765,3.0625
			c0.1954346-0.203125,0.3692017-0.328125,0.5585938-0.4609375c0,0,0.4160156-0.3183594,0.5010376-0.4042969
			c0.0878906-0.0820923,0.1386719-0.1601562,0.1737671-0.218811c0-0.0057983,0.1143188-0.2089844,0.1309204-0.2284546
			c0.0272827-0.0449219,0.0703125-0.1074219,0.1444702-0.1777344c0.0596313-0.0488892,0.1211548-0.0820923,0.1836548-0.1152954
			c0,0,0.4892578-0.0565796,0.5966797-0.0565796c0.8770142,0,1.7567749,0.0839844,2.6895142,0.2559204
			c0.1416016,0.1698608,0.1756592,0.2948608,0.1679077,0.4159546c-0.0146484,0.1893921-0.1025391,0.3496094-0.2480469,0.4550171
			c0,0-0.3056641,0.2324829-0.4013672,0.3261719c-0.1758423,0.1738281-0.2998047,0.3672485-0.4092407,0.5371094
			c0,0-0.2977905,0.4492188-0.3623047,0.5274048c-0.1063843,0.1328125-0.3094482,0.2167969-0.4520874,0.2363281
			c-0.0772095,0.0136719-0.4404907,0.0175781-0.5253906,0.0136719l-0.2227173-0.0136719
			c-0.1122437-0.0117188-0.5204468-0.0272827-0.5204468-0.0272827c-0.0791016,0-0.1640015,0.0038452-0.2470093,0.0194702
			c-0.4327393,0.0878906-1.0430298,0.375-1.4561157,0.6210938c-0.1005859,0.0546875-0.2061157,0.0820312-0.3154297,0.0820312
			c-0.1083984,0-0.2197876-0.0292969-0.3202515-0.0840454c-0.2022095-0.1289062-0.3174438-0.3457031-0.3057251-0.5682983
			C13.0878906,3.8339844,13.2852173,3.484375,13.7108765,3.0625z"/>
		<path fill="#57A6D9" d="M30.625,14.984375c0.0145874-0.0162354,0.1346436-0.0545044,0.3181763-0.1065063
			c-0.3544312-4.7526245-2.921814-8.8944092-6.6846313-11.3869629c-0.0809937,0.1905518-0.1455688,0.3527222-0.1735229,0.442688
			c-0.0137329,0.0441895-0.0440063,0.0800781-0.0225315,0.1210938c0,0,0.1123142,0.234375,0.1289158,0.2850952
			c0,0-0.0712891,0.109375-0.0712891,0.1113892c-0.2734375,0-0.703125-0.1425781-0.8887329-0.203186
			c0,0-0.789978-0.2011108-0.8358765-0.2011108c-0.3926392,0-0.8789062,0.3789062-1.1035156,0.6522827
			c-0.0244141,0.0352173-0.0712891,0.1074219-0.1503906,0.2559204l-0.281189,0.6210938
			c-0.0489502,0.0957031-0.2618408,0.4199219-0.296936,0.4804077c-0.1192017,0.2460938,0.0010376,0.609375,0.1875,0.796875
			c0.2861328,0.2852173,0.5732422,0.5274048,0.8515015,0.7168579c0.1044922,0.0741577,0.2286377,0.1132812,0.3583984,0.1132812
			c0.109436,0,0.2159424-0.0292969,0.3037109-0.0820312c0.2109985-0.1132812,0.3359985-0.34375,0.3184204-0.5859985
			l-0.0117188-0.1444702c-0.0108032-0.1641235-0.0194702-0.328125-0.0194702-0.4453125
			c0-0.1016235,0.0692749-0.2285156,0.1288452-0.2891235C22.6953125,6.125,22.7235718,6.109375,22.7578125,6.109375
			c0.0274048,0,0.0585938,0.0097046,0.0888672,0.0410156c0.0380859,0.0643921,0.093689,0.1210938,0.1650391,0.1737671
			c0.0282593,0.0215454,0.2362671,0.1504517,0.2362671,0.1504517c0.1376953,0.0899048,0.2753906,0.1913452,0.3165283,0.3358765
			c0.1073608,0.375,0.0791016,0.6895142-0.0917969,0.9882812c-0.1641235,0.2910156-0.225647,0.4003906-0.7745361,0.4003906
			c-0.2567749,0-0.6748047-0.1796875-0.6748047-0.1796875c-0.0770874-0.0332031-0.1629639-0.0506592-0.2479858-0.0506592
			c-0.1376953,0-0.2714844,0.0409546-0.3876953,0.1190796c-0.0986328,0.0703125-0.2041016,0.156189-0.2930298,0.2401733
			c-0.1932983,0.1739502-0.4003906,0.3887329-0.4989624,0.5215454c-0.1191406,0.1464844-0.5018921,0.484375-0.8936157,0.6444702
			c-0.3143921,0.1367798-0.4619141,0.4921875-0.3330078,0.8184204l0.0596313,0.1328125
			c0.0409546,0.1151733,0.1112671,0.3067017,0.1181641,0.4511719c0.0068359,0.1699219-0.0664062,0.1875-0.1152954,0.1973267
			c-0.0888062,0.0213623-0.3457031,0.031189-0.3797607,0.0252686c-0.125-0.0117188-0.6016235-0.125-0.6524048-0.125
			c-0.2684937,0-0.5205078,0.1524048-0.6133423,0.3710938c-0.0487671,0.1210938-0.0848999,0.2578125-0.1102905,0.421936
			c-0.0410156,0.2774048-0.0440063,0.5741577-0.046875,0.9159546c-0.0145874,0.3125,0.1942749,0.5996094,0.4873047,0.6680298
			c0,0,0.5606079,0.1582031,0.6474609,0.1698608c0.0223999,0.0020142,0.0975952,0.0039062,0.1162109,0.0039062
			c0.2178345,0,0.4121094-0.0800781,0.5928345-0.2479858c0.1170654-0.1015625,0.3485718-0.4707031,0.4071655-0.6073608
			c0,0,0.1962891-0.2950439,0.2783203-0.3418579c0.2235718-0.109375,0.3388672-0.2558594,0.4453125-0.4042969l0.1132812-0.1582031
			c0.0556641-0.0605469,0.109375-0.1152954,0.1591797-0.1523438C21.0751953,11.5039062,21.265564,11.4375,21.4423828,11.4375
			c0.125,0,0.2333984,0.031311,0.3408203,0.093811c0.0858765,0.0545654,0.2099609,0.1444702,0.3573608,0.2616577
			c0.1074219,0.0800171,0.2481079,0.1229858,0.3965454,0.1229858c0.0791016,0,0.1942749-0.0096436,0.2929688-0.0625
			c0.1854858-0.0897827,0.3232422-0.2518921,0.3729858-0.4296875c0.0108032,0.0059204,0.0205078,0.0137329,0.0283203,0.0195923
			c0.1416016,0.078125,0.756897,0.6386108,0.8858032,0.78125c0.156189,0.1952515,0.1981812,0.2987671,0.2050781,0.3495483
			c0.0175171,0.1582031,0.09375,0.3535156,0.1972046,0.5039062c0.0996094,0.1660156,0.2910156,0.2559204,0.5645142,0.2559204
			c0.2059937-0.0020142,0.4296875-0.1444702,0.5419922-0.3457031c0.0253906-0.0429688,0.0615139-0.0742188,0.0527344-0.0859985
			c0.0147095,0.0078735,0.0448608,0.0292969,0.0849609,0.0703735c0.0527344,0.0644531,0.0927124,0.1328125,0.1191406,0.2070312
			c0.0966797,0.234375,0.3300781,0.3925781,0.6054688,0.3925781c0,0,0.3525391,0,0.4393921,0.0097046
			c0.2618408,0.0352173,0.4356079,0.1368408,0.4932251,0.2891235c0.1513672,0.3358765,0.1835938,0.5565796,0.1835938,0.6815796
			c0,0.3145142-0.1884766,0.3731079-0.2694702,0.3964844c-0.218811,0.0664062-0.7735596,0.2774048-0.9971313,0.3028564
			c-0.0664062,0-0.3936157-0.1153564-0.4990234-0.1661377c-0.1142578-0.0585938-0.4882812-0.1444702-0.5009766-0.1444702
			c-0.2880859,0-0.5430298,0.2011719-0.6065063,0.4765625c0,0-0.0643921,0.2011108-0.0830078,0.234314
			c-0.0174561,0.0292969-0.0379639,0.0527954-0.1112671,0.0527954c-0.3926392-0.0527954-1.5273438-0.4960938-1.8076172-0.828064
			c-0.0761719-0.0821533-0.0966797-0.2637329-0.0977173-0.2891235l0.0245361-0.1699219
			c0.0477905-0.328186-0.2695923-0.6582031-0.5733032-0.7207031c-0.1807251-0.0429688-0.8066406-0.0761719-0.8066406-0.0761719
			c-0.390686,0-0.7802734,0.0332031-1.0108032,0.0585938c-0.3065796,0.0233765-0.8143921,0.3046875-0.8143921,0.3046875
			s-0.1698608,0.0527344-0.1708984,0.0546875l-0.093811,0.0018921c-0.0634766-0.0233765-0.6942749-0.3788452-0.7684326-0.3964844
			c-0.0557251-0.0194702-0.1182251-0.0292969-0.1914673-0.0292969c-0.1630859,0-0.3183594,0.0645142-0.4316406,0.1757812
			c-0.0136108,0.0098267-0.4785156,0.5-0.5801392,0.5625c-0.4492188,0.3106079-0.6787109,0.5235596-0.8515015,0.9668579
			c-0.0683594,0.1972656-0.1386719,0.28125-0.2304688,0.3515625c-0.0361328,0.0292969-0.4570312,0.1914062-0.4570312,0.1914062
			c-0.506897,0.1600952-1.1777954,0.9160156-1.4882917,1.5233765c-0.1620989,0.3359985-0.2344255,0.5176392-0.2656145,0.6641235
			c-0.0380859,0.1640015-0.0440063,0.2910156-0.0440063,0.4960938c0,0.3378906-0.1376953,0.796936-0.4003906,1.0253906
			c-0.1083984,0.0957031-0.1766968,0.2109375-0.2041016,0.343689c-0.0194702,0.0899048-0.024353,0.1914062-0.0166016,0.343811
			c0.0274048,0.25,0.1123047,0.4980469,0.2286377,0.6660156c0.039978,0.0585938,0.1015015,0.140625,0.2246094,0.2518921
			l0.2704468,0.2539062c0.171814,0.1699829,0.3408203,0.359375,0.4111328,0.5917969
			c0.1522827,0.5137329,0.4160156,0.9454346,0.7431641,1.2089844c0.4629517,0.3887329,0.9101562,0.5859985,1.3300171,0.5859985
			c0.1231079,0,1.1456299-0.1464844,1.3623047-0.1699829c0.2637329-0.0350952,0.5645142-0.0643921,0.8604031-0.0643921
			c0.2655735,0,0.4805393,0.0253906,0.6377048,0.0761719c0.2490234,0.0820312,0.4862671,0.1307983,0.7020874,0.171814
			c0.109436,0.0234985,0.2128906,0.0430298,0.3135376,0.0743408c0.3407593,0.0897827,0.4404907,0.2207031,0.4853516,0.3924561
			c0.078125,0.2734985-0.0899048,0.8535156-0.1123047,0.9434204c-0.0673828,0.2167969-0.0108032,0.4550781,0.1494141,0.6190796
			l0.0928345,0.0917969c0.1347046,0.1367188,0.3026733,0.3027954,0.3231812,0.609436
			c0.0526733,0.6679688-0.0703125,1.0858765-0.4277344,1.4433594c-0.4257812,0.4296265-0.5791016,0.6914062-0.6845703,1.1600952
			c-0.0264282,0.1153564-0.0253906,0.2363281-0.015625,0.3848267c0.0024414,0.0282593,0.0098877,0.3792725,0.0196533,0.8470459
			c4.8798828-1.4163208,8.739502-5.2420044,10.1954346-10.1051025c-0.2587891-0.1080933-0.4536743-0.1888428-0.4611816-0.1911621
			c-0.0664062-0.0195923-0.4277954-0.0488892-0.4472656-0.0644531c-0.0273438-0.0215454-0.0557251-0.0644531-0.0878906-0.1348267
			c-0.0350952-0.0643921-0.0682983-0.1386108-0.1025391-0.2246094c-0.069397-0.1932983-0.140564-0.4256592-0.2080078-0.6660156
			c0,0-0.1640625-0.5565796-0.2128906-0.703064c-0.1503906-0.4160156-0.2265625-0.4805298-0.2402954-0.4921875
			c-0.1229858-0.1426392-0.3182983-0.5801392-0.4638062-1.0410156c-0.0645142-0.2070312-0.1142578-0.3945312-0.1308594-0.5371094
			c0.3378906,0.406189,0.9960327,1.4822998,1.0351562,1.8398438c0.0205078,0.171814,0.2060547,0.609314,0.2656155,0.78125
			c0.0723362,0.218689,0.1211033,0.3964844,0.4462986,0.4296875c0.074646,0,0.4054565,0.1376953,0.7904663,0.2943726
			C30.8328857,18.4328003,31,17.2369385,31,16c0-0.0789185-0.0106201-0.1550903-0.0118408-0.2337036
			c-0.1574707-0.0931396-0.286438-0.1739502-0.3319092-0.2194214C30.453125,15.265625,30.484375,15.140625,30.625,14.984375z"/>
		<path fill="#57A6D9" d="M4.9901733,7.2050781C5.2324219,6.9198608,5.6162109,6.578064,6.0751953,6.578064
			c0.4179688,0,0.8125,0,1.2548828,0.0547485c0.0176392,0.0019531,0.1035156,0.0038452,0.1279297,0.0038452
			c0.5692749,0,0.7685547-0.4979858,0.8407593-0.6796875c0.1700439-0.453064,0.2608032-0.4979858,0.4424438-0.4979858
			c0.0332031,0,0.0692749,0.0057983,0.1103516,0.0098267c0.0898438,0.0096436,0.8886108,0.2049561,0.8886108,0.2049561
			c0.1914062,0,0.3809204-0.0858765,0.4922485-0.2246094c0.2997437-0.3573608,0.7773438-1.0233765,1.0946655-1.4960938
			C11.5,3.6991577,11.6123047,3.3866577,11.6270142,3.1171875c0.0097046-0.2598267-0.1387329-0.5899048-0.4004517-0.6875
			c-0.1259766-0.0507812-0.2324829-0.0723267-0.3447876-0.0723267c-0.0126953,0-0.2890015,0.0879517-0.2890015,0.0879517
			c-0.069397,0.0234985-0.3359375,0.1484985-0.3788452,0.1776733C10.2865601,2.6129761,9.625,2.84375,9.171875,2.859375
			c-0.0022583,0-0.0440063-0.0643311-0.0992432-0.1507568c-2.2676392,1.1868286-4.1950684,2.932373-5.5973511,5.0584717
			c0.3120728,0.0116577,0.553772,0.0219727,0.6419067,0.0297852C4.1552734,7.796875,4.8643188,7.3339844,4.9901733,7.2050781z"/>
		<path fill="#57A6D9" d="M13.6972656,4.8496094c0.109314,0,0.2148438-0.0273438,0.3154297-0.0820312
			c0.4130859-0.2460938,1.0233765-0.5332031,1.4561157-0.6210938c0.0830078-0.015625,0.1679077-0.0194702,0.2470093-0.0194702
			c0,0,0.4082031,0.015564,0.5204468,0.0272827l0.2227173,0.0136719c0.0848999,0.0039062,0.4481812,0,0.5253906-0.0136719
			c0.1426392-0.0195312,0.3457031-0.1035156,0.4520874-0.2363281c0.0645142-0.078186,0.3623047-0.5274048,0.3623047-0.5274048
			c0.109436-0.1698608,0.2333984-0.3632812,0.4092407-0.5371094c0.0957031-0.093689,0.4013672-0.3261719,0.4013672-0.3261719
			c0.1455078-0.1054077,0.2333984-0.265625,0.2480469-0.4550171c0.0077515-0.1210938-0.0263062-0.2460938-0.1679077-0.4159546
			C17.7567749,1.484375,16.8770142,1.4003906,16,1.4003906c-0.1074219,0-0.5966797,0.0565796-0.5966797,0.0565796
			c-0.0625,0.0332031-0.1240234,0.0664062-0.1836548,0.1152954C15.1455078,1.6425781,15.102478,1.7050781,15.0751953,1.75
			c-0.0166016,0.0194702-0.1309204,0.2226562-0.1309204,0.2284546c-0.0350952,0.0586548-0.0858765,0.1367188-0.1737671,0.218811
			c-0.085022,0.0859375-0.5010376,0.4042969-0.5010376,0.4042969C14.0800781,2.734375,13.906311,2.859375,13.7108765,3.0625
			c-0.4256592,0.421875-0.6229858,0.7714844-0.6395874,1.1347656c-0.0117188,0.2225952,0.1035156,0.4393921,0.3057251,0.5682983
			C13.477478,4.8203125,13.5888672,4.8496094,13.6972656,4.8496094z"/>
		<path fill="#57A6D9" d="M18.4647827,7.2362671c-0.0292969,0.0606079-0.0595093,0.1270142-0.0869141,0.1934204
			c-0.0625,0.1483765-0.0390015,0.3319702,0.0713501,0.5487671c0.0878906,0.1543579,0.2870483,0.2871094,0.53125,0.3418579
			c0,0,0.0029297,0,0.0068359,0.0019531c-0.0039062,0.031189-0.0078125,0.0682983-0.0107422,0.1132202
			c-0.0370483,0.2324829,0.0722046,0.5059204,0.2529297,0.6367798c0.1356812,0.1015015,0.2919922,0.1582031,0.4385376,0.1582031
			c0.0809937,0,0.1503906-0.015686,0.2049561-0.0449829c0.241333-0.1035156,0.4169922-0.4940796,0.4014282-0.7479858
			c-0.0078125-0.2637329-0.1992188-0.5059204-0.453125-0.593689c0.0175781-0.0958252,0.0106812-0.1993408-0.0205078-0.2989502
			c-0.0625-0.1972046-0.1875-0.3847046-0.3496094-0.5272827c-0.1103516-0.0996094-0.2597656-0.156311-0.4091797-0.156311
			L18.921875,6.8770142C18.7333984,6.9121094,18.5673828,7.0351562,18.4647827,7.2362671z"/>
		<path fill="#57A6D9" d="M6.3651733,25.2792969c0-0.203125,0.0450439-0.3516235,0.2744141-0.5176392
			c0.1231079-0.0897827,0.2460938-0.1620483,0.3964844-0.2421875c0.1289062-0.0761108,0.2803345-0.2285156,0.3251953-0.3964844
			c0.0323486-0.1113281,0.0723267-0.3261108-0.0262451-0.5018921c-0.0284424-0.0449219-0.0684204-0.1055298-0.1153564-0.1660156
			C6.9824219,23.1328125,6.4979858,22.75,5.6005859,22.1776733c0,0-1.2958984-0.8573608-1.3710938-0.953064
			c-0.0565796-0.0762329-0.085022-0.1641235-0.0899048-0.2754517c-0.0039062-0.1151733,0.0137329-0.234375,0.0372314-0.390564
			C4.2177734,20.203064,4.2421875,19.8457031,4.0917969,19.375c-0.1680298-0.5234375-0.3828125-0.9785156-0.5692749-1.3516235
			c0,0-0.4493408-0.906189-0.5957031-1.2850952c-0.100647-0.2675781-0.2217407-0.4746094-0.303833-0.6054688
			c-0.0516968-0.0879517-0.3037109-0.46875-0.3037109-0.46875c-0.1708984-0.2539062-0.3261108-0.5117798-0.3475952-0.8808594
			c-0.0244141-0.2949219-0.1065063-0.5371094-0.25-0.7460938c-0.0186157-0.0273438-0.0498047-0.0430298-0.0820923-0.0430298
			c-0.00177,0-0.1889038-0.0510254-0.4698486-0.1277466C1.069519,14.5651855,1,15.2738037,1,16
			c0,4.3050537,1.833313,8.1812744,4.7479248,10.9193726c0.185791-0.3306885,0.3101807-0.5523071,0.3116455-0.5541992
			C6.1376953,26.281311,6.3729858,25.4511719,6.3651733,25.2792969z"/>
		<path fill="#57A6D9" d="M20.1710205,30.3978271c0.0064697,0.3113403,0.0139771,0.673584,0.0217896,1.0281982
			c5.2973633-1.4371948,9.5067749-5.5114746,11.1063843-10.7399292c-0.3108521-0.1326904-0.6575928-0.2784424-0.9327393-0.3933716
			C28.9105225,25.1558228,25.0509033,28.9815063,20.1710205,30.3978271z"/>
	</g>
	<path fill="#FFFFFF" d="M29.9433594,8.1658325c0.9319458,1.6551514,1.5665894,3.4937744,1.8594971,5.4472656
		c-0.0394287,0.0103149-0.0881348,0.0233154-0.124939,0.0328979c-1.4785156,0.3862305-1.5645752,0.4091797-1.7999268,0.6708984
		c-0.2773438,0.309082-0.6523438,0.9580078-0.0332031,1.8154297l0.0473022,0.0649414l0.0568848,0.0566406
		c0.1835938,0.1835938,0.4503174,0.3383789,1.2276611,0.7685547c0.2119141,0.1171875,0.5078735,0.28125,0.7442017,0.4189453
		c-0.0839844,0.2768555-0.2245483,0.5849609-0.3612671,0.8867188c-0.0742188,0.1630859-0.1494141,0.328125-0.2197266,0.4960938
		c-0.1894531-0.0756836-0.3847656-0.1552734-0.5185547-0.2094727c-0.2783203-0.1137695-0.4707031-0.1923828-0.6240234-0.2436523
		l-0.0234375-0.0615234c-0.0498047-0.1298828-0.1162109-0.2924805-0.1416016-0.3974609
		c-0.0722656-0.6811523-1.0078125-2.0200195-1.2519531-2.3134766l-0.3212891-0.3862305
		c0.0947266-0.1943359,0.1455078-0.4174805,0.1455078-0.659668c0-0.324707-0.0917969-0.6918945-0.2714844-1.0922852
		c-0.1669922-0.4467773-0.6396484-0.784668-1.2724609-0.8696289c-0.0693359-0.0078125-0.2265625-0.0126953-0.3583984-0.0151367
		c-0.0458984-0.0786133-0.1015625-0.1591797-0.1640625-0.2363281c-0.1640625-0.1733398-0.2753906-0.2587891-0.3886719-0.3193359
		L25.578125,11.953125l-0.5156345,0.59375L24.90625,12.15625C24.84375,11.9375,24.75,11.609375,24.75,11.609375
		c-0.0361328-0.2714844-0.5888672-0.7431641-0.9404297-0.9819336l-0.1279297-0.081543l-1.1025391-0.6015625l-0.2158203,0.7709961
		c-0.015625-0.0097656-0.0292969-0.019043-0.0429688-0.027832c-0.2958984-0.1728516-0.5800781-0.25-0.8779297-0.25
		c-0.3056641,0-0.6123047,0.0810547-0.9140625,0.2407227c-0.0234375-0.1508789-0.0634766-0.2929688-0.1074219-0.4233398
		c0.4267578-0.2416992,0.7880859-0.5751953,0.9501953-0.7744141c0.0693359-0.0913086,0.2236328-0.2573242,0.3925781-0.4086914
		c0.0205078-0.0195312,0.0410156-0.0380859,0.0605469-0.0556641c0.2294922,0.0834961,0.5654297,0.1831055,0.8740234,0.1831055
		c0.9472656,0,1.3212891-0.3334961,1.6455078-0.9091797c0.3017578-0.527832,0.3642578-1.1196289,0.1816406-1.7548828
		c-0.1464844-0.5166016-0.5556641-0.7836914-0.7304688-0.8979492l-0.1435547-0.090332l-0.1767578-0.4111328
		C23.6894531,5.1884766,23.9111328,5,24.1201172,5H25V4.746582l0.230957-0.262207c0,0-0.1262207-0.4746094-0.1311035-0.4882812
		c0.0595703-0.1445312,0.1556396-0.3300781,0.2415771-0.5185547C26.6361084,4.4951172,28.4199219,6.2451782,29.9433594,8.1658325z
		 M5.1816406,25.8945312c0.0517578-0.1196289,0.1708984-0.5463867,0.1835938-0.6152344
		c0-0.5585938,0.2255859-0.9926758,0.6845703-1.3251953c0.0546875-0.0400391,0.1103516-0.0776367,0.1650391-0.1132812
		c-0.2324219-0.2045898-0.6200562-0.480957-1.1659546-0.8291016c-1.4306641-0.9467773-1.5038452-1.0400391-1.6220093-1.1904297
		c-0.1757812-0.2373047-0.2723999-0.515625-0.2860718-0.8383789c-0.0058594-0.168457,0.0129395-0.34375,0.0432129-0.5390625
		c0.0322266-0.277832,0.0462646-0.4814453-0.0435791-0.7631836C2.992981,19.2211914,2.7994385,18.8110352,2.62854,18.4677734
		c-0.0488281-0.097168-0.4730225-0.9589844-0.6351318-1.3774414c-0.0693359-0.1865234-0.1530762-0.3325195-0.2253418-0.4487305
		C1.715332,16.5527344,1.5019531,16.222168,1.5019531,16.222168C1.3359375,15.9746094,1,15.5131836,1,14.8657227
		c0-0.0058594,0-0.0117188,0-0.0175781c0-0.0392456-0.4506836-0.1615601-0.9276733-0.281189C0.0303345,15.0397949,0,15.5161743,0,16
		c0,4.3162842,1.7172852,8.2265625,4.49646,11.1049805c0.1867065-0.3319702,0.3536987-0.6291504,0.4605713-0.8198242
		C5.0507812,26.1181641,5.1816406,25.8945312,5.1816406,25.8945312z M15.8496094,2.4140625l-0.0478516,0.0791016
		c-0.0644531,0.1069336-0.1699219,0.2680664-0.3203125,0.4072266c-0.0527344,0.0537109-0.2119141,0.1835938-0.3583984,0.300293
		c0.0546875-0.0136719,0.1083984-0.0900879,0.1611328-0.1008301C15.4238281,3.0734863,15.5673828,3,15.7353516,3
		c0.0058594,0,0.0126953,0,0.0185547,0c0,0,0.4599609,0.0825195,0.5439453,0.0922852l0.2636719,0.0771484
		c0.0546875,0,0.1240234-0.0004883,0.1826172-0.0019531c0.0957031-0.1386719,0.2148438-0.3203125,0.2158203-0.3217773
		c0.0712891-0.1103516,0.1572266-0.2446289,0.2675781-0.3867188c-0.4111328-0.0395508-0.8134766-0.0585938-1.2080078-0.059082
		C15.9804688,2.4018555,15.9179688,2.4072266,15.8496094,2.4140625z M30.7460938,21.5375366
		c-0.4404297-0.1870117-0.9375-0.3950806-1.1337891-0.4761353c-0.4335938-0.0112305-0.6435547-0.1348877-0.7714844-0.237915
		c-0.2080078-0.1630859-0.3164062-0.3664551-0.3486328-0.4431152c-0.0527344-0.0957031-0.1025391-0.2060547-0.1660156-0.3662109
		c-0.0761719-0.2128906-0.1552734-0.4697266-0.2255859-0.7216797c0,0-0.15625-0.5322876-0.1943359-0.6480103
		c-0.0351562-0.0981445-0.0625-0.1694336-0.0839844-0.2148438c-0.3007812-0.3730469-0.5419922-1.0796509-0.6347752-1.3726196
		c-0.094717-0.3041992-0.1464748-0.541626-0.1689358-0.7344971l-0.0263672-0.2531738
		c-0.140625,0.0463867-0.3007812,0.0229492-0.5410156,0.050293L26.3945312,16h-0.0566406
		c-0.2490234,0-0.5898438,0.0776367-0.7734375,0.003418c-0.0175781,0.0356445-0.0371094,0.2724609-0.0585938,0.3110352
		C25.3007812,16.65625,24.9472656,17,24.5371094,17h-0.0664062l-0.0664062-0.15625
		c-0.4736328-0.0639648-1.9150391-0.7016602-2.4072266-1.2861328c-0.3037109-0.3271484-0.3554688-0.7587891-0.3632812-0.9116211
		c-0.1748047-0.0151367-0.3603516-0.0244141-0.3603516-0.0249023c-0.3476562,0-0.6933594,0.0297852-0.9042969,0.0522461
		c-0.0761719,0.0151367-0.2880859,0.105957-0.4335938,0.1860352l-0.0175781,0.0097656l-0.1074219,0.1591797l-0.7929688,0.0166016
		l-0.1777344-0.065918c-0.0371094-0.0136719-0.2138672-0.1000977-0.4140625-0.2075195
		c-0.0410156-0.0219727-0.0839844-0.0454102-0.1259766-0.0678711c-0.3095703,0.3144531-0.4257812,0.418457-0.5166016,0.4726562
		c-0.3779297,0.2617188-0.4208984,0.3344727-0.4746094,0.4716797c-0.1259766,0.3608398-0.3007812,0.6132812-0.5458984,0.8007812
		c-0.1181641,0.0952148-0.2050781,0.1464844-0.7783203,0.3657227c-0.1894531,0.0761719-0.6708984,0.5668945-0.8964844,1.0068359
		c-0.1533203,0.3178711-0.1826172,0.4121094-0.1923828,0.4555664c-0.0126953,0.0551758-0.0175781,0.0952148-0.0175781,0.2700195
		c0,0.4819336-0.1660156,1.1831055-0.6181641,1.6601562c0.0146484,0.0766602,0.0390625,0.1347656,0.0507812,0.1542969
		c0.0078125,0.0107422,0.0205078,0.0302734,0.0839844,0.0874023l0.2890625,0.2719727
		c0.2529297,0.25,0.5302734,0.565918,0.6669922,1.0185547c0.0927734,0.3149414,0.2470703,0.5820312,0.4267578,0.7275391
		c0.2666016,0.2231445,0.5175781,0.3515625,0.6455078,0.3525391c0.1171875-0.0083008,0.4804688-0.0581055,0.7900391-0.0996094
		c0.2236328-0.0297852,0.4228516-0.0566406,0.4824219-0.0625c0.3037109-0.0405273,0.6503906-0.0732422,0.992178-0.0732422
		c0.3759861,0,0.6855564,0.0405273,0.9502048,0.1264648c0.2041016,0.0673828,0.3994141,0.1054688,0.6533203,0.1552734
		c0.1191406,0.0249023,0.234375,0.0507812,0.3046875,0.0737305c0.6474609,0.1704102,1.0507812,0.5429688,1.1923828,1.0844727
		c0.0917969,0.3212891,0.078125,0.6977539-0.0615234,1.2866211c0.1923828,0.2001953,0.5097656,0.5708008,0.5498047,1.1733398
		c0.046875,0.6015625,0.0244141,1.4868164-0.7148438,2.2260742c-0.3291016,0.331543-0.3642578,0.4326172-0.4160156,0.6577148
		c-0.0029297,0.0356445,0.0009766,0.0737305,0.0019531,0.0961914c0.0023193,0.0255127,0.0252686,1.0449829,0.0386963,1.6599121
		c1.0485229-0.3596802,2.0447388-0.8258057,2.9821777-1.3844604C26.5008545,28.0875244,29.2247925,25.456604,30.7460938,21.5375366z
		 M7.6796875,2.371582c-1.453125,1.0131836-3.3457031,2.8540039-4.6777344,4.3779297
		C3.3330078,6.7612305,3.640625,6.7724609,3.8671875,6.7822266C4.0136719,6.6870117,4.1953125,6.5629883,4.28125,6.496582
		c0.5322266-0.6010742,1.1513672-0.918457,1.7939453-0.918457c0.4003906,0,0.8134766,0,1.2792969,0.0473633
		C7.3583984,5.6162109,7.3613281,5.609375,7.3623047,5.605957c0.1289062-0.3432617,0.4306641-1.1469727,1.3789062-1.1469727
		c0.0585938,0,0.1201172,0.0043945,0.21875,0.015625c0.0517578,0.0058594,0.1259766,0.0136719,0.6601562,0.1411133
		c0.2050781-0.2636719,0.4628906-0.6201172,0.6845703-0.9389648C9.9042969,3.8115234,9.4609375,3.8496094,9.171875,3.859375
		C8.6435547,3.859375,8.6103516,3.859375,7.6796875,2.371582z"/>
	<path fill="#57A6D9" d="M16,0C7.1634521,0,0,7.1634521,0,16s7.1634521,16,16,16s16-7.1634521,16-16S24.8365479,0,16,0z M16,31
		C7.7290039,31,1,24.2709961,1,16S7.7290039,1,16,1s15,6.7290039,15,15S24.2709961,31,16,31z"/>
</g>
<g id="icon_names">
</g>
<g id="circle_containers">
</g>
<g id="bounding_box">
</g>
</svg>
