<?xml version="1.0" encoding="utf-8"?>
<!-- Generator: Adobe Illustrator 18.1.0, SVG Export Plug-In . SVG Version: 6.00 Build 0)  -->
<svg version="1.1" xmlns="http://www.w3.org/2000/svg" xmlns:xlink="http://www.w3.org/1999/xlink" x="0px" y="0px"
	 viewBox="0 0 32 32" enable-background="new 0 0 32 32" xml:space="preserve">
<g id="circle_background" display="none">
	<rect y="0" display="inline" fill="none" width="32" height="32"/>
	<g display="inline">
		<circle fill="#494949" cx="16" cy="16" r="16"/>
	</g>
	<g display="inline">
		<circle fill="#494949" cx="16" cy="16" r="16"/>
	</g>
</g>
<g id="icons">
	<path fill="#6DB5E3" d="M3.6330657,5.6877141c0,0,3.8952761,0.9251971,6.7818904,1.1842523s5.3523636,0.0370078,6.0555124,0
		c0.7031498-0.0370078,0.8072853,0,0.8072853,0l0.8477364,0.2960629c0,0,0.2018204,0.2220473,0.8679619,0.2960634
		c0.6661415,0.0740156,0.8780766,0,0.8780766,0s-0.7822227,0.7401576-0.8932457,0.8881888
		c-0.1110249,0.1480312-0.0025291,0.2960634-0.0025291,0.2960634s-0.1122875,0.0370073,0.5908623,0
		c0.7031498-0.0370083,0.9615726-0.2590551,1.1836205-0.2960634c0.2220459-0.0370073,1.1396389-0.0515862,1.6577492,0.0594378
		c0.5181103,0.1110229,0.4736557,0.4143753,0.4736557,0.4143753s-1.1473236,0.1183128-1.4803944,0.4143763
		s-0.1850796,1.7763786-0.2961025,2.0724411c-0.1110249,0.2960634,0.2960434,1.3025656,0.2960434,1.3025656
		s1.3019924,0.103734,1.3019924-0.4143763s-0.0151443-1.1102362,0.0588703-1.4803152
		c0.0740166-0.370079,0.1334515-1.1102362,0.3554993-1.1842518c0.2220459-0.0740166,0.5848351-0.2960634,0.7698746,0
		c0.1850395,0.2960625,0,0.5332499,0,0.5332499l0.2371864,0.2955017c0,0,0.3997974,0.2814846,0.1777496,0.6515636
		c-0.2220478,0.3700781-0.2960625,0.8881893-0.2960625,0.8881893s0.1850395,0.2960625,0.5921249,0.2960625
		c0.4070873,0,1.6283474-0.9251966,1.7763786-1.1842518s-0.1110229-0.6661425,0.2960625-0.8881893
		c0.4070873-0.2220478,1.221262-1.8874025,1.7763786-2.0724411c0.5551186-0.18504,1.5543308-0.4070873,1.7763786-1.1842527
		s0.370079-1.5543308,0.8881893-1.4803152S32,6.5759034,32,6.5759034s-0.851181,0.666142-0.8881893,1.1842523
		s-0.5181103,1.4803152-0.2960625,1.7763786c0.2220478,0.2960625,0.2960625,0.5921259,0.2960625,0.5921259
		s-0.2220478,0.2220469-0.5921268,0.5921259c-0.3700771,0.370079-1.2212601,1.3692913-1.1842518,1.7763786
		c0.0370083,0.4070864,0,1.7980909,0,1.7980909s-0.1850395,0.9099026-0.2960625,0.9099026s-0.2960625,0-0.2960625,0
		s0.2220459,0.0523024,0.2960625,0.2743502c0.0740166,0.2220469,0.6661415,1.3584356,0.2960625,1.765521
		c-0.370079,0.4070873-1.4062996,1.1048088-1.4803143,1.3268566c-0.0740166,0.2220459-1.0362206,1.3295689-0.8881893,2.2917747
		c0.1480312,0.962204,0.6291332,1.9230518,0.8881893,2.3301392c0.2590542,0.4070854,0.2220459,0.9060135,0.2960625,1.461132
		s0.0370083,0.8045826-0.2960625,0.5825348s-0.8881893-0.8189678-1.1842537-1.4851112
		c-0.2960625-0.6661415-0.5551167-1.2236576-0.8881874-1.4827118c-0.3330727-0.2590561-0.8881893-0.2972622-0.8881893-0.2972622
		l-0.5921268,0.2954636c0,0-0.2220478-0.7404575-0.8881893-0.5924263s-1.7763786,0.5919762-1.7763786,0.5919762l0.2960644,0.5920506
		l-0.2960644,0.2960262c0,0-0.7031498-0.222065-1.4803143-0.2960815c-0.7771664-0.0740166-1.5913391-0.3330803-2.6645679,0.5921173
		c-1.0732288,0.9251957-1.1842518,1.1102314-1.1842518,1.7763729s0.2960625,0.8881874,0.2960625,0.8881874
		s-1.2952757-0.4070892-1.4803152-0.5921288c-0.1850395-0.1850376-0.0740156-0.7771645-0.5921259-1.1842518
		s-0.4811029-0.9622059-0.8881893-1.1842518c-0.4070864-0.2220478-0.8881893-0.0000019-0.8881893-0.0000019l-0.5921259,0.2960644
		c0,0-0.9992132-0.5226803-1.1842527-1.0407906c-0.1850386-0.5181103-0.8881884-1.336853-0.8881884-1.336853H9.203145
		l-0.2960634,0.4486637l-2.3462014-0.2197628l-1.7540751-1.1079521V19.900116H3.2818837
		c0,0,0.1120882-0.5558071-0.2579906-0.8888779s-1.7383059-1.1849384-1.7383059-1.1849384v-0.8881893
		c0,0-0.3341355-0.9622049-0.3341355-1.1842518c0-0.2220478-0.3150993-0.8881893-0.3150993-0.8881893
		s-0.3055811-0.2590551-0.3055811-0.5921268c0-0.3330708-0.4488536-1.6653547-0.3008221-2.0724411
		s0.6267545-0.6661415,0.5897466-1.1842518s-0.0381976-0.9251976,0.2948733-1.4803152
		C1.24764,8.9814157,1.3210609,8.3152742,1.5061003,7.7601557S1.8388737,6.46488,1.8018659,6.2798405
		C1.764858,6.0948009,2.2733712,5.6877141,2.2733712,5.6877141l1.2715561,0.8821616l0.0881383,0.2508416V5.6877141z"/>
	<path fill="#FFFFFF" d="M15.5859375,24.0136719c-0.109375-0.1582031-0.2509766-0.3154297-0.4365234-0.4604492
		c-0.0751953-0.0595703-0.1171875-0.1367188-0.2099609-0.3256836c-0.1337891-0.2739258-0.3369141-0.6879883-0.8154297-0.949707
		c-0.2695312-0.1469727-0.5693359-0.2211914-0.890625-0.2211914c-0.4482422,0-0.7988281,0.1455078-0.8955078,0.1904297
		l-0.1210938,0.0605469c-0.1523438-0.1098633-0.2753906-0.2172852-0.3173828-0.2827148
		c-0.2128906-0.609375-0.9111328-1.479248-1.0488281-1.6394043L10.5507812,20H8.6650391l-0.2617188,0.4338379l-1.4140625-0.1226807
		L6,19.6435547V19H4.1396484c-0.0957031,0-0.3828125-0.4958496-0.5898438-0.6818848C3.2685547,18.0637207,3,17.5761719,2,17.2758789
		v-0.5063477l0.0869141-0.159668c-0.1318359-0.3808594-0.1933594-0.8188477-0.2119141-0.9375
		c0.0048828-0.0405273,0.0405273-0.3647461-0.3696289-1.2333984l-0.0749512-0.1958008l-0.1141357-0.1049805
		c-0.0175781-0.1923828-0.0639038-0.4179688-0.1420288-0.753418c-0.0537109-0.2275391-0.1549988-0.6713867-0.1735535-0.890625
		c0.0244141-0.0322266,0.0558014-0.0664062,0.0841217-0.1025391c0.2167969-0.2773438,0.5816116-0.7412109,0.5327835-1.4438477
		c-0.03125-0.4321289-0.0260887-0.5966797,0.1535988-0.8955078C2.0729637,9.5498047,2.2029858,9.03125,2.3182201,8.5742188
		c0.0429688-0.171875,0.084054-0.340332,0.1367884-0.4985352c0.0097656-0.0292969,0.1406598-0.4233398,0.2392926-0.8789062
		L2.953125,7.234375L3.921875,7.9375l0.4140582-1.0664062c1.3486328,0.2939453,3.9013696,0.8095703,5.9892602,0.9970703
		c0.9462891,0.0844727,1.9443369,0.1274414,2.9667978,0.1274414c1.2890625,0,2.3447266-0.0683594,2.9121103-0.1049805
		c0,0,0.6806641,0.109375,0.7880859,0.109375c0.0273438,0,0.6523438,0.1311035,0.6523438,0.1311035
		c0.0693359,0.0458984,0.1494141,0.0562744,0.2431641,0.100708l0.0390625,0.2383423
		c-0.0068359,0.1972656,0.0351562,0.3786926,0.1083984,0.5451965c0.0996094,0.2597656,0.3652344,0.6541901,1.0654297,0.6541901
		c0.0976562,0,0.2578125-0.0066452,0.5185547-0.0203171c0.2353516-0.012207,0.4375-0.0426292,0.6103516-0.0792503
		c-0.0527344,0.3334961-0.0615234,0.6937733-0.0703125,1.0497303c-0.0039062,0.1635742-0.0039062,0.3112421-0.015625,0.4137812
		c-0.0722656,0.2231445-0.1630859,0.7376518,0.3310547,1.9568901l0.2304688,0.5702429l0.6162109,0.0517225
		c0,0,0.140625,0.0112123,0.3398438,0.0112123c1.1425781,0,1.6494141-0.3955164,1.8720703-0.7832117
		c0.2646484,0.2036133,0.6269531,0.360836,1.0654297,0.360836c0.8798828,0,2.3730469-1.2143583,2.6435547-1.6865263
		c0.1474609-0.2597656,0.1787109-0.5170908,0.1835938-0.7045908c0.2431641-0.2148438,0.4658203-0.5302734,0.7783203-0.9853516
		c0.1708984-0.2485352,0.4785156-0.69629,0.6386719-0.8452158l0.1074219-0.0341797
		c0.25-0.078125,0.5820312-0.1821289,0.9160156-0.3461914c-0.1171875,0.4492188-0.1806641,0.9169922,0.0253906,1.3354492
		l-0.079113,0.0791016c-0.4697151,0.4697266-1.5546761,1.6611328-1.4736214,2.5717773
		c0.0205078,0.2299805,0.0126953,1.0385742-0.0009766,1.5932617c-0.0478516,0.2182617-0.1826172,0.5458984-0.2128906,0.6181641
		c0.0517578-0.1259766-0.1875114,0.328125-0.21875,0.359375c0,0,0.3310547,1.0053711,0.375,1.109375
		c0.1289062,0.3012695,0.1201172,0.309082,0.1552734,0.4575195c-0.1396484,0.1225586-0.3261719,0.2724609-0.4863281,0.4008789
		c-0.5429688,0.4360352-0.8613281,0.690918-1.0107422,1.0454102c-0.0234375,0.0375977-0.0546875,0.0844727-0.0908203,0.1396484
		c-0.3642578,0.5551758-1.0419922,1.5883789-0.8701172,2.7060547C25.9902344,21.09375,26.0039062,21.1723633,26.0195312,21.25
		c-0.4638672-0.222168-0.9433594-0.2675781-1.0556641-0.2753906l-0.2724609-0.019043l-0.0947266,0.0473633
		c-0.2714844-0.2104492-0.6123047-0.347168-1.0117188-0.347168c-0.1279297,0-0.2587891,0.0146484-0.3876953,0.043457
		c-0.7246094,0.1606445-1.8095703,0.5913086-1.9306641,0.6401367l-1.0097656,0.4033203l0.0644531,0.1279297
		c-0.0224609-0.0019531-0.3427734-0.0385742-0.3427734-0.0385742c-0.2578125-0.0322266-0.5214844-0.0625-0.7958984-0.0625
		c-0.8662109,0-1.6103516,0.293457-2.3427734,0.9248047C16.2207031,23.2285156,15.8203125,23.6025391,15.5859375,24.0136719z"/>
</g>
<g id="icon_names">
</g>
<g id="circle_containers">
</g>
<g id="bounding_box">
</g>
</svg>
