<?xml version="1.0" encoding="utf-8"?>
<!-- Generator: Adobe Illustrator 18.1.0, SVG Export Plug-In . SVG Version: 6.00 Build 0)  -->
<svg version="1.1" xmlns="http://www.w3.org/2000/svg" xmlns:xlink="http://www.w3.org/1999/xlink" x="0px" y="0px"
	 viewBox="0 0 32 32" enable-background="new 0 0 32 32" xml:space="preserve">
<g id="Dark_Theme_1_" display="none">
	<rect x="-96" y="-128" display="inline" fill="#333333" width="544" height="736"/>
	
		<rect x="-128" y="-160" display="inline" fill="none" stroke="#808080" stroke-width="0.25" stroke-miterlimit="10" width="612" height="792"/>
</g>
<g id="LightTheme">
</g>
<g id="Hover" display="none">
	<rect x="-96" y="-128" display="inline" fill="#C5E5F9" width="544" height="736"/>
</g>
<g id="Selected" display="none">
	<rect x="-96" y="-128" display="inline" fill="#AADBFA" width="544" height="736"/>
</g>
<g id="Icon_Name">
	<polygon fill="#6DB5E3" points="22,10 25,11 25,4 22,4 	"/>
	<rect x="4" y="16" fill="#57A6D9" width="25" height="15"/>
	<rect x="5" y="16" fill="#FFFFFF" width="23" height="15"/>
	<rect x="6" y="17" fill="#D3EAF9" width="21" height="14"/>
	<rect x="8" y="19" fill="#6DB5E3" width="7" height="8"/>
	<rect x="18" y="19" fill="#6DB5E3" width="7" height="12"/>
	<rect x="9" y="20" fill="#FFFFFF" width="5" height="6"/>
	<rect x="19" y="20" fill="#FFFFFF" width="5" height="11"/>
	<rect x="2" y="31" fill="#57A6D9" width="29" height="1"/>
	<path fill="#57A6D9" d="M16.5,1.5L2,16h29L16.5,1.5z M16.5,5l10.4545288,10H6.0454712L16.5,5z"/>
	<rect x="22" y="25" fill="#6DB5E3" width="1" height="1"/>
	<rect fill="none" width="32" height="32"/>
</g>
<g id="Icons">
</g>
</svg>
