<?xml version="1.0" standalone="no"?>
<!DOCTYPE svg PUBLIC "-//W3C//DTD SVG 1.1//EN" "http://www.w3.org/Graphics/SVG/1.1/DTD/svg11.dtd" >
<svg xmlns="http://www.w3.org/2000/svg">
<metadata>Generated by IcoMoon</metadata>
<defs>
<font id="tailcoat" horiz-adv-x="1024">
<font-face units-per-em="1024" ascent="960" descent="-64" />
<missing-glyph horiz-adv-x="1024" />
<glyph unicode="&#x20;" d="" horiz-adv-x="512" />
<glyph unicode="&#x21;" d="M511.978 838.634c-258.772 0-469.312-210.58-469.312-469.354 0-109.526 38.55-216.106 108.586-300.182 6.186-7.446 15.382-11.734 25.066-11.734h671.382c9.686 0 18.858 4.288 25.066 11.734 69.996 84.076 108.568 190.656 108.568 300.182 0 258.774-210.56 469.354-469.356 469.354zM832.042 122.602h-640.106c-54.294 70.422-84.032 157.44-84.032 246.678 0 222.806 181.27 404.074 404.074 404.074 222.848 0 404.118-181.27 404.118-404.074 0-89.258-29.76-176.256-84.054-246.678zM711.146 498.282c-8.448 0-16.106-3.158-22.102-8.214l-0.086 0.064-211.328-174.848c-16.192-11.008-26.816-29.568-26.816-50.624 0-33.792 27.414-61.226 61.226-61.226 17.002 0 32.406 6.998 43.478 18.198h0.042l0.47 0.64c2.88 2.944 5.334 6.186 7.616 9.664l174.486 210.582c4.65 5.888 7.53 13.226 7.53 21.27-0.020 19.050-15.464 34.494-34.516 34.494zM203.114 383.744h-33.812c-10.794 0-19.562-8.746-19.562-19.562 0-10.794 8.768-19.562 19.562-19.562h33.814c10.794 0 19.562 8.768 19.562 19.562 0 10.816-8.768 19.562-19.564 19.562zM274.88 620.074c-7.638 7.616-20.010 7.638-27.648 0s-7.638-20.032 0-27.69l25.45-25.45c3.818-3.818 8.854-5.738 13.846-5.738s10.006 1.92 13.824 5.738c7.638 7.638 7.638 20.032 0 27.67l-25.472 25.47zM516.224 661.974c10.816 0 19.584 8.768 19.584 19.584v32.362c0 10.816-8.768 19.584-19.584 19.584s-19.562-8.768-19.562-19.584v-32.362c0-10.816 8.746-19.584 19.562-19.584zM754.326 619.626l-25.024-25.024c-7.616-7.638-7.616-20.010 0.042-27.67 3.818-3.818 8.81-5.738 13.802-5.738 5.014 0 10.026 1.92 13.846 5.738l25.024 25.024c7.638 7.658 7.638 20.054 0 27.67-7.638 7.66-20.032 7.68-27.69 0zM853.994 383.722h-35.22c-10.794 0-19.562-8.768-19.562-19.562 0-10.816 8.768-19.562 19.562-19.562h35.222c10.794 0 19.562 8.746 19.562 19.562 0 10.794-8.748 19.562-19.564 19.562z" />
<glyph unicode="&#x22;" d="M462.976 723.968c-7.574 7.574-18.262 11.050-28.864 9.302-10.538-1.77-19.626-8.47-24.384-18.048l-242.794-490.944-45.248-45.226-64.15-42.56c-8.32-5.504-13.718-14.464-14.72-24.384-0.982-9.878 2.538-19.712 9.558-26.774l103.85-103.85c6.272-6.23 14.762-9.706 23.488-9.706 1.11 0 2.218 0.022 3.306 0.128 9.92 1.024 18.838 6.4 24.384 14.678l43.178 65.13 41.046 41.046c1.194-1.77 2.582-3.434 4.118-4.992l106.816-106.816c6.23-6.23 14.464-9.664 23.296-9.664 8.81 0 17.066 3.414 23.232 9.6l15.382 15.382c12.822 12.864 12.778 33.75-0.042 46.528l-91.754 91.754 413.29 204.416c9.578 4.758 16.298 13.802 18.048 24.362s-1.728 21.312-9.302 28.864l-331.734 331.774zM178.794 32.47l-74.624 74.624 60.822 34.282 48.064-48.086-34.262-60.82zM981.078 559.616c-17.344 98.112-59.328 180.758-121.706 243.114-62.272 62.358-144.896 104.278-243.030 121.664-11.584 2.048-26.454-7.126-33.258-20.266-6.89-13.162-3.136-25.536 8.384-27.562l-0.108-0.086c92.074-16.234 169.258-55.658 227.648-114.048 58.454-58.474 97.942-135.658 114.112-227.712 2.006-11.498 14.378-15.296 27.734-8.362 3.584 1.942 6.89 4.416 9.686 7.21 7.594 7.574 11.946 17.706 10.538 26.048zM746.858 690.71c-36.8 36.8-82.432 64.704-135.466 81.514-10.73 3.392-25.942-4.374-33.878-17.302-8.042-12.8-5.91-26.090 4.822-29.482 48.47-15.446 90.474-41.066 124.374-74.922 34.006-34.070 59.67-76.502 75.434-125.44 3.414-10.666 16.726-12.822 29.632-4.714 2.666 1.664 5.12 3.606 7.274 5.782 8.362 8.406 12.714 19.734 9.984 28.288-17.28 53.032-45.162 99.24-82.176 136.276z" />
<glyph unicode="&#x23;" d="M949.312 98.454h-78.592l-47.722 143.936-212.224 640.426c-4.394 13.162-16.598 21.952-30.442 21.952h-126.038c-13.824 0-26.070-8.81-30.422-21.952l-259.99-784.364h-89.174c-17.684 0.002-32.042-14.398-32.042-32.062v-43.136c0-17.706 14.358-32.022 32.042-32.022h874.582c17.706 0 32.022 14.336 32.022 32.022v43.136c0.022 17.664-14.314 32.064-32 32.064zM477.142 839.872h80.362l0.362-1.152c-0.576-23.232-18.41-41.792-40.47-41.792-22.144 0-40.064 18.774-40.47 42.154l0.216 0.79zM608.406 686.166l51.69-155.904-311.146-77.27 60.95 183.958 198.506 49.216zM708.928 382.848l51.712-155.99-455.894-113.174h-68.288l54.848 165.482 417.622 103.682z" />
<glyph unicode="&#x24;" d="M591.318 169.578h-158.634c-15.552 0-28.16-12.586-28.16-28.138v-108.842c0-15.53 12.608-28.138 28.16-28.138h26.816l13.952-16.064c5.332-6.188 13.118-9.73 21.268-9.73h34.56c8.15 0 15.914 3.542 21.248 9.728l13.952 16.064h26.838c15.53 0 28.118 12.608 28.118 28.138l-0.002 108.844c0 15.552-12.586 28.138-28.116 28.138zM512 917.334c-158.038 0-286.614-126.72-286.614-282.538 0-79.51 33.258-166.102 89.152-232.448 0.576-0.854 1.216-1.706 1.856-2.518 16.982-20.97 65.514-91.050 65.514-136.49 0-19.434 15.744-35.158 35.178-35.158h189.738c0.32 0 0.64 0 0.938 0 4.63 0 9.302 0.896 13.782 2.816 12.97 5.504 21.376 18.24 21.376 32.342 0 40.384 40.192 105.174 65.514 136.49 1.514 1.878 2.794 3.926 3.862 6.080 54.144 65.834 86.23 150.784 86.23 228.886 0.066 155.818-128.488 282.538-286.526 282.538z" />
<glyph unicode="&#x25;" d="M818.474 560.32c-0.618-8.79-1.558-17.792-2.922-27.35-22.762-157.782-147.862-272.298-297.408-272.298h-48.704l-8.918-9.322c33.578-62.314 96.022-103.040 166.23-103.040h48.406l95.808-100.010c6.208-6.442 14.592-9.878 23.168-9.878 4.010 0 8.042 0.768 11.946 2.304 12.138 4.864 20.074 16.618 20.074 29.718v81.77c89.152 18.474 155.18 102.272 155.18 203.456 0 103.508-70.764 189.268-162.86 204.65zM769.878 539.542c2.218 15.53 3.306 29.44 3.306 42.666 0 151.83-114.41 275.392-255.062 275.392h-220.374c-140.67 0-255.082-123.562-255.082-275.392 0-136.32 90.090-248.79 210.816-271.274v-116.096c0-15.232 9.28-28.95 23.424-34.646 4.522-1.792 9.216-2.688 13.888-2.688 10.026 0 19.798 4.032 26.986 11.542l131.946 137.77h68.416c126.38-0.022 232.258 97.878 251.736 232.726z" />
<glyph unicode="&#x26;" d="M160.426 561.322h124.332v-231.338h-124.332zM328.554 561.322h124.332v-231.338h-124.332zM496.682 561.322h124.332v-231.338h-124.332zM950.058 556.33h-40.918v108.246c0 19.862-16.256 36.16-36.118 36.16h-794.26c-19.818 0-36.096-16.298-36.096-36.16v-433.174c0-19.882 16.278-36.138 36.096-36.138h794.24c19.862 0 36.118 16.256 36.118 36.138v108.266h40.918c17.238 0 31.274 14.080 31.274 31.274v154.048c0.022 17.196-14.016 31.34-31.254 31.34zM836.906 267.52h-722.048v360.96h722.048v-360.96z" />
<glyph unicode="&#x27;" d="M1000.64 97.194c-7.296 32.406-109.27 185.472-140.842 232.32-2.454 3.626-6.528 5.802-10.902 5.802l-673.792 0.002c-4.394 0-8.448-2.176-10.902-5.802-31.574-46.848-133.546-199.936-140.842-232.32-4.374-13.206-0.854-22.336 2.922-27.69 8.746-12.374 26.73-17.642 60.074-17.642h851.286c33.344 0 51.328 5.29 60.074 17.642 3.778 5.332 7.298 14.44 2.924 27.688zM976.256 84.672c-0.49-0.64-5.59-6.528-38.614-6.528h-851.284c-33.024 0-38.122 5.866-38.614 6.528-0.192 0.32-0.278 1.834 0.726 4.714 0.256 0.726 0.49 1.856 0.64 2.602 2.026 11.904 38.848 72.896 83.776 142.358h758.272c44.886-69.44 81.728-130.432 83.754-142.294 0.128-0.896 0.32-1.792 0.64-2.666 0.982-2.88 0.896-4.416 0.704-4.714zM562.474 201.302h-95.466c-5.632 0-10.218-3.926-10.218-8.726v-57.194c0-4.8 4.586-8.704 10.218-8.704h95.466c5.654 0 10.198 3.904 10.198 8.704v57.194c0 4.8-4.566 8.726-10.198 8.726zM804.31 364.822h48.768v48.746h-0.022v381.846c0 26.922-21.802 48.746-48.746 48.746h-585.366c-26.922 0-48.768-21.802-48.768-48.746v-381.846c0-0.042 0-0.064 0-0.106v-48.64h634.134zM205.226 812.224h610.39v-398.678h-610.39v398.678z" />
<glyph unicode="&#x28;" d="M512 917.354c-258.794 0-469.334-210.518-469.334-469.334 0-258.794 210.54-469.354 469.334-469.354s469.334 210.582 469.334 469.376c0 258.796-210.54 469.312-469.334 469.312zM512 45.418c-117.824 0-224 50.902-297.686 131.904 3.008 8.79 23.168 66.986 36.544 93.718 14.486 28.992 19.306 32.192 51.52 61.206 32.192 28.95-64.406 41.834-86.934 64.384-22.55 22.55-33.814 22.55-59.542 42.966-19.264 15.274-30.442-52.394-34.838-87.446-7.552 30.742-11.648 62.87-11.648 95.914 0 85.44 26.838 164.63 72.406 229.91-12.842-39.766-24.32-97.728 25.578-80.128 54.72 19.35 59.562 41.878 59.562 41.878l32.192 56.342c0 0 4.822-78.87 11.286-90.134 6.442-11.286 32.192-43.52 41.834 1.578 17.75 82.858 20.758 106.262 51.328 106.262s93.546 24.17 100.010-49.898c6.422-74.070-6.464-30.592-46.698-49.92-40.234-19.306-49.898-86.912-12.886-94.976 37.034-8.042 120.746-41.834 120.746-41.834l41.834-46.698 12.906-49.898c0 0 8.022-56.342 8.022-61.162s0-51.542 0-51.542 1.642-101.398 38.634-77.27c37.034 24.17 138.454 181.93 117.546 241.494-20.928 59.562-22.55 66.026 16.064 86.934 38.634 20.928 66.006 46.678 64.406 75.67-1.13 20.31 0.918 32.726 1.174 46.058 31.318-57.28 49.174-122.922 49.174-192.64 0.048-222.064-180.54-402.672-402.534-402.672z" />
<glyph unicode="&#x29;" d="M948.074 146.346h-872.128c-18.388 0-33.28-14.89-33.28-33.28 0-18.368 14.89-33.322 33.28-33.322h872.128c18.368 0 33.258 14.934 33.258 33.322s-14.89 33.28-33.258 33.28zM190.742 198.998h131.584c11.030 0 19.99 8.96 19.99 20.010l-0.002 439.488c0 11.050-8.938 19.968-19.99 19.968h-131.582c-11.050 0-19.99-8.918-19.99-19.968v-439.488c0.022-11.050 8.938-20.010 19.99-20.010zM443.818 566.528c-11.030 0-19.99-8.918-19.99-19.99v-327.53c0-11.050 8.96-20.010 19.99-20.010h131.584c11.030 0 19.968 8.96 19.968 20.010v327.53c0 11.050-8.938 19.99-19.968 19.99h-131.584zM696.896 816.256c-11.030 0-20.010-8.96-20.010-20.010v-577.238c0-11.050 8.982-20.010 20.010-20.010h131.584c11.008 0 19.946 8.96 19.946 20.010v577.238c0 11.050-8.938 20.010-19.946 20.010h-131.584z" />
<glyph unicode="&#x2a;" d="M958.698 804.352c-3.668 13.098-15.552 22.742-29.824 22.742h-833.77c-17.194 0-31.104-13.974-31.104-31.126v-695.936c0-17.194 13.91-31.126 31.104-31.126h833.75c17.238 0 31.126 13.93 31.126 31.126l-0.002 623.402v72.534c0.022 2.922-0.512 5.718-1.28 8.384zM634.838 764.864h91.158l-182.784-156.95h-91.158l182.784 156.95zM448.15 764.864h91.178l-182.826-156.95h-91.114l182.762 156.95zM126.25 764.864h39.658l-39.658-34.090v34.090zM126.25 648.746l135.21 116.118h91.136l-182.762-156.95h-43.584v40.832zM897.77 131.114h-771.52v439.466h771.54l0.002-439.466zM897.77 607.914h-72.32l72.32 62.122v-62.122zM897.77 752.042l-167.85-144.128h-91.158l182.762 156.95h76.246v-12.822zM545.472 490.944c-6.592 11.542-18.858 18.752-32.192 18.752-13.312 0-25.622-7.232-32.214-18.752l-135.104-237.974c-6.464-11.498-6.4-25.514 0.234-36.906 6.634-11.434 18.838-18.41 32.022-18.41h270.080c13.206 0 25.366 6.998 32 18.41 6.656 11.414 6.742 25.43 0.256 36.906l-135.082 237.974zM530.154 243.178c-4.096-3.648-8.874-5.462-14.378-5.462-5.546 0-10.41 1.814-14.528 5.398-4.16 3.584-6.23 8.64-6.23 15.104 0 5.674 1.962 10.474 5.974 14.442 3.926 3.946 8.79 5.93 14.57 5.93 5.76 0 10.646-1.984 14.678-5.93 4.032-3.968 6.058-8.79 6.058-14.442-0.020-6.4-2.048-11.392-6.144-15.040zM535.382 394.838l-5.91-67.434c-0.598-8.022-1.984-14.186-4.096-18.454-2.134-4.288-5.568-6.422-10.41-6.422-4.928 0-8.342 2.070-10.24 6.186-1.92 4.182-3.286 10.496-4.074 18.966l-4.416 65.514c-0.79 12.758-1.216 21.93-1.216 27.478 0 7.574 1.962 13.482 5.974 17.728 3.926 4.246 9.174 6.358 15.638 6.358 7.83 0 13.078-2.688 15.722-8.128 2.666-5.462 3.946-13.27 3.946-23.446-0.022-6.058-0.322-12.16-0.918-18.346z" />
<glyph unicode="&#x2b;" d="M908.522 82.048l-227.52 303.018h-16.448l-16.512-16.49-24.278 33.536c53.952 54.656 87.318 129.664 87.318 212.416 0.022 166.934-135.828 302.806-302.804 302.806s-302.828-135.872-302.828-302.806c0-166.998 135.83-302.826 302.806-302.826 49.45 0 96.106 12.182 137.386 33.302l30.314-34.538-18.218-18.282v-8.662c0 0 224-281.302 237.91-295.19 13.866-13.91 45.12-8.682 45.12-8.682s45.184 26.070 67.734 48.618c22.57 22.548 0.020 53.78 0.020 53.78zM212.416 614.528c0 107.946 87.872 195.84 195.862 195.84 108.010 0 195.862-87.894 195.862-195.84 0-108.032-87.85-195.862-195.862-195.862-107.99 0-195.862 87.83-195.862 195.862z" />
<glyph unicode="&#x2c;" d="M939.626 429.654c-17.472 17.492-471.488 471.488-471.488 471.488l-196.714-5.76-61.654-61.654c18.090-21.568 35.114-43.37 48.128-62.826 10.986 5.824 23.488 9.152 36.778 9.152 43.456 0 78.678-35.242 78.678-78.698 0-43.414-35.222-78.656-78.678-78.656-43.434 0-78.656 35.222-78.656 78.656 0 9.494 1.77 18.538 4.842 26.944-19.35 14.528-41.386 33.942-62.656 53.866l-47.722-47.722v-202.752l470.358-470.358c0 0 14.080-19.306 33.366 0 19.306 19.286 325.44 325.462 325.44 325.462s17.494 25.342-0.022 42.858zM267.776 716.118c0.534 0 1.494 0.022 1.878 0.448 11.136 11.136-57.706 102.25-150.55 199.402-2.56 0.47-7.85 1.366-13.888 1.366-7.872 0-18.454-1.494-24.086-8.62-4.8-6.058-5.802-15.68-2.986-28.65 59.626-63.914 162.838-163.946 189.632-163.946zM146.838 436.16l176.746-443.946c0 0 4.566-20.010 26.39-11.37 10.368 4.118 93.782 37.334 178.646 71.146l-0.064-0.022-381.718 384.192z" />
<glyph unicode="&#x2d;" d="M977.408 332.458l-136.854 188.394c-3.862 5.312-10.006 8.448-16.598 8.448-6.55 0-12.694-3.158-16.534-8.448l-136.874-188.374c-4.522-6.23-5.206-14.464-1.686-21.334 3.498-6.87 10.582-11.2 18.24-11.2h75.818c-16.512-27.968-37.546-53.418-63.126-75.008-59.562-50.218-135.104-74.218-212.758-67.626-75.498 6.422-144.534 41.322-194.474 98.24-17.386 19.818-47.594 21.782-67.414 4.374-19.84-17.386-21.824-47.574-4.438-67.414 66.304-75.562 158.016-121.856 258.198-130.39 11.242-0.96 22.378-1.43 33.514-1.43 91.114 0 178.454 31.766 248.938 91.178 48.234 40.662 84.95 91.35 108.33 148.054h91.114c7.702 0 14.742 4.33 18.24 11.2 3.57 6.894 2.908 15.108-1.636 21.336zM216.576 375.082l136.874 188.416c4.502 6.23 5.184 14.464 1.664 21.334-3.498 6.87-10.56 11.178-18.218 11.178h-76.566c55.552 94.87 161.494 152.32 276.246 142.614 76.118-6.486 145.6-41.834 195.648-99.498 17.28-19.926 47.446-22.058 67.37-4.8 19.926 17.302 22.080 47.488 4.758 67.392-66.41 76.566-158.656 123.498-259.648 132.118-171.050 14.612-327.488-83.33-390.87-237.826h-90.708c-7.68 0-14.742-4.31-18.24-11.178-3.478-6.848-2.838-15.104 1.706-21.334l136.874-188.416c3.84-5.29 10.006-8.448 16.576-8.448 6.528 0 12.672 3.158 16.534 8.448z" />
<glyph unicode="&#x2e;" d="M958.698 804.352c-3.69 13.078-15.552 22.742-29.824 22.742h-833.77c-17.174 0-31.104-13.974-31.104-31.126v-695.978c0-17.13 13.93-31.104 31.104-31.104h833.75c17.216 0 31.126 13.974 31.126 31.104l-0.002 623.424v72.554c0.022 2.902-0.512 5.718-1.28 8.384zM126.23 648.726l135.274 116.118h91.094l-182.784-156.93h-43.584v40.812zM126.23 764.864h39.702l-39.702-34.090v34.090zM539.328 764.864l-182.826-156.95h-91.114l182.762 156.95h91.178zM725.994 764.864l-182.762-156.95h-91.178l182.762 156.95h91.178zM897.75 607.914h-72.278l72.278 62.122v-62.122zM729.898 607.914h-91.2l182.826 156.95h76.202l0.002-12.864-167.83-144.086zM897.75 131.158h-771.52v439.424h771.522l-0.002-439.424zM738.496 254.55h-445.12c-6.912 0-12.48-5.568-12.48-12.438 0-6.912 5.568-12.458 12.48-12.458h445.098c6.912 0 12.48 5.546 12.48 12.458 0.022 6.848-5.546 12.438-12.458 12.438zM738.496 357.504h-445.12c-6.912 0-12.48-5.546-12.48-12.502 0-6.848 5.568-12.394 12.48-12.394h445.098c6.912 0 12.48 5.546 12.48 12.394 0.022 6.976-5.546 12.502-12.458 12.502zM738.496 460.458h-445.12c-6.912 0-12.48-5.61-12.48-12.48 0-6.848 5.568-12.438 12.48-12.438h445.098c6.912 0 12.48 5.61 12.48 12.438 0.022 6.87-5.546 12.48-12.458 12.48z" />
<glyph unicode="&#x2f;" d="M805.226 840.662c-9.728 6.294-21.91 7.168-32.448 2.432l-400.106-180.458-74.666 38.378 21.098 12.694 315.754 149.438c16.982 8 24.256 28.33 16.192 45.398-8.042 16.918-28.374 24.214-45.334 16.17l-383.062-181.312c-11.904-5.632-19.498-17.622-19.498-30.762l0.002-643.306c0-13.206 7.616-25.258 19.562-30.826l143.254-67.306c4.65-2.154 9.578-3.222 14.528-3.222 4.672 0 9.344 0.982 13.696 2.858l406.272 178.39c12.352 5.418 20.352 17.642 20.352 31.19v631.614c0 11.584-5.846 22.358-15.596 28.63z" />
<glyph unicode="&#x30;" d="M987.606 318.57l-153.344 211.072c-4.31 5.93-11.222 9.45-18.56 9.45s-14.25-3.52-18.56-9.45l-153.344-211.050c-5.098-7.018-5.782-16.234-1.878-23.914 3.904-7.702 11.798-12.544 20.438-12.544h84.95c-18.538-31.338-42.090-59.862-70.72-84.010-66.752-56.278-151.424-83.178-238.422-75.798-86.976 7.424-165.866 48.234-222.144 114.986s-83.158 151.424-75.754 238.378c7.402 87.018 48.214 165.91 114.966 222.186 66.752 56.278 151.382 83.158 238.4 75.776 85.27-7.274 163.114-46.87 219.178-111.488 19.392-22.336 53.184-24.726 75.542-5.376 22.314 19.392 24.704 53.206 5.334 75.52-74.454 85.782-177.77 138.39-290.986 148.054-115.438 9.75-227.844-25.962-316.484-100.628-88.598-74.73-142.826-179.478-152.64-294.976-9.812-115.456 25.878-227.82 100.608-316.438 74.71-88.618 179.456-142.826 294.954-152.662 12.544-1.066 25.066-1.578 37.504-1.578 102.102 0 199.978 35.606 278.934 102.186 54.058 45.568 95.21 102.336 121.408 165.888h102.058c8.64 0 16.512 4.842 20.438 12.544 3.926 7.638 3.222 16.876-1.876 23.872z" />
<glyph unicode="&#x31;" d="M413.952 689.024c-73.11 0-132.566-59.434-132.566-132.544 0-73.024 59.456-132.522 132.566-132.522 73.066 0 132.522 59.498 132.522 132.522 0 73.11-59.434 132.544-132.522 132.544zM512 917.334c-259.2 0-469.334-210.134-469.334-469.334 0-259.178 210.156-469.334 469.334-469.334s469.334 210.134 469.334 469.312c0 259.2-210.134 469.356-469.334 469.356zM752.384 159.808c-15.232-15.254-45.802-32.854-45.802-32.854s-21.12-3.52-30.55 5.824c-9.344 9.386-160.96 199.766-160.96 199.766v5.866l12.352 12.33-20.502 23.402c-27.946-14.336-59.498-22.57-92.95-22.57-113.002 0-204.928 91.99-204.928 204.886 0 112.982 91.926 204.906 204.928 204.906 112.918 0 204.886-91.926 204.886-204.906 0-55.936-22.592-106.666-59.072-143.68l16.426-22.698 11.178 11.2h11.136l153.898-205.056c-0.040 0.022 15.278-21.162-0.040-36.416z" />
<glyph unicode="&#x32;" d="M741.504 906.666h-458.986c-19.926 0.022-36.118-16.15-36.118-36.096v-845.12c-0.022-14.57 8.768-27.754 22.272-33.322 13.462-5.61 29.014-2.538 39.36 7.766l203.968 203.648 203.99-203.67c10.346-10.304 25.856-13.376 39.36-7.786 4.438 1.878 8.406 4.544 11.69 7.83 6.634 6.656 10.582 15.766 10.56 25.558v845.118c0.022 9.558-3.818 18.73-10.582 25.514-6.762 6.742-15.936 10.582-25.514 10.56z" />
<glyph unicode="&#x33;" d="M836.822 11.456c45.824 16.576 91.136 42.454 135.552 78.144 5.376 4.33 8.662 10.816 8.938 17.75 0.256 6.954-2.496 13.632-7.552 18.41l-243.734 229.59c-4.886 4.566-11.414 6.89-18.176 6.442-6.656-0.47-12.8-3.712-17.002-8.982-12.586-15.808-56.384-60.864-91.158-60.864-9.514 0-17.494 3.434-25.238 10.816-61.354 58.56-190.848 190.912-191.638 191.638-1.686 1.962-40.406 48.064 31.104 140.65 6.848 8.896 6.614 21.354-0.534 29.974l-192.766 232.406c-7.53 9.046-20.502 11.37-30.656 5.334-5.12-3.072-125.59-75.67-147.798-208.49-14.976-89.622 18.41-183.296 99.242-278.336 0.426-0.512 0.854-0.96 1.302-1.43l309.546-309.546c4.288-4.694 105.706-115.072 262.314-115.072 13.568 0 27.136 1.088 40.682 2.774l77.572 18.792z" />
<glyph unicode="&#x34;" d="M972.95 388.288c-18.86 18.838-508.224 508.202-508.224 508.202l-212.032-6.166-66.476-66.452c19.52-23.254 37.846-46.762 51.882-67.734 11.84 6.272 25.302 9.878 39.638 9.878 46.826 0 84.822-37.974 84.822-84.842 0-46.806-37.974-84.8-84.822-84.8-46.806 0-84.778 37.974-84.778 84.8 0 10.24 1.878 19.968 5.206 29.056-20.864 15.638-44.608 36.566-67.542 58.070l-51.434-51.434v-218.582l507.008-507.008c0 0 15.146-20.8 35.968 0 20.8 20.822 350.806 350.806 350.806 350.806s18.836 27.326-0.022 46.206zM248.768 697.088c0.576 0 1.6 0.022 2.006 0.47 12.010 12.010-62.208 110.23-162.262 214.954-2.752 0.512-8.49 1.45-14.976 1.45-8.47 0-19.904-1.6-25.984-9.28-5.162-6.548-6.23-16.896-3.2-30.89 64.256-68.886 175.51-176.704 204.416-176.704z" />
<glyph unicode="&#x35;" d="M512 917.334c-258.752 0-469.334-210.56-469.334-469.356 0-258.752 210.582-469.334 469.334-469.334s469.334 210.582 469.334 469.334c0 258.796-210.582 469.356-469.334 469.356zM891.114 619.904l-198.294-74.006c-19.008 34.966-47.872 63.872-82.88 82.88l74.026 198.314c91.586-41.706 165.464-115.604 207.148-207.188zM512 295.21c-84.224 0-152.768 68.544-152.768 152.768 0 84.246 68.544 152.746 152.768 152.746 84.202 0 152.768-68.502 152.768-152.746 0-84.202-68.566-152.768-152.768-152.768zM340.054 827.114l74.026-198.314c-34.986-19.030-63.894-47.894-82.922-82.858l-198.272 74.006c41.684 91.582 115.604 165.438 207.168 207.166zM132.886 276.032l198.272 74.026c19.030-34.986 47.914-63.894 82.902-82.902l-74.006-198.294c-91.584 41.708-165.484 115.586-207.168 207.17zM683.946 68.886l-74.006 198.294c34.986 19.008 63.872 47.894 82.88 82.902l198.294-74.026c-41.728-91.608-115.584-165.486-207.168-207.17z" />
<glyph unicode="&#x36;" d="M840.64 682.71l55.318 22.228 49.94 67.2-66.602 66.624-67.306-50.048-22.080-55.21-166.016-166.080 54.228-47.232zM938.134 230.742l-397.056 345.834c10.454 50.88 29.27 187.35-46.698 263.232-49.942 49.984-116.418 77.526-187.074 77.526-17.344 0-34.688-1.728-51.606-5.078-4.714-0.938-8.47-4.352-9.898-8.938-1.386-4.586-0.17-9.578 3.222-12.906l113.28-113.322 22.678-109.568-92.522-92.48-109.546 22.634-113.302 113.258c-3.414 3.414-8.384 4.65-12.97 3.242-4.544-1.366-7.978-5.162-8.896-9.878-17.218-86.912 9.854-176.084 72.446-238.676 37.226-37.206 95.232-56.874 167.872-56.874v0c30.422 0 63.274 3.456 95.36 10.154l345.238-396.416c28.5-28.502 65.578-43.82 105.024-43.82s76.566 15.338 104.448 43.264c57.6 57.558 57.62 151.254 0 208.812zM859.734 100.288c-14.358-14.442-37.696-14.442-52.096 0h-0.022c-14.378 14.358-14.378 37.718 0 52.118 14.422 14.358 37.76 14.358 52.118-0.042h0.022c14.398-14.422 14.398-37.718-0.022-52.076zM364.906 347.136c-13.12 13.142-34.474 13.142-47.616 0l-220.82-220.842c-13.184-13.142-13.184-34.474 0-47.616l86.144-86.186c13.162-13.162 34.454-13.162 47.658 0l214.272 214.228c13.162 13.226 13.162 34.518 0 47.638l-79.638 92.778z" />
<glyph unicode="&#x37;" d="M916.246 852.246c29.14-29.142 43.754-64.15 43.754-105.004v-598.506c0-40.854-14.614-75.84-43.754-105.002-29.164-29.12-64.15-43.734-105.004-43.734h-598.484c-40.854 0-75.84 14.614-105.002 43.754-29.142 29.164-43.756 64.15-43.756 105.004v598.484c0 40.854 14.614 75.84 43.754 105.002 29.164 29.142 64.15 43.756 105.004 43.756h598.506c40.832 0 75.84-14.614 104.982-43.754zM804.246 168c0 103.85-25.642 199.51-76.992 286.998s-120.746 156.886-208.256 208.256c-87.488 51.35-183.146 76.992-286.998 76.992v-110.25c127.146 0 235.99-45.226 326.378-135.616s135.616-199.232 135.616-326.378l110.252-0.002zM610.006 168c0 103.85-37.014 192.768-111.126 266.88s-163.030 111.126-266.88 111.126v-110.25c73.514 0 136.49-25.984 188.992-77.866 52.522-51.904 78.742-115.222 78.742-189.866l110.272-0.002zM384.256 244.992c0 20.992-7.274 38.762-21.866 53.376s-32.384 21.866-53.376 21.866-39.104-7.274-54.25-21.866c-15.126-14.614-22.742-32.384-22.742-53.376s7.296-39.104 21.866-54.25c14.614-15.126 32.64-22.742 54.25-22.742s39.638 7.594 54.25 22.742c14.594 15.168 21.868 33.258 21.868 54.25z" />
<glyph unicode="&#x38;" d="M999.488 599.146c2.112-2.154 3.178-6.74 3.178-13.844v-400.192c0-11.35-6.016-23.040-18.090-35.114-12.054-12.054-24.47-18.090-37.27-18.090l-872.746-0.002c-11.35 0-23.082 6.016-35.136 18.090-12.074 12.076-18.090 23.766-18.090 35.116v400.192c0 7.104 0.726 11.712 2.134 13.846 1.408 2.154 7.808 1.066 19.158-3.2 11.37-5.654 83.37-42.922 216.064-111.722 132.694-68.842 200.448-104.682 203.242-107.52 14.208-7.082 30.89-10.646 50.048-10.646s35.114 3.562 47.894 10.646c5.674 2.838 74.518 38.678 206.486 107.52 132.010 68.822 203.648 106.070 215.018 111.722 9.918 4.222 15.934 5.332 18.11 3.198zM23.466 740.694c-4.288 14.186 4.928 21.994 27.67 23.402h921.706c21.312-1.408 30.166-9.216 26.624-23.424-3.562-14.166-13.824-25.558-30.87-34.070-7.104-4.266-43.286-24.106-108.566-59.606-65.28-35.456-130.922-70.954-196.886-106.41-66.026-35.478-100.438-53.248-103.274-53.248-12.778-8.49-28.714-12.758-47.894-12.758s-35.84 4.266-50.048 12.758c-232.702 124.928-368.936 198.016-408.658 219.286-15.616 8.512-25.536 19.904-29.804 34.070z" />
<glyph unicode="&#x39;" d="M512 949.334c-194.41 0-352-214.4-352-352 21.334-139.754 298.666-650.666 352-650.666s330.666 510.91 352 650.666c0 137.6-157.61 352-352 352zM429.546 708.416c0 45.034 36.928 81.494 82.538 81.494 45.59 0 82.538-36.458 82.538-81.494 0-9.238-1.578-18.048-4.438-26.346 4.928-2.176 8.384-7.082 8.384-12.758 0-7.702-6.336-13.952-14.122-13.952-0.106 0-0.17 0-0.256 0-2.944-36.8-34.090-73.642-72.106-73.642-38.038 0-69.184 36.864-72.106 73.642-0.086 0-0.15 0-0.256 0-7.808 0-14.166 6.25-14.166 13.952 0 5.674 3.478 10.582 8.406 12.758-2.858 8.298-4.416 17.108-4.416 26.346zM673.77 465.814c0-3.968-3.030-7.146-6.784-7.146l-309.824-0.002c-3.754 0-6.784 3.178-6.784 7.146v25.578c0 1.942 0.746 3.798 2.070 5.142 30.464 31.19 67.754 52.95 107.882 62.934 0.47 0.15 1.024 0.214 1.536 0.214h2.582c1.13 0 2.218-0.298 3.2-0.874 11.84-6.656 28.010-10.496 44.438-10.496s32.598 3.84 44.416 10.496c0.982 0.576 2.090 0.874 3.178 0.874h3.562c1.152 0 2.262-0.32 3.264-0.896 39.082-10.24 75.434-31.766 105.194-62.25 1.322-1.322 2.070-3.2 2.070-5.142v-25.578z" />
<glyph unicode="&#x3a;" d="M512 949.334c-194.41 0-352-214.4-352-352 21.334-139.754 298.666-650.666 352-650.666s330.666 510.91 352 650.666c0 137.6-157.61 352-352 352zM428.138 459.99c-3.114-3.222-7.36-4.95-11.648-4.95-2.048 0-4.054 0.406-6.016 1.194-6.102 2.454-10.112 8.362-10.112 14.934v50.154c-52.138 9.706-91.050 58.218-91.050 117.142 0 65.536 49.408 118.89 110.144 118.89h95.19c60.714 0 110.122-53.354 110.122-118.89 0-5.738-0.47-11.754-1.45-18.432-8.406-58.218-54.102-100.502-108.672-100.502h-29.59l-56.918-59.54zM647.638 452.758v-35.328c0-5.654-3.434-10.73-8.682-12.842-1.664-0.662-3.414-1.002-5.142-1.002-3.734 0-7.318 1.494-10.006 4.288l-41.366 43.2h-20.886c-30.314 0-57.302 17.536-71.786 44.458l3.862 4.010h21.056c64.534 0 118.57 49.45 128.426 117.59 0.576 4.138 1.002 8.042 1.258 11.84 39.744-6.634 70.336-43.67 70.336-88.342-0.042-43.734-28.564-79.916-67.070-87.872z" />
<glyph unicode="&#x3b;" d="M1001.258 559.53c-3.862 11.968-14.89 20.138-27.456 20.438l-326.762 6.55-107.242 305.3c-4.14 11.798-15.318 19.692-27.798 19.692s-23.658-7.894-27.798-19.67l-107.242-305.322-326.742-6.572c-12.566-0.278-23.594-8.47-27.456-20.438s0.32-25.046 10.368-32.598l260.182-195.2-94.506-309.142c-3.67-11.99 0.64-24.982 10.752-32.384 10.112-7.382 23.808-7.616 34.112-0.49l268.33 184.792 268.374-184.79c5.034-3.456 10.858-5.184 16.704-5.184 6.122 0 12.224 1.878 17.408 5.674 10.112 7.402 14.422 20.416 10.752 32.384l-94.572 309.142 260.224 195.2c10.048 7.574 14.208 20.65 10.368 32.618z" />
<glyph unicode="&#x3c;" d="M512 949.334c-194.41 0-352-214.4-352-352 21.334-139.754 298.666-650.666 352-650.666s330.666 510.91 352 650.666c0 137.6-157.61 352-352 352zM512 480c-64.79 0-117.334 52.544-117.334 117.334s52.544 117.334 117.334 117.334 117.334-52.544 117.334-117.334-52.544-117.334-117.334-117.334z" />
<glyph unicode="&#x3d;" d="M206.016 644.736v-617.75c0-20.8 16.896-37.674 37.738-37.674h536.49c20.842 0 37.738 16.874 37.738 37.674l0.002 617.75h-611.968zM848.15 791.914l-163.072-0.384-0.128 48.342c-0.064 36.886-30.144 66.858-67.072 66.794l-212.416-0.47c-36.906-0.086-66.858-30.186-66.73-67.072l0.086-48.362-163.074-0.362c-25.002-0.042-45.206-20.31-45.162-45.334 0.064-24.938 20.374-45.206 45.354-45.162l672.384 1.516c24.982 0.042 45.142 20.31 45.078 45.334 0.020 25-20.268 45.204-45.248 45.16zM624.768 791.402l-225.622-0.448-0.128 48.342c0 3.67 2.966 6.634 6.592 6.634l212.416 0.448c3.648 0 6.656-2.922 6.656-6.592l0.086-48.384z" />
<glyph unicode="&#x3e;" d="M810.71 225.11c0 0.102 0 0.226 0 0.346 0 33.132 26.858 59.99 59.99 59.99 32.766 0 59.398-26.27 59.98-58.896 0.010-1.544 0.010-1.664 0.010-1.788 0-33.132-26.858-59.99-59.99-59.99-32.766 0-59.398 26.27-59.98 58.896zM93.334 293.994c0 33.144 26.868 60.010 60.010 60.010s60.010-26.866 60.010-60.010c0-33.144-26.866-60.010-60.010-60.010s-60.010 26.866-60.010 60.010zM185.28 849.408c0 33.144 26.868 60.010 60.010 60.010s60.012-26.868 60.012-60.010c0-33.144-26.868-60.012-60.010-60.012s-60.010 26.868-60.010 60.012zM334.378 726.614l-23.254 43.37c-5.354 9.942-17.686 13.696-27.712 8.342-9.92-5.312-13.674-17.706-8.362-27.69l23.338-43.37c3.67-6.848 10.71-10.794 18.006-10.794 3.264 0 6.614 0.81 9.664 2.454 9.92 5.33 13.676 17.724 8.32 27.688zM356.544 598.784c3.712-6.912 10.774-10.794 18.090-10.794 3.286 0 6.55 0.79 9.622 2.432 9.962 5.354 13.674 17.77 8.362 27.712l-23.296 43.37c-5.334 9.92-17.706 13.696-27.67 8.342-9.984-5.354-13.674-17.728-8.362-27.67l23.254-43.392zM657.728 364.374l-47.338 27.050c-9.856 5.59-22.314 2.176-27.946-7.616-5.546-9.792-2.176-22.294 7.638-27.904l47.338-27.050c3.2-1.834 6.678-2.688 10.154-2.688 7.146 0 13.994 3.69 17.792 10.326 5.568 9.812 2.176 22.314-7.638 27.882zM776.128 296.81l-47.382 27.030c-9.814 5.568-22.272 2.176-27.904-7.594-5.568-9.834-2.176-22.314 7.594-27.946l47.338-27.008c3.242-1.834 6.698-2.688 10.198-2.688 7.040 0 13.952 3.712 17.706 10.326 5.612 9.768 2.178 22.292-7.55 27.88zM296.768 390.614l-47.68-26.368c-9.898-5.482-13.526-17.92-8.022-27.798 3.754-6.742 10.71-10.56 17.898-10.56 3.328 0 6.742 0.832 9.898 2.56l47.658 26.41c9.92 5.462 13.504 17.898 8.042 27.798-5.458 9.856-17.938 13.462-27.794 7.958zM900.842 825.962c0 50.412-41.002 91.372-91.412 91.372-50.304 0-91.306-40.96-91.306-91.37 0-16.064 4.182-31.126 11.498-44.266l-208.384-218.688c-18.922 11.456-41.002 18.154-64.662 18.154-69.226 0-125.504-56.298-125.504-125.482 0-69.162 56.278-125.462 125.504-125.462 1.322 0 2.474 0.15 3.798 0.192l46.55-182.698c-26.006-16.15-43.478-44.864-43.478-77.654 0-50.41 41.002-91.37 91.35-91.37 50.368 0 91.328 40.96 91.328 91.37 0 48.704-38.358 88.512-86.4 91.094l-46.57 182.72c40.81 20.714 68.886 63.018 68.886 111.83 0 25.814-7.83 49.856-21.27 69.802l208.362 218.666c12.182-6.058 25.856-9.514 40.298-9.514 50.41-0.024 91.412 40.936 91.412 91.304zM517.994 104.256c9.216 9.92 22.23 16.256 36.8 16.256 5.632 0 10.986-1.174 16.022-2.88 19.968-6.698 34.454-25.386 34.454-47.574 0-27.862-22.656-50.474-50.474-50.474-27.776 0-50.454 22.614-50.454 50.474 0 13.228 5.226 25.174 13.652 34.198zM525.59 439.766c-3.158-13.782-10.326-26.026-20.288-35.456-1.942-1.834-4.032-3.478-6.208-5.12-11.926-8.96-26.496-14.486-42.496-14.486-3.562 0-6.912 0.554-10.282 1.024-15.126 2.218-28.736 9.002-39.21 19.178-9.77 9.578-16.81 21.866-19.84 35.754-1.066 4.842-1.686 9.814-1.686 14.976 0 19.776 8.234 37.696 21.334 50.56 9.514 9.344 21.568 16.042 35.114 18.902 4.694 0.96 9.578 1.494 14.57 1.494 8.96 0 17.45-1.834 25.322-4.886 17.664-6.762 31.936-20.31 39.574-37.526 3.904-8.746 6.102-18.39 6.102-28.544-0.022-5.46-0.812-10.73-2.006-15.87zM809.43 775.53c-3.2 0-6.4 0.384-9.45 0.96-19.434 3.712-34.794 18.602-39.402 37.674-0.982 3.818-1.578 7.744-1.578 11.818 0 27.84 22.656 50.496 50.432 50.496 27.862 0 50.474-22.656 50.474-50.496 0.020-27.816-22.616-50.452-50.476-50.452z" />
<glyph unicode="&#x3f;" d="M776.96 495.722h-45.888c0.214 1.92 0.576 3.776 0.576 5.782v216.064c0 126.294-102.72 229.078-229.078 229.078-126.272 0-229.014-102.784-229.014-229.078v-21.034c0-32.298 26.112-58.432 58.432-58.432 32.384 0 58.432 26.154 58.432 58.432v21.034c0 61.846 50.368 112.17 112.15 112.17 61.802 0 112.192-50.304 112.192-112.17v-216.064c0-2.006 0.362-3.862 0.554-5.782h-368.276c-42.070 0-76.374-34.262-76.374-76.374v-364.246c0-42.196 34.304-76.436 76.374-76.436h529.92c42.070 0 76.374 34.24 76.374 76.438v364.246c0 42.112-34.304 76.372-76.374 76.372zM555.712 128.534h-87.424v84.288c0 24.128 19.52 43.734 43.712 43.734s43.712-19.606 43.712-43.734v-84.288z" />
<glyph unicode="&#x40;" d="M776.982 495.722h-45.952c0.214 1.898 0.618 3.818 0.618 5.738v98.944c0 126.294-102.742 229.078-229.056 229.078-126.23 0-229.014-102.762-229.014-229.078v-98.944c0-1.92 0.362-3.84 0.554-5.738h-27.114c-42.068 0-76.352-34.282-76.352-76.394v-364.266c0-42.134 34.284-76.396 76.352-76.396h529.962c42.070 0 76.354 34.262 76.354 76.416v364.246c0 42.112-34.284 76.394-76.352 76.394zM555.754 128.576h-87.51v84.246c0 24.128 19.542 43.754 43.734 43.754s43.776-19.626 43.776-43.754v-84.246zM389.866 495.722c0.214 1.898 0.554 3.818 0.554 5.738v98.944c0 61.846 50.304 112.17 112.15 112.17 61.782 0 112.15-50.326 112.15-112.17v-98.944c0-1.92 0.362-3.84 0.554-5.738h-225.408z" />
<glyph unicode="&#x41;" d="M966.080 466.134l-255.51 160.576c-15.254 9.578-35.306 4.97-44.886-10.218-9.578-15.232-4.97-35.306 10.218-44.864l210.368-132.202-209.6-123.99c-15.51-9.13-20.63-29.098-11.434-44.544 6.038-10.262 16.896-16 28.010-16 5.61 0 11.328 1.472 16.512 4.544l255.552 151.146c9.75 5.782 15.808 16.214 15.978 27.562 0.194 11.328-5.608 21.952-15.208 27.99zM348.054 314.966l-210.368 132.18 209.642 124.010c15.466 9.13 20.586 29.098 11.414 44.566-9.13 15.466-29.078 20.544-44.586 11.434l-255.49-151.166c-9.77-5.76-15.85-16.214-16-27.562-0.128-11.35 5.632-21.93 15.232-27.968l255.552-160.554c5.418-3.392 11.37-4.992 17.28-4.992 10.858 0 21.398 5.398 27.584 15.232 9.536 15.188 4.992 35.262-10.26 44.82zM603.114 727.978c-20.544 6.442-42.474-5.056-48.874-25.6l-151.744-485.44c-6.422-20.586 5.078-42.496 25.642-48.896 3.904-1.216 7.83-1.792 11.67-1.792 16.598 0 32.022 10.71 37.248 27.414l151.722 485.44c6.4 20.544-5.076 42.432-25.664 48.874z" />
<glyph unicode="&#x42;" d="M920.086 487.338l-71.53 124.394c-3.712 7.318-7.83 14.378-12.502 21.034-0.704 0.982-1.344 1.942-2.176 2.816-20.822 28.458-50.198 50.304-84.394 61.44-4.096 48.362-44.8 86.486-94.166 86.486-52.182 0-94.592-42.432-94.592-94.592 0-14.656 3.456-28.522 9.472-40.938-12.97-14.57-23.424-31.318-30.678-49.686-8.618 3.114-17.856 4.928-27.542 4.928s-18.88-1.814-27.498-4.928c-7.616 19.2-18.688 36.608-32.448 51.648 5.44 11.904 8.49 25.046 8.49 38.954 0 52.138-42.39 94.592-94.55 94.592-49.814 0-90.602-38.656-94.23-87.488-33.088-11.434-61.482-32.746-81.728-60.438-0.768-0.874-1.408-1.834-2.048-2.816-4.758-6.656-8.854-13.738-12.586-21.034l-71.488-124.394c-37.78-39.85-61.226-93.524-61.226-152.682 0-122.496 99.712-222.144 222.186-222.144 91.84 0 170.794 56 204.63 135.594 12.842-6.358 27.2-10.026 42.518-10.026s29.696 3.67 42.56 10.026c33.792-79.616 112.746-135.594 204.63-135.594 122.454 0 222.144 99.648 222.144 222.144 0 59.18-23.446 112.832-61.248 152.704zM264.854 190.55c-79.466 0-144.106 64.618-144.106 144.064 0 47.786 23.51 90.090 59.478 116.33 23.786 17.344 52.992 27.734 84.63 27.734 62.422 0 115.584-40 135.53-95.658 5.418-15.146 8.554-31.382 8.554-48.384-0.002-79.468-64.62-144.086-144.086-144.086zM537.92 316.778c-5.718-8.212-15.168-13.632-25.92-13.632s-20.182 5.418-25.878 13.632c-3.542 5.078-5.632 11.2-5.632 17.834 0 3.306 0.64 6.4 1.6 9.386 0.918 3.050 2.218 5.91 4.010 8.47 5.696 8.214 15.126 13.654 25.878 13.654s20.202-5.418 25.92-13.654c1.728-2.582 3.072-5.44 4.010-8.47 0.96-2.986 1.558-6.080 1.558-9.386 0.044-6.634-2.026-12.756-5.546-17.834zM759.19 190.55c-79.446 0-144.128 64.618-144.128 144.064 0 17.002 3.136 33.238 8.598 48.384 19.946 55.68 73.066 95.658 135.53 95.658 31.574 0 60.842-10.368 84.608-27.734 35.968-26.24 59.456-68.522 59.456-116.33 0-79.424-64.64-144.042-144.064-144.042zM264.81 433.642c-21.226 0-40.854-6.826-57.046-18.24-25.28-17.942-41.92-47.466-41.92-80.768 0-10.774 8.726-19.52 19.498-19.52 10.794 0 19.562 8.726 19.562 19.52 0 9.066 2.112 17.6 5.782 25.344 5.974 12.672 16.15 22.848 28.822 28.822 0.47 0.234 0.982 0.576 1.494 0.854 7.338 3.158 15.36 4.95 23.786 4.95 10.838 0 19.562 8.768 19.562 19.562 0.024 10.73-8.702 19.476-19.54 19.476zM757.078 433.642c-42.326 0-78.506-26.816-92.566-64.342-4.096-10.794-6.442-22.464-6.442-34.688 0-10.774 8.768-19.52 19.562-19.52 10.774 0 19.498 8.726 19.498 19.52 0 9.066 2.198 17.6 5.824 25.344 1.024 2.262 2.218 4.438 3.542 6.55 6.058 9.622 14.826 17.366 25.302 22.272 7.68 3.626 16.192 5.782 25.28 5.782 10.838 0 19.562 8.768 19.562 19.562 0 10.774-8.726 19.52-19.562 19.52z" />
<glyph unicode="&#x43;" d="M199.616 556.224c-6.592 0-11.968-5.334-11.968-11.946v-390.25c0-6.592 5.376-11.946 11.968-11.946h73.77c6.614 0 11.99 5.354 11.99 11.946v390.25c0 6.614-5.376 11.946-11.99 11.946h-73.77zM387.648 556.224c-6.592 0-11.926-5.334-11.926-11.946v-390.25c0-6.592 5.334-11.946 11.926-11.946h73.792c6.614 0 11.926 5.354 11.926 11.946v390.25c0 6.614-5.312 11.946-11.926 11.946h-73.792zM572.544 556.224c-6.592 0-11.904-5.334-11.904-11.946v-390.25c0-6.592 5.312-11.946 11.904-11.946h73.878c6.614 0 11.882 5.354 11.882 11.946v390.25c0 6.614-5.27 11.946-11.882 11.946h-73.878zM762.24 556.224c-6.592 0-11.968-5.334-11.968-11.946v-390.25c0-6.592 5.376-11.946 11.968-11.946h73.814c6.592 0 11.99 5.354 11.99 11.946l-0.002 390.25c0 6.614-5.398 11.946-11.99 11.946h-73.812zM116.010 624.726h791.724c0.106 0 0.17 0 0.278 0 16.448 0 29.824 13.334 29.824 29.824 0 12.778-8.042 23.68-19.286 27.926l-393.344 189.226c-8.17 3.946-17.706 3.946-25.856 0.022l-396.224-190.23c-12.586-6.038-19.306-19.968-16.214-33.536 3.094-13.612 15.168-23.232 29.098-23.232zM511.872 780.352c24.854 0 44.992-20.138 44.992-44.992s-20.138-44.992-44.992-44.992-44.992 20.138-44.992 44.992c0 24.854 20.138 44.992 44.992 44.992zM907.734 81.046h-791.724c-16.47 0-29.824-13.334-29.824-29.846s13.334-29.866 29.824-29.866h791.724c16.47 0 29.866 13.354 29.866 29.866s-13.398 29.846-29.866 29.846z" />
<glyph unicode="&#x44;" d="M698.026 216.278c5.034 7.146 9.642 14.57 13.974 22.294 1.13 1.984 2.262 4.010 3.328 6.038 1.792 3.434 3.584 6.848 5.206 10.368 2.432 5.162 4.758 10.368 6.87 15.744 10.134 25.536 16.47 53.29 18.56 82.346 0.534 6.762 0.938 13.568 0.938 20.48 0 6.954-0.406 13.718-0.938 20.502-2.326 32.342-10.112 62.912-22.25 90.816v0c0 0.022-0.042 0.106-0.064 0.15-4.074 9.322-8.554 18.368-13.59 27.008-0.214 0.362-0.448 0.768-0.64 1.13-1.942 3.286-3.968 6.506-6.016 9.686-2.070 3.222-4.182 6.358-6.422 9.494-1.514 2.154-3.030 4.394-4.608 6.486-0.042 0.022-0.042 0.042-0.042 0.042v0c-10.218 13.462-21.76 25.706-34.218 36.608 2.39 10.73 3.798 21.866 3.798 33.344 0 36.054-12.672 69.162-33.706 95.018 6.208 13.184 9.77 27.862 9.77 43.414 0 56.598-45.888 102.506-102.506 102.506v-92.928c-7.232 1.11-14.57 1.856-22.080 1.856-8.534 0-16.79-0.896-24.918-2.282l-0.002 93.372c-56.598 0-102.506-45.91-102.506-102.506 0-16.448 4.010-31.936 10.88-45.696-20.010-25.536-32.042-57.706-32.042-92.758 0-11.498 1.408-22.614 3.84-33.344-12.694-11.114-24.426-23.51-34.774-37.226v0c0 0 0 0-0.042 0-1.088-1.494-2.090-3.050-3.178-4.566-2.688-3.754-5.312-7.616-7.83-11.562-1.92-2.986-3.754-5.974-5.568-9.046-0.746-1.322-1.45-2.666-2.198-4.010-4.544-8.042-8.662-16.384-12.374-24.938v-0.022c-10.646-24.618-17.898-51.264-20.97-79.402v0c0-0.042 0-0.042 0-0.064-0.406-3.498-0.64-6.976-0.938-10.496-0.512-6.784-0.96-13.632-0.96-20.586s0.448-13.782 0.96-20.566c0.298-3.542 0.534-7.018 0.938-10.496 0-0.022 0-0.042 0-0.064v0c2.73-24.918 8.554-48.746 17.258-70.954 2.218-5.61 4.65-11.094 7.232-16.47 1.558-3.328 3.222-6.57 4.928-9.814 1.088-2.090 2.262-4.182 3.392-6.23 41.13-73.664 114.666-122.944 198.87-122.944 75.008 0 141.568 39.146 184.278 99.776v0c0.148 0.15 0.254 0.32 0.36 0.492zM902.294 608.256c8.406 5.802 13.44 15.382 13.44 25.622v47.082c0 17.174-13.93 31.126-31.146 31.126s-31.126-13.952-31.126-31.126v-30.72l-130.39-90.134c12.352-16.47 23.104-34.454 32-53.59l147.222 101.74zM123.050 608.256l148.266-102.486c8.896 19.178 19.562 37.162 31.894 53.674l-131.306 90.794v30.72c0 17.174-13.93 31.126-31.126 31.126-17.238 0-31.146-13.952-31.146-31.126v-47.082c0-10.238 5.014-19.796 13.418-25.62zM242.454 373.546c0 10.518 0.534 20.906 1.514 31.146l-148.822 0.002c-17.216 0-31.146-13.952-31.146-31.146s13.93-31.126 31.146-31.126h148.842c-0.98 10.26-1.534 20.608-1.534 31.124zM928.854 404.714h-146.112c0.982-10.24 1.514-20.63 1.514-31.146 0-10.538-0.534-20.886-1.514-31.126h146.112c17.194 0 31.146 13.93 31.146 31.126 0 17.194-13.952 31.146-31.146 31.146zM902.294 150.038l-143.382 99.114c-8.362-19.456-18.602-37.76-30.486-54.634l125.014-86.422v-30.72c0-17.216 13.91-31.126 31.126-31.126s31.146 13.93 31.146 31.126v47.040c0.022 10.218-5.034 19.776-13.418 25.622zM123.050 150.038c-8.406-5.846-13.418-15.402-13.418-25.642v-47.040c0-17.216 13.91-31.126 31.146-31.126 17.194 0 31.126 13.93 31.126 31.126v30.72l125.93 87.062c-11.862 16.938-22.016 35.286-30.314 54.762l-144.47-99.862z" />
<glyph unicode="&#x45;" d="M305.77 853.334h-176.724c-16.3 0-29.484-13.228-29.484-29.484v-176.726c0-16.256 13.184-29.462 29.482-29.462h176.726c16.256 0 29.418 13.206 29.418 29.462l0.002 176.726c0 16.256-13.164 29.484-29.42 29.484zM276.31 676.608h-117.782v117.782h117.782v-117.782zM305.77 565.802h-176.724c-16.298 0-29.482-13.184-29.482-29.44v-176.746c0-16.278 13.184-29.418 29.482-29.418h176.726c16.256 0 29.418 13.162 29.418 29.418v176.746c0 16.256-13.164 29.44-29.42 29.44zM276.31 389.098h-117.782v117.782h117.782v-117.782zM305.77 278.314h-176.724c-16.298 0-29.482-13.226-29.482-29.482v-176.704c-0.002-16.256 13.182-29.462 29.482-29.462h176.726c16.256 0 29.418 13.206 29.418 29.462v176.704c0 16.278-13.164 29.482-29.42 29.482zM276.31 101.568h-117.782v117.824h117.782v-117.824zM600.32 853.334h-176.662c-16.32 0-29.462-13.226-29.462-29.482v-176.726c0-16.256 13.142-29.462 29.462-29.462h176.662c16.32 0 29.504 13.206 29.504 29.462v176.724c-0.022 16.256-13.206 29.484-29.504 29.484zM570.944 676.608h-117.846v117.782h117.846v-117.782zM600.32 565.802h-176.662c-16.32 0-29.462-13.184-29.462-29.44v-176.746c0-16.278 13.142-29.418 29.462-29.418h176.662c16.32 0 29.504 13.162 29.504 29.418v176.746c-0.022 16.256-13.206 29.44-29.504 29.44zM570.944 389.098h-117.846v117.782h117.846v-117.782zM600.32 278.314h-176.662c-16.32 0-29.462-13.226-29.462-29.482v-176.704c0-16.278 13.142-29.462 29.462-29.462h176.662c16.32 0 29.504 13.206 29.504 29.462v176.704c-0.022 16.278-13.206 29.482-29.504 29.482zM570.944 101.568h-117.846v117.824h117.846v-117.824zM894.934 853.334h-176.704c-16.298 0-29.462-13.226-29.462-29.482v-176.726c0-16.256 13.162-29.462 29.462-29.462h176.704c16.32 0 29.504 13.206 29.504 29.462v176.724c0 16.256-13.184 29.484-29.504 29.484zM865.472 676.608h-117.802v117.782h117.802v-117.782zM894.934 565.802h-176.704c-16.298 0-29.462-13.184-29.462-29.44v-176.746c0-16.278 13.162-29.418 29.462-29.418h176.704c16.32 0 29.504 13.162 29.504 29.418v176.746c0 16.256-13.184 29.44-29.504 29.44zM865.472 389.098h-117.802v117.782h117.802v-117.782zM894.934 278.314h-176.704c-16.298 0-29.462-13.226-29.462-29.482v-176.704c0-16.278 13.162-29.462 29.462-29.462h176.704c16.32 0 29.504 13.206 29.504 29.462v176.704c0 16.278-13.184 29.482-29.504 29.482zM865.472 101.568h-117.802v117.824h117.802v-117.824z" />
<glyph unicode="&#x46;" d="M512 874.666c-235.306 0-426.666-191.38-426.666-426.666 0-235.242 191.36-426.666 426.666-426.666 235.264 0 426.666 191.424 426.666 426.666 0 235.286-191.402 426.666-426.666 426.666zM564.054 213.014c0-12.118-5.248-23.126-15.574-32.704-10.198-9.45-23.786-14.23-40.512-14.23-17.216 0-31.424 4.736-42.198 14.122-10.986 9.558-16.554 20.586-16.554 32.79v20.992c0 12.182 5.632 23.232 16.554 32.79 10.774 9.344 24.982 14.102 42.198 14.102 16.726 0 30.336-4.8 40.512-14.23 10.304-9.558 15.574-20.544 15.574-32.64v-20.992zM679.616 527.254c-6.742-13.226-15.382-24.854-25.622-34.602-10.090-9.514-21.078-18.134-32.726-25.558-11.158-7.082-21.674-14.762-31.21-22.806-9.344-7.872-17.174-16.682-23.296-26.218-5.824-9.066-8.79-20.438-8.79-33.706v-13.206c0-8.746-4.288-17.878-12.778-27.264-8.576-9.45-20.032-14.55-34.006-15.126l-2.922-0.064c-14.208 0-25.75 4.074-34.326 12.118-9.238 8.618-13.91 18.326-13.91 28.8 0 24.448 3.414 45.29 10.154 61.974 6.656 16.534 14.912 30.87 24.576 42.666 9.578 11.754 20.416 22.016 32.128 30.57 11.222 8.086 21.568 16.128 30.762 23.786 8.918 7.424 16.534 15.36 22.762 23.488 5.696 7.552 8.49 16.682 8.49 27.904 0 18.518-5.014 31.744-15.424 40.49-10.454 8.896-25.024 13.376-43.136 13.376-12.074 0-22.442-0.746-30.806-2.24-8.15-1.43-15.68-3.862-22.442-7.21-6.656-3.306-12.95-7.914-18.666-13.654-6.016-5.974-12.31-13.59-18.794-22.57-5.824-8.192-14.506-14.4-25.686-18.41-11.498-4.138-24.234-3.050-37.546 3.328-11.99 5.952-19.264 13.76-21.76 23.21-2.326 8.662-2.326 17.77-0.042 27.008 1.706 7.872 6.4 17.558 14.422 29.418 7.786 11.606 18.966 22.912 33.174 33.622 14.122 10.646 32.022 19.968 53.142 27.626 21.27 7.68 46.762 11.584 75.776 11.584 28.608 0 53.398-4.33 73.706-12.886 20.374-8.618 37.056-20.074 49.472-34.112 12.394-14.038 21.546-30.166 27.242-47.914 5.568-17.578 8.406-35.946 8.406-54.592 0.044-18.9-3.412-35.37-10.324-48.83z" />
<glyph unicode="&#x47;" d="M600.938 333.546l-40.448 5.654c-1.238 27.67-7.19 54.23-17.728 79.168l33.578 25.322c2.176 1.664 3.606 4.138 4.010 6.826 0.384 2.73-0.362 5.482-2.026 7.68l-46.698 61.782c-1.622 2.198-4.074 3.606-6.826 4.010s-5.462-0.342-7.638-2.006l-30.976-23.402c-20.522 18.922-43.946 33.77-69.866 44.246l5.526 39.638c0.426 2.71-0.342 5.462-1.984 7.658-1.664 2.198-4.096 3.606-6.806 4.010l-76.65 10.646c-2.858 0.406-5.482-0.32-7.702-1.984-2.154-1.642-3.606-4.118-4.010-6.826l-5.078-36.8c-28.608-1.194-56.022-7.488-81.728-18.71l-23.382 30.89c-3.414 4.544-9.878 5.418-14.464 2.026l-61.76-46.634c-2.218-1.664-3.648-4.118-4.010-6.826-0.384-2.73 0.342-5.482 2.006-7.68l22.122-29.29c-19.158-21.226-33.942-45.184-43.99-71.402l-38.698 5.354c-2.752 0.362-5.462-0.362-7.658-2.006-2.154-1.664-3.606-4.096-3.968-6.826l-10.624-76.65c-0.79-5.654 3.158-10.858 8.79-11.626l37.44-5.226c1.686-27.968 8.298-54.934 19.754-80.426l-32.618-24.618c-4.502-3.434-5.44-9.92-1.984-14.486l46.678-61.738c3.434-4.566 9.898-5.418 14.442-2.006l31.808 24.022c20.544-18.112 44.246-32.534 69.398-42.262l-5.802-42.262c-0.79-5.654 3.158-10.838 8.81-11.626l76.65-10.666c0.47-0.064 0.938-0.106 1.43-0.106 5.056 0 9.472 3.734 10.218 8.896l5.782 41.088c27.094 1.558 53.248 7.766 77.974 18.496l26.39-34.944c3.456-4.566 9.92-5.398 14.464-2.026l61.782 46.614c2.218 1.642 3.648 4.138 4.010 6.848 0.384 2.71-0.362 5.462-2.006 7.658l-25.28 33.45c18.218 20.074 32.49 42.88 42.56 67.904l43.242-6.016c5.462-0.682 10.88 3.158 11.67 8.81l10.688 76.672c0.786 5.714-3.118 10.94-8.814 11.708zM389.866 249.45c-17.386-13.142-38.080-20.096-59.818-20.096-31.488 0-60.394 14.378-79.382 39.446-32.982 43.67-24.298 106.070 19.434 139.114 17.386 13.142 38.102 20.074 59.798 20.074 31.488 0 60.352-14.358 79.274-39.382 33.046-43.688 24.386-106.152-19.306-139.156zM970.282 653.376l-15.68 57.962c-0.704 2.646-2.454 4.906-4.822 6.25-2.39 1.344-5.162 1.728-7.872 0.982l-27.114-7.402c-9.11 18.666-21.078 35.306-35.776 49.686l14.55 25.322c2.816 4.95 1.13 11.264-3.818 14.122l-52.010 29.866c-2.39 1.366-5.206 1.728-7.872 1.002-2.624-0.704-4.906-2.474-6.25-4.864l-13.354-23.274c-19.926 6.826-40.448 9.578-61.354 9.75l-7.402 27.178c-1.45 5.504-7.104 8.726-12.672 7.274l-57.878-15.702c-5.504-1.494-8.768-7.168-7.274-12.672l6.934-25.6c-18.944-9.494-35.712-21.866-49.962-36.886l-24.576 14.144c-4.906 2.838-11.264 1.174-14.122-3.84l-29.91-52.010c-1.366-2.39-1.728-5.206-1.002-7.85 0.682-2.646 2.432-4.906 4.822-6.25l23.808-13.61c-6.422-19.798-9.344-40.15-8.704-60.694l-28.736-7.85c-5.504-1.514-8.746-7.168-7.274-12.694l15.658-57.792c0.682-2.646 2.41-4.886 4.822-6.25 2.368-1.366 5.226-1.728 7.85-1.002l27.99 7.574c9.28-17.878 21.526-34.282 35.968-48.106l-15.574-27.114c-2.838-4.97-1.11-11.264 3.862-14.122l52.010-29.91c2.368-1.366 5.206-1.75 7.85-1.002 2.624 0.726 4.886 2.474 6.25 4.864l15.018 26.218c19.094-6.186 38.166-8.918 58.646-8.79l8.406-31.040c1.238-4.608 5.418-7.638 9.962-7.638 0.918 0 1.814 0.106 2.688 0.384l57.92 15.594c2.666 0.704 4.886 2.432 6.272 4.822 1.366 2.368 1.728 5.226 1.024 7.85l-8.022 29.59c17.898 8.96 33.942 20.65 47.83 34.816l27.798-15.914c4.992-2.794 11.264-1.152 14.122 3.818l29.91 52.010c1.366 2.346 1.728 5.162 1.024 7.85-0.704 2.646-2.454 4.886-4.842 6.25l-25.834 14.784c6.656 19.242 9.898 39.082 9.75 59.2l29.696 8.042c5.538 1.496 8.782 7.17 7.266 12.674zM816.896 594.496c-9.92-17.322-25.984-29.738-45.248-34.966-6.422-1.728-12.992-2.624-19.584-2.624-33.6 0-63.254 22.698-72 55.19-10.73 39.68 12.842 80.704 52.586 91.52 6.378 1.728 12.992 2.602 19.562 2.602 33.558 0 63.082-22.656 71.85-55.146 5.228-19.222 2.712-39.318-7.166-56.576z" />
<glyph unicode="&#x48;" d="M307.754 754.368c-11.754 0-21.312-9.6-21.312-21.376v-370.966c0-11.818 9.558-21.418 21.312-21.418 11.862 0 21.44 9.6 21.44 21.418v370.966c0 11.798-9.6 21.376-21.44 21.376zM518.186 682.582c-11.862 0-21.44-9.6-21.44-21.398v-186.71c0-11.798 9.578-21.376 21.44-21.376 11.754 0 21.376 9.578 21.376 21.376v186.71c0 11.798-9.62 21.398-21.376 21.398zM749.654 780.714c-11.734 0-21.312-9.622-21.312-21.44v-225.386c0-11.798 9.578-21.376 21.312-21.376 11.862 0 21.44 9.578 21.44 21.376v225.386c0 11.82-9.6 21.44-21.44 21.44zM681.622 446.934c-85.994 0-155.648-94.806-155.648-155.648 9.386-61.802 132.074-287.744 155.648-287.744 23.594 0 146.262 225.942 155.67 287.744-0.002 60.82-69.654 155.648-155.67 155.648zM681.622 239.424c-28.608 0-51.926 23.232-51.926 51.862 0 28.672 23.318 51.926 51.926 51.926 28.65 0 51.946-23.254 51.946-51.926 0-28.63-23.296-51.862-51.946-51.862zM936.106 849.386l-183.594 42.304c-6.57 1.494-13.482 0.81-19.67-2.026l-215.168-98.454-197.994 82.582c-7.424 3.030-15.552 3.158-23.062 0.234l-212.992-82.964c-11.882-4.652-19.626-16.022-19.626-28.716v-584.49c0-10.176 4.95-19.69 13.44-25.386 8.32-5.76 19.050-6.976 28.458-3.286l201.536 78.528 198.87-83.008c3.798-1.536 7.872-2.326 11.882-2.326 4.374 0 8.746 0.938 12.778 2.752l15.978 7.338-27.306 55.146-1.962-0.896-197.994 82.56c-3.84 1.558-7.786 2.346-11.926 2.346-3.69 0-7.53-0.704-11.136-2.090l-171.050-66.624v518.424l181.866 70.87 198.87-82.966c7.894-3.286 16.832-3.158 24.64 0.406l217.898 99.69 149.59-34.474v-521.386l-28.992 6.678-14.634-29.632c-2.24-5.162-4.758-10.24-7.552-15.274l-0.512-0.982-5.312-10.816 80.874-18.624c9.194-2.090 18.774 0.086 26.048 5.888 7.402 5.864 11.648 14.738 11.648 24.104v584.534c0 14.336-9.92 26.752-23.894 30.036z" />
<glyph unicode="&#x49;" d="M928.874 827.072h-833.77c-17.194 0-31.104-13.952-31.104-31.126v-695.894c0-17.216 13.91-31.126 31.104-31.126h833.77c17.216 0 31.126 13.91 31.126 31.126v695.894c0 17.174-13.91 31.126-31.126 31.126zM835.606 763.946c17.322 0 31.446-14.058 31.446-31.446 0-17.344-14.102-31.424-31.446-31.424-17.366 0-31.446 14.058-31.446 31.424s14.058 31.446 31.446 31.446zM723.584 763.946c17.344 0 31.446-14.058 31.446-31.446 0-17.344-14.080-31.424-31.446-31.424s-31.424 14.058-31.424 31.424c0 17.366 14.058 31.446 31.424 31.446zM611.562 763.946c17.344 0 31.466-14.058 31.466-31.446 0-17.344-14.102-31.424-31.466-31.424s-31.424 14.058-31.424 31.424c0 17.366 14.080 31.446 31.424 31.446zM897.77 131.136h-771.54v513.386h771.542l-0.002-513.386zM459.136 269.334c2.176-0.832 4.544-0.384 6.272 1.13l56.342 49.046 50.838-94.25c0.832-1.536 2.282-2.666 4.010-3.114 0.47-0.106 0.982-0.17 1.472-0.17 1.258 0 2.432 0.362 3.478 1.11l50.602 34.070c1.43 0.96 2.39 2.454 2.688 4.182 0.278 1.686-0.192 3.434-1.258 4.778l-63.274 81.878 66.88 26.73c2.070 0.81 3.562 2.688 3.84 4.906 0.342 2.218-0.554 4.416-2.346 5.782l-210.24 162.154c-2.026 1.536-4.758 1.686-6.912 0.448-2.198-1.28-3.392-3.712-3.050-6.23l36.736-267.498c0.274-2.244 1.788-4.164 3.922-4.952z" />
<glyph unicode="&#x4a;" d="M909.93 200.576h-533.482c-20.202 0-36.608-16.426-36.608-36.63s16.406-36.63 36.608-36.63h533.504c20.202 0 36.608 16.426 36.608 36.63s-16.406 36.63-36.63 36.63zM909.93 484.608h-533.482c-20.202 0-36.608-16.384-36.608-36.608s16.406-36.608 36.608-36.608h533.504c20.202 0 36.608 16.384 36.608 36.608s-16.406 36.608-36.63 36.608zM376.448 695.488h533.504c20.202 0 36.608 16.384 36.608 36.586 0 20.224-16.406 36.63-36.608 36.63h-533.504c-20.202 0-36.608-16.406-36.608-36.63s16.384-36.586 36.608-36.586zM204.822 814.058h-90.752c-20.224 0-36.63-16.384-36.63-36.586v-90.794c0-20.202 16.406-36.63 36.63-36.63h90.752c20.224 0 36.63 16.426 36.63 36.63l-0.002 90.794c-0.020 20.224-16.404 36.586-36.628 36.586zM204.822 530.026h-90.752c-20.224 0-36.63-16.426-36.63-36.65v-90.774c0-20.202 16.406-36.586 36.63-36.586h90.752c20.224 0 36.63 16.384 36.63 36.586v90.774c-0.022 20.246-16.406 36.65-36.63 36.65zM204.822 245.952h-90.752c-20.224 0-36.63-16.384-36.63-36.63v-90.752c0-20.202 16.406-36.63 36.63-36.63h90.752c20.224 0 36.63 16.426 36.63 36.63v90.752c-0.022 20.246-16.406 36.63-36.63 36.63z" />
<glyph unicode="&#x4b;" d="M958.72 804.352c-3.69 13.078-15.574 22.72-29.802 22.72h-833.792c-17.216 0.022-31.126-13.93-31.126-31.104v-695.914c0-17.216 13.91-31.126 31.126-31.126h833.792c17.174 0 31.082 13.91 31.082 31.126v695.914c0 2.922-0.534 5.696-1.28 8.384zM634.88 764.842h91.136l-182.806-156.928h-91.156l182.826 156.928zM448.17 764.842h91.136l-182.762-156.928h-91.178l182.804 156.928zM126.23 764.842h39.68l-39.68-34.090v34.090zM126.23 648.746l135.232 116.096h91.158l-182.762-156.928h-43.628v40.832zM897.77 131.136h-771.54v439.446h771.54v-439.446zM897.77 607.914h-72.32l72.32 62.122v-62.122zM897.77 752.042l-167.85-144.128h-91.136l182.784 156.928h76.202v-12.8zM579.776 344.576l67.498 67.498c4.886 4.864 4.886 12.736 0 17.6l-51.392 51.37c-4.886 4.864-12.758 4.864-17.6 0l-67.498-67.478-67.498 67.478c-4.672 4.694-12.906 4.694-17.578 0l-52.16-52.182c-4.864-4.842-4.864-12.736 0-17.6l67.498-67.478-67.114-67.094c-2.326-2.346-3.648-5.526-3.648-8.832s1.322-6.464 3.648-8.79l51.392-51.392c4.864-4.864 12.758-4.864 17.6 0l67.114 67.072 67.904-67.862c2.39-2.432 5.59-3.648 8.768-3.648s6.378 1.216 8.81 3.648l52.202 52.182c2.282 2.326 3.606 5.482 3.606 8.79s-1.322 6.486-3.606 8.832l-67.946 67.886z" />
<glyph unicode="&#x4c;" d="M947.456 185.878l-351.616 619.434c-17.11 30.208-49.11 48.832-83.818 48.832-34.752 0-66.73-18.646-83.862-48.832l-351.594-619.434c-16.938-29.824-16.726-66.432 0.534-96.086 17.258-29.654 49.024-47.914 83.328-47.914h703.146c34.326 0 66.048 18.262 83.328 47.914 17.28 29.654 17.472 66.24 0.554 96.086zM560.022 155.67c-11.776-10.474-25.77-15.786-41.536-15.786-15.958 0-30.080 5.248-42.026 15.594-12.182 10.582-18.368 25.408-18.368 44.074 0 16.384 5.846 30.506 17.366 42.006 11.456 11.498 25.728 17.322 42.326 17.322 16.554 0 30.912-5.782 42.646-17.258 11.754-11.52 17.77-25.686 17.77-42.070-0.002-18.41-6.104-33.13-18.178-43.882zM575.658 554.538l-15.318-175.424c-1.75-21.824-5.418-38.272-11.306-50.282-6.464-13.206-17.75-20.202-32.662-20.202-15.19 0-26.432 6.848-32.426 19.818-5.334 11.584-8.96 28.352-11.2 51.35l-11.414 170.73c-2.154 33.75-3.242 57.28-3.242 71.958 0 21.27 5.802 38.208 17.194 50.368 11.52 12.288 26.794 18.582 45.334 18.582 22.912 0 38.592-8.32 46.614-24.726 7.36-15.104 10.966-36.010 10.966-63.83 0-15.766-0.854-32.022-2.54-48.342z" />
<glyph unicode="&#x4d;" d="M511.978 906.666c-252.884 0-458.644-205.738-458.644-458.644 0-252.886 205.76-458.688 458.644-458.688 252.906 0 458.688 205.802 458.688 458.688 0 252.906-205.78 458.644-458.688 458.644zM511.978 52.416c-218.154 0-395.584 177.472-395.584 395.606 0 218.154 177.43 395.606 395.584 395.606 218.134 0 395.626-177.45 395.626-395.606 0.002-218.134-177.492-395.606-395.626-395.606zM487.53 697.066c2.902 0 5.12 0.746 6.806 2.346 1.686 1.578 2.582 3.37 2.582 5.334v61.974l43.926-63.786 0.49-0.79c0.64-1.558 1.75-2.774 3.306-3.712 1.578-0.918 3.606-1.344 5.994-1.344 2.73 0 4.97 0.746 6.656 2.346 1.686 1.578 2.518 3.37 2.518 5.334v92.758c0 2.006-0.832 3.754-2.518 5.334s-3.946 2.39-6.656 2.39c-3.072 0-5.482-0.832-7.21-2.39-1.75-1.578-2.602-3.328-2.602-5.334v-62.934l-44.096 64.426c-0.448 1.6-1.494 3.072-3.136 4.31-1.622 1.258-3.69 1.898-6.058 1.898-2.944 0-5.312-0.832-7.104-2.39-1.814-1.578-2.71-3.328-2.71-5.334v-92.778c0-1.962 0.896-3.754 2.71-5.334 1.79-1.576 4.158-2.324 7.102-2.324zM268.032 492.502c-1.238 2.048-3.328 3.434-6.294 4.182-2.646 0.662-5.034 0.448-7.21-0.64-2.218-1.11-3.542-2.582-4.096-4.438l-12.288-74.41-17.898 71.786c-0.854 2.624-2.006 4.63-3.434 5.994-1.366 1.386-3.67 2.070-6.87 2.070-4.928 0-8.192-2.666-9.834-8.064l-17.878-71.786-12.288 74.41c-0.662 1.856-2.048 3.328-4.182 4.438-2.112 1.11-4.586 1.322-7.296 0.64-2.858-0.746-4.886-2.154-6.144-4.182-1.28-1.984-1.578-3.968-1.066-5.824l19.542-90.966c0.534-1.878 1.75-3.498 3.648-4.864 1.92-1.344 4.246-2.026 6.998-2.026 2.71 0 5.034 0.682 6.954 2.026 1.898 1.366 3.136 2.966 3.712 4.864l18.006 67.862 18.152-67.84c0.576-1.878 1.834-3.498 3.69-4.864 1.942-1.344 4.246-2.026 6.954-2.026 2.646 0 4.928 0.682 6.934 2.026 1.942 1.366 3.2 2.966 3.754 4.864l19.498 90.966c0.536 1.854 0.194 3.818-1.064 5.802zM856.49 407.872h-36.714v27.050h24.598c3.178 0 5.568 0.79 7.146 2.346 1.558 1.6 2.346 3.626 2.346 6.144 0 2.752-0.79 4.928-2.346 6.486-1.578 1.578-3.968 2.41-7.146 2.41h-24.598v25.706h36.714c3.072 0 5.398 0.79 6.976 2.346 1.578 1.6 2.41 3.626 2.41 6.186 0 2.71-0.832 4.864-2.41 6.464-1.578 1.558-3.926 2.346-6.976 2.346l-46.036 0.004c-2.966 0-5.354-0.79-7.146-2.346-1.792-1.622-2.752-3.37-2.752-5.334v-89.536c0-1.962 0.96-3.712 2.752-5.334 1.792-1.578 4.182-2.346 7.146-2.346h46.038c3.072 0 5.398 0.79 6.976 2.346 1.578 1.6 2.41 3.648 2.41 6.144 0 2.752-0.832 4.928-2.41 6.486-1.58 1.622-3.906 2.432-6.978 2.432zM538.454 135.402c-3.584 2.496-7.446 4.522-11.584 6.186-4.182 1.642-8 3.286-11.562 4.886-3.542 1.686-6.528 3.498-8.854 5.61-2.368 2.070-3.498 4.864-3.498 8.362 0 4.032 1.238 7.146 3.776 9.258 2.496 2.134 5.718 3.2 9.642 3.2 4.566 0 8.256-0.726 10.966-2.154 2.752-1.43 4.778-2.666 6.080-3.776 1.216-1.002 2.496-1.856 3.882-2.602 1.322-0.79 2.966-1.152 4.694-1.152 2.944 0 5.034 0.79 6.272 2.346 1.28 1.622 1.92 3.648 1.92 6.186 0 1.386-0.704 3.178-2.154 5.334-1.386 2.112-3.542 4.16-6.336 6.144-2.752 1.962-6.208 3.626-10.304 4.992s-8.854 2.048-14.358 2.048c-5.248 0-9.92-0.726-14.058-2.218-4.182-1.472-7.68-3.562-10.518-6.314-2.858-2.71-5.014-5.93-6.57-9.642-1.536-3.754-2.282-7.894-2.282-12.458 0-5.718 1.194-10.346 3.542-13.994 2.326-3.67 5.312-6.742 8.918-9.216 3.626-2.454 7.488-4.502 11.542-6.144 4.118-1.642 7.978-3.328 11.606-5.078 3.584-1.75 6.55-3.734 8.896-5.994 2.368-2.24 3.542-5.12 3.542-8.598 0-4.16-1.302-7.19-3.754-9.088-2.538-1.92-5.952-2.88-10.326-2.88-3.84 0-7.466 0.662-10.816 2.070-3.434 1.344-6.038 2.88-7.936 4.63-1.174 1.11-2.432 2.112-3.882 3.050-1.386 0.918-3.030 1.45-4.928 1.558-5.674 0-8.49-2.56-8.49-7.702 0-2.282 0.64-4.374 1.962-6.25 1.322-1.856 3.008-3.542 5.078-4.95 2.048-1.472 4.394-2.794 6.976-3.862 2.518-1.11 5.12-2.026 7.722-2.774 2.646-0.768 5.184-1.366 7.574-1.75 2.41-0.362 4.458-0.534 6.058-0.534 10.56 0 18.902 2.646 24.918 7.936 5.994 5.334 9.002 12.566 9.002 21.718 0 5.93-1.174 10.71-3.498 14.422s-5.34 6.762-8.86 9.194zM741.248 695.552l-299.776-167.786c-0.17-0.106-0.278-0.214-0.426-0.32-0.106-0.064-0.256-0.064-0.384-0.128-3.030-1.686-5.568-4.246-7.254-7.296l-167.040-299.35c-4.118-7.382-2.794-16.598 3.158-22.592 3.648-3.606 8.49-5.526 13.398-5.526 3.136 0 6.358 0.832 9.258 2.454l298.368 168c1.75 0.982 3.434 2.602 4.886 4.33 1.066 1.066 1.962 2.282 2.71 3.626l168.79 298.774c4.16 7.36 2.88 16.64-3.094 22.678-5.976 5.974-15.192 7.254-22.594 3.136zM332.16 260.886l122.538 219.626 96.362-96.362-218.9-123.264z" />
<glyph unicode="&#x4e;" d="M688 800l176-176-586.666-586.666-234.668-58.668 58.666 234.666 586.668 586.668zM746.666 624l-58.666 58.666-469.334-469.334 58.668-58.666 469.332 469.334zM937.344 697.344l-14.678-14.678-176 176 14.678 14.678c58.666 58.666 117.334 58.666 176 0s58.666-117.334 0-176z" />
<glyph unicode="&#x4f;" d="M958.102 655.168l-232.15 203.606c-9.28 6.698-21.504 7.68-31.638 2.454-2.71-1.366-5.248-3.178-7.318-5.29-0.17-0.106-0.342-0.106-0.448-0.278-1.536-1.6-2.966-3.414-4.054-5.226-0.384-0.47-0.598-1.024-0.832-1.536-0.938-1.686-1.686-3.478-2.432-5.334-0.15-0.662-0.342-1.322-0.512-2.026-0.576-2.368-1.066-4.886-1.066-7.402v-45.61l-0.022-44.778c-0.598 0-1.194 0.234-1.77 0.15-274.56-27.734-473.942-163.542-473.942-323.050 0-113.558 100.032-217.174 267.542-277.142 1.898-0.704 3.926-1.002 5.888-1.002 6.87 0 13.418 4.054 16.214 10.794 3.562 8.662-0.298 18.582-8.682 22.592-82.368 38.784-129.6 94.614-129.6 152.982 0 98.624 136.384 179.050 324.374 191.402l-0.022-93.546c0-11.456 6.464-21.974 16.682-27.114 2.006-1.11 4.246-1.77 6.422-2.262 1.984-0.49 4.010-0.704 6.080-0.832h0.042c6.656-0.234 13.44 1.366 19.114 5.504l232.17 203.67c7.83 5.76 12.522 14.826 12.566 24.618-0.042 9.744-4.778 18.896-12.606 24.656zM904.96 441.77c-17.642 0-31.978-14.358-31.978-32.086v-314.24l-755.606 0.002v576.404h158.72c17.75 0 32.086 14.314 32.086 32.022 0 17.622-14.336 31.978-32.086 31.978h-190.806c-17.642 0-31.958-14.358-31.958-31.978v-640.406c0-17.686 14.314-32.042 31.958-32.042h819.67c17.75 0 32.106 14.358 32.106 32.042v346.24c0 17.728-14.356 32.064-32.106 32.064z" />
<glyph unicode="&#x50;" d="M970.538 567.702c-2.346 31.21-24.426 90.198-91.862 90.198h-126.912c-5.654 61.482-33.194 142.038-110.102 142.038l-252.948-0.172c-8.128-0.874-76.608-11.926-84.118-141.994l-152.448-1.152c-34.218-1.43-98.666-24.234-98.666-99.648v-367.574c-0.47-7.978-1.046-40.618 21.738-65.92 16.618-18.218 40.32-27.37 70.634-27.37l734.74 0.106c31.126 2.986 90.112 26.198 90.112 92.202l0.004 377.536-0.172 1.75zM508.032 186.56c-109.782 0-198.976 89.152-198.976 198.848 0 109.718 89.194 198.89 198.976 198.89 109.59 0 198.826-89.174 198.826-198.89 0.022-109.718-89.236-198.848-198.826-198.848zM807.51 465.898c-21.782 0-39.53 17.706-39.53 39.616 0 21.718 17.75 39.466 39.53 39.466 21.738 0 39.574-17.75 39.574-39.466-0.002-21.908-17.858-39.616-39.574-39.616zM508.032 531.926c-80.832 0-146.56-65.77-146.56-146.518 0-80.768 65.728-146.518 146.56-146.518 80.682 0 146.454 65.75 146.454 146.518 0.020 80.768-65.75 146.518-146.454 146.518z" />
<glyph unicode="&#x51;" d="M948.374 910.698h-582.572c-18.282 0-33.002-14.762-33.002-33.002v-267.114h65.92v234.154h422.848l-170.24-96.534c-10.326-5.846-16.704-16.79-16.704-28.65v-510.122h-235.904v181.526h-65.92v-214.506c0-18.198 14.698-32.96 33.002-32.96h268.822v-125.184c0-11.734 6.208-22.57 16.362-28.458 5.184-3.008 10.88-4.522 16.576-4.522 5.674 0 11.222 1.45 16.298 4.31l274.134 155.498c13.504 4.114 23.34 16.488 23.34 31.314v701.248c0 18.24-14.742 33.002-32.96 33.002zM440.512 454.55c25.472 0 46.144 20.65 46.144 46.122 0 25.45-20.672 46.122-46.144 46.122h-176.384v86.016c0 7.466-4.138 14.25-10.794 17.6-6.656 3.392-14.55 2.752-20.522-1.622l-181.994-132.138c-5.058-3.732-8.152-9.664-8.152-15.978 0-6.336 3.094-12.31 8.17-16.022l181.952-132.182c3.434-2.496 7.466-3.734 11.584-3.734 3.114 0 6.144 0.662 8.982 2.134 6.656 3.392 10.794 10.198 10.794 17.6v86.080l176.364 0.002z" />
<glyph unicode="&#x52;" d="M512.042 906.666c-252.928 0-458.708-205.76-458.708-458.644 0-252.908 205.78-458.688 458.708-458.688 252.886 0 458.624 205.782 458.624 458.688 0 252.884-205.76 458.644-458.624 458.644zM690.41 406.294h-178.41c-23.018 0-41.686 18.666-41.686 41.706v320.426c0 23.018 18.666 41.706 41.686 41.706s41.686-18.666 41.686-41.706v-278.72h136.726c23.018 0 41.686-18.666 41.686-41.706s-18.668-41.706-41.688-41.706z" />
<glyph unicode="&#x53;" d="M806.826 508.202l75.818 45.398c-35.862 130.134-138.090 233.024-267.882 269.824l-45.206-75.562c119.83-24.278 214.124-119.446 237.27-239.66zM453.59 748.63l-45.462 75.99c-131.584-35.692-235.456-139.138-271.872-270.422l75.754-45.312c23.638 121.344 119.936 216.98 241.58 239.744zM212.010 392.896l-75.754-45.354c36.672-132.182 141.738-236.16 274.56-271.146l45.654 76.224c-123.030 21.758-220.63 117.972-244.46 240.276zM566.698 153.43l45.354-75.84c132.458 36.502 236.714 141.718 271.766 274.752l-76.246 45.632c-21.78-123.244-118.25-220.95-240.874-244.544zM206.4 450.88l-121.088 72.448v-47.786h-42.624v-49.004h42.624v-48.084zM938.666 475.542v50.218l-121.066-72.426 121.066-72.448v45.652h42.646v49.004zM439.382 21.546h47.914v-42.88h48.982v42.88h47.978l-72.47 121.068zM584.256 874.966h-47.978v42.368h-48.982v-42.368h-47.914l72.404-121.11z" />
<glyph unicode="&#x54;" d="M483.946 502.378c2.688-6.528 8.96-10.858 16.022-11.050 0.192 0 0.256 0 0.448 0 6.848 0 13.12 3.99 16.106 10.218l151.296 321.706c4.16 8.874 0.406 19.456-8.448 23.594-50.112 23.766-103.594 35.818-158.954 35.818-49.344 0-97.088-9.386-141.782-27.946-9.046-3.734-13.334-14.080-9.622-23.168 30.402-73.768 134.934-329.172 134.934-329.172zM746.048 769.728c-4.288 2.026-9.174 2.24-13.61 0.682-4.48-1.6-8.106-4.906-10.090-9.174l-151.338-321.686c-4.138-8.746-0.534-19.114 8.106-23.446l316.95-158.826c2.56-1.302 5.27-1.878 7.958-1.878 6.528 0 12.758 3.562 15.894 9.77 26.556 52.804 40.082 108.974 40.082 166.83 0 143.552-84.010 276.138-213.952 337.728zM761.814 243.35l-310.998 155.84c-16.17 39.274-104.854 255.402-132.416 322.368-1.792 4.374-5.248 7.83-9.6 9.664-4.394 1.792-9.28 1.792-13.632 0-140.416-58.326-231.168-193.728-231.168-344.982 0-205.61 167.318-372.886 372.906-372.886 141.398 0 268.928 78.998 332.8 206.102 2.134 4.224 2.496 9.152 0.982 13.568-1.45 4.48-4.65 8.192-8.874 10.326z" />
<glyph unicode="&#x55;" d="M512 949.334c-194.454 0-352.022-214.4-352.022-352 5.866-38.442 31.19-105.066 65.856-181.376h190.166v-85.292h85.312v-213.29h-85.312v-55.68c43.542-68.544 79.958-115.030 96-115.030 53.334 0 330.666 510.934 352.022 650.688 0 137.58-157.612 351.98-352.022 351.98zM428.118 459.968c-3.114-3.222-7.402-4.928-11.648-4.928-2.026 0-4.010 0.406-5.974 1.174-6.122 2.454-10.134 8.362-10.134 14.954v50.112c-52.138 9.75-91.030 58.262-91.030 117.184 0 65.514 49.386 118.89 110.102 118.89h95.232c60.714 0 110.080-53.376 110.080-118.89 0-5.76-0.426-11.776-1.386-18.432-8.406-58.24-54.122-100.522-108.65-100.522h-29.632l-56.96-59.542zM647.658 452.758v-35.35c0-5.632-3.478-10.73-8.704-12.8-1.664-0.662-3.414-0.982-5.078-0.982-3.818 0-7.402 1.472-10.090 4.246l-41.366 43.2h-20.864c-30.272 0-57.28 17.536-71.786 44.458l3.882 4.010h21.078c64.534 0 118.57 49.45 128.362 117.59 0.576 4.118 1.066 8.022 1.322 11.84 39.68-6.634 70.294-43.69 70.294-88.362-0.020-43.734-28.586-79.914-67.050-87.85zM351.978 352v-85.354h85.356v-85.312h-85.356v-85.334h-85.354v85.334h-85.29v85.312h85.29v85.354h85.354z" />
<glyph unicode="&#x56;" d="M624.512 172.608h-233.45l-17.408-102.378c-0.832-4.822 0.49-9.77 3.648-13.482s7.808-5.888 12.65-5.888h235.712c0.042 0 0.086 0 0.17 0 9.174 0 16.618 7.424 16.618 16.576 0 1.898-0.362 3.734-0.938 5.418l-17.002 99.754zM875.050 845.142h-726.1c-17.43 0-31.616-14.72-31.616-32.896v-573.526c0-18.198 14.186-32.918 31.616-32.918h726.080c17.43 0 31.616 14.72 31.616 32.918v573.504c0.020 18.198-14.166 32.918-31.596 32.918zM858.88 306.326h-693.738v463.722c0 16.064 12.842 29.056 28.822 29.056h636.074c15.958 0 28.842-12.992 28.842-29.056v-463.722zM450.518 599.168c-4.224-6.144-9.536-11.456-15.68-15.658l109.782-109.654c4.138 6.144 9.45 11.456 15.616 15.638l-109.718 109.674zM733.994 606.058l-109.354-115.69c6.314-4.010 11.734-9.174 16.042-15.19l109.44 115.754c-6.336 3.99-11.796 9.11-16.128 15.126zM284.864 550.294c5.546-4.95 10.134-10.838 13.482-17.558l66.218 54.4c-5.696 4.758-10.432 10.538-14.038 17.11l-65.662-53.952zM401.898 668.672c-20.202 0-36.65-16.384-36.65-36.566 0-4.8 1.024-9.322 2.71-13.546 2.816-7.062 7.766-13.014 14.058-17.11 5.674-3.734 12.48-5.952 19.882-5.952 6.058 0 11.712 1.622 16.682 4.246 6.742 3.478 12.182 8.938 15.638 15.658 2.624 5.014 4.224 10.646 4.224 16.704 0.022 20.182-16.362 36.566-36.544 36.566zM609.002 473.792c-4.842 2.346-10.154 3.754-15.766 3.754-6.102 0-11.754-1.622-16.81-4.224-6.678-3.498-12.16-8.938-15.552-15.658-2.688-5.014-4.266-10.646-4.266-16.704 0-20.182 16.406-36.608 36.65-36.608 20.118 0 36.522 16.426 36.522 36.608 0 6.464-1.75 12.374-4.736 17.642-3.646 6.592-9.236 11.926-16.042 15.19zM781.398 677.056c-20.246 0-36.63-16.406-36.63-36.586 0-6.528 1.878-12.586 4.842-17.856 3.734-6.592 9.322-11.882 16.192-15.126 4.758-2.24 9.984-3.606 15.594-3.606 20.16 0 36.544 16.384 36.544 36.608 0.002 20.16-16.382 36.566-36.542 36.566zM267.52 536.064c-6.038 4.374-13.376 7.040-21.418 7.040-20.224 0-36.608-16.384-36.608-36.586s16.384-36.586 36.608-36.586c20.246 0 36.586 16.384 36.586 36.586 0 4.118-0.81 7.978-2.112 11.67-2.454 7.23-7.040 13.46-13.056 17.876z" />
<glyph unicode="&#x57;" d="M511.978 564.672c-64.406 0-116.736-52.246-116.736-116.714 0-64.448 52.33-116.65 116.736-116.65 64.448 0 116.736 52.224 116.736 116.65 0 64.49-52.288 116.714-116.736 116.714zM951.36 464.938c-90.624 177.644-258.902 287.958-439.382 287.958-180.438 0-348.714-110.336-439.338-287.978l-8.64-16.96 8.64-16.96c90.624-177.6 258.902-287.914 439.338-287.914 180.48 0 348.758 110.314 439.382 287.914l8.64 16.96-8.64 16.98zM511.978 217.814c-146.432 0-284.182 87.722-363.606 230.144 79.424 142.442 217.174 230.166 363.606 230.166 146.474 0 284.224-87.722 363.648-230.166-79.424-142.422-217.172-230.144-363.648-230.144z" />
<glyph unicode="&#x58;" d="M888.81 172.416h-440.512c-16.682 0-30.144-13.504-30.144-30.23 0-16.682 13.462-30.23 30.144-30.23h440.512c16.682 0 30.25 13.546 30.25 30.23 0.002 16.726-13.566 30.23-30.25 30.23zM888.81 467.414h-440.512c-16.682 0-30.144-13.504-30.144-30.23 0-16.704 13.462-30.25 30.144-30.25h440.512c16.682 0 30.25 13.546 30.25 30.25 0.002 16.726-13.566 30.23-30.25 30.23zM448.298 701.974h440.512c16.682 0 30.25 13.504 30.25 30.208 0 16.726-13.568 30.23-30.25 30.23l-440.512-0.002c-16.682 0-30.144-13.504-30.144-30.23 0-16.682 13.44-30.206 30.144-30.206zM321.408 558.080h-181.376c-16.704 0-30.186-13.546-30.186-30.23v-181.334c0-16.682 13.482-30.23 30.186-30.23h181.376c16.662 0 30.144 13.568 30.144 30.23v181.334c0 16.684-13.462 30.23-30.144 30.23zM291.136 376.726h-120.854v120.918h120.854v-120.918zM321.408 263.104h-181.376c-16.704 0-30.186-13.568-30.186-30.25v-181.312c0-16.704 13.482-30.208 30.186-30.208h181.376c16.662 0 30.144 13.504 30.144 30.186v181.312c0 16.704-13.462 30.272-30.144 30.272zM291.136 81.792h-120.854v120.832h120.854v-120.832zM385.814 869.206c-12.566 9.046-31.488 6.57-41.024-5.334l-141.312-175.19-46.464 52.054c-10.176 11.286-29.398 12.906-41.302 3.328-6.208-4.992-10.006-12.032-10.688-19.84-0.618-7.702 1.92-15.168 7.168-21.078l70.038-78.442c5.632-6.314 13.782-9.878 22.4-9.878 0.128 0 0.64 0 0.704 0 8.874 0.192 17.13 4.202 22.656 10.986l163.498 202.688c4.906 6.122 6.998 13.696 5.994 21.376-1.002 7.83-5.12 14.636-11.668 19.33z" />
<glyph unicode="&#x59;" d="M936.15 779.968l-183.658 42.304c-6.592 1.558-13.504 0.81-19.67-1.984l-215.19-98.454-197.974 82.538c-7.338 3.050-15.594 3.178-22.998 0.278l-213.034-83.008c-11.84-4.586-19.626-15.956-19.626-28.65v-584.554c0-10.176 5.034-19.67 13.44-25.408 8.362-5.738 19.072-6.954 28.502-3.264l201.472 78.506 198.934-82.966c3.798-1.558 7.83-2.368 11.84-2.368 4.394 0 8.746 0.96 12.8 2.794l217.898 99.69 173.462-39.978c9.11-2.090 18.71 0.064 26.048 5.93 7.316 5.804 11.604 14.658 11.604 24.044v584.556c0 14.336-9.92 26.772-23.85 29.994zM898.474 204.096l-146.006 33.642c-6.592 1.536-13.504 0.832-19.67-2.026l-215.19-98.432-197.974 82.538c-3.776 1.6-7.808 2.368-11.84 2.368-3.776 0-7.552-0.662-11.158-2.090l-171.094-66.666 0.004 518.528 181.846 70.87 198.934-82.966c7.894-3.286 16.832-3.114 24.618 0.426l217.898 99.69 149.61-34.496 0.002-521.386zM221.184 475.904c-6.314-7.382-12.8-15.638-19.286-24.49-7.232-9.898-5.056-23.83 4.864-31.082 3.946-2.838 8.534-4.224 13.078-4.224 6.848 0 13.59 3.136 17.942 9.046 5.866 8.022 11.69 15.466 17.258 22.102 7.958 9.344 6.762 23.36-2.582 31.254-9.364 7.954-23.38 6.738-31.274-2.606zM369.472 504.982c-18.944 24.81-40.426 30.058-55.082 30.058-4.074 0-8.256-0.406-12.48-1.194-12.010-2.262-19.968-13.846-17.686-25.92 2.218-12.054 13.782-19.946 25.92-17.75 1.408 0.32 2.88 0.448 4.246 0.448 4.394 0 11.158-1.28 19.776-12.586l2.304-3.094c4.352-5.888 11.094-8.96 17.898-8.96 4.566 0 9.194 1.386 13.184 4.31 9.856 7.296 11.904 21.226 4.65 31.082l-2.73 3.606zM418.346 425.45c-5.994 10.71-19.562 14.506-30.208 8.512-10.71-6.038-14.506-19.562-8.49-30.272 9.75-17.258 19.306-34.134 29.59-50.474 4.288-6.678 11.498-10.346 18.838-10.346 4.032 0 8.15 1.088 11.84 3.414 10.346 6.55 13.462 20.266 6.934 30.634-9.752 15.444-19.074 31.786-28.504 48.532zM661.078 384.982c-9.75 7.424-23.658 5.482-31.082-4.288-12.138-16.042-24.064-29.738-35.37-40.768-8.746-8.576-8.96-22.614-0.384-31.402 4.352-4.438 10.134-6.72 15.872-6.72 5.61 0 11.178 2.112 15.53 6.294 12.864 12.586 26.218 27.946 39.722 45.738 7.402 9.79 5.504 23.722-4.288 31.146zM534.486 304.938c-12.992-1.088-25.13 2.902-38.016 12.48-9.856 7.338-23.766 5.312-31.082-4.566-7.296-9.834-5.27-23.702 4.586-31.018 19.114-14.272 39.402-21.462 60.202-21.462 2.774 0 5.568 0.128 8.362 0.362 12.224 1.13 21.206 11.904 20.096 24.128s-12.032 21.314-24.148 20.076zM720.17 484.8c-10.666 6.038-24.214 2.218-30.186-8.448-4.8-8.406-9.728-16.854-14.614-25.002-6.314-10.538-2.922-24.17 7.574-30.486 3.584-2.176 7.51-3.136 11.37-3.136 7.574 0 14.912 3.776 19.072 10.73 5.142 8.512 10.262 17.322 15.254 26.090 6.038 10.69 2.24 24.236-8.47 30.252zM757.312 638.528c-4.714 11.35-17.75 16.64-29.014 11.946-11.306-4.736-16.662-17.728-11.968-29.014l14.806-35.414-35.434-14.848c-11.328-4.714-16.64-17.728-11.904-29.078 3.542-8.47 11.798-13.632 20.438-13.632 2.88 0 5.782 0.554 8.534 1.75l35.478 14.826 14.762-35.478c3.626-8.512 11.818-13.632 20.522-13.632 2.858 0 5.76 0.554 8.512 1.706 11.286 4.736 16.682 17.728 11.946 29.056l-14.762 35.414 35.392 14.826c11.306 4.736 16.662 17.706 11.926 29.056-4.736 11.286-17.728 16.64-29.056 11.904l-35.37-14.806-14.808 35.418z" />
<glyph unicode="&#x5a;" d="M964.714 899.2c-38.698 38.634-102.678 20.31-191.85-55.018l-46.678-40.47-551.786 43.478c-45.61 5.504-77.824-1.068-96.426-19.67l-35.308-35.306 505.238-183.062-206.87-240.064-185.046 10.39-67.626-67.648 226.474-47.424 60.886-239.722 67.626 67.52-10.41 185.024 240.106 206.87 184.726-506.922 35.242 35.286c18.666 18.646 25.238 50.816 19.69 96.406l-43.434 551.786 40.49 46.678c8.938 11.734 17.258 22.486 24.854 32.128 7.574 9.664 16.554 23.146 26.922 40.406 10.432 17.344 16.768 38.23 19.2 62.762 2.476 24.508-2.878 43.452-16.020 56.572z" />
<glyph unicode="&#x5b;" d="M979.968 554.666c-3.69 11.456-14.23 19.264-26.218 19.52l-312.576 6.294-102.592 292.054c-3.948 11.284-14.614 18.858-26.582 18.858s-22.634-7.574-26.582-18.838l-102.614-292.054-312.554-6.292c-12.010-0.256-22.548-8.086-26.24-19.542s0.298-23.978 9.898-31.19l248.896-186.73-90.43-295.7c-3.478-11.478 0.64-23.894 10.282-30.976 9.664-7.082 22.762-7.296 32.64-0.47l256.704 176.746 256.704-176.746c4.822-3.328 10.432-4.992 15.978-4.992 5.846 0 11.69 1.834 16.64 5.462 9.664 7.082 13.802 19.52 10.304 30.976l-90.518 295.702 248.938 186.73c9.624 7.232 13.592 19.732 9.922 31.188z" />
<glyph unicode="&#x5c;" d="M928.874 827.072h-833.748c-17.174 0-31.126-13.952-31.126-31.126v-695.894c0-17.216 13.952-31.126 31.126-31.126h833.75c17.174 0 31.126 13.91 31.126 31.126l-0.002 695.894c0 17.174-13.952 31.126-31.126 31.126zM835.606 763.926c17.344 0 31.446-14.058 31.446-31.446 0-17.344-14.080-31.402-31.446-31.402s-31.424 14.058-31.424 31.402c0 17.386 14.058 31.446 31.424 31.446zM723.584 763.926c17.344 0 31.466-14.058 31.466-31.446 0-17.344-14.102-31.402-31.466-31.402s-31.446 14.058-31.446 31.402c0 17.386 14.080 31.446 31.446 31.446zM611.584 763.926c17.344 0 31.424-14.058 31.424-31.446 0-17.344-14.058-31.402-31.424-31.402s-31.466 14.058-31.466 31.402c0 17.386 14.1 31.446 31.466 31.446zM897.77 131.136h-771.52v513.386h771.52v-513.386zM235.286 264.47c1.814-0.938 3.754-1.408 5.738-1.408 2.518 0 5.034 0.79 7.168 2.262l159.168 112.022c3.328 2.326 5.312 6.102 5.312 10.198v47.19c0 4.074-1.984 7.894-5.354 10.218l-159.168 111.232c-3.798 2.666-8.79 2.966-12.886 0.832s-6.678-6.422-6.678-11.030v-55.318c0-3.798 1.728-7.36 4.714-9.75l87.446-69.654-87.51-70.4c-2.922-2.326-4.65-5.91-4.65-9.686v-55.68c-0.020-4.628 2.604-8.874 6.7-11.028zM397.696 264.192v-20.054c0-10.282 8.362-18.646 18.666-18.646h206.208c10.282 0 18.666 8.362 18.666 18.646v20.054c0 10.304-8.384 18.688-18.666 18.688h-206.208c-10.324 0-18.666-8.384-18.666-18.688z" />
<glyph unicode="&#x5d;" d="M684.074 917.334h-344.106c-43.030 0-78.25-35.222-78.25-78.208v-782.25c0-43.030 35.222-78.208 78.25-78.208h344.128c42.986 0 78.208 35.178 78.208 78.208v782.25c-0.022 42.986-35.242 78.208-78.23 78.208zM465.088 854.742h93.91c8.576 0 15.658-6.976 15.658-15.616s-7.082-15.66-15.658-15.66h-93.91c-8.576 0-15.616 7.018-15.616 15.658s7.018 15.618 15.616 15.618zM512 9.962c-25.942 0-46.954 20.992-46.954 46.912 0 25.942 21.014 46.954 46.954 46.954 25.984 0 46.998-21.014 46.998-46.954 0-25.92-21.014-46.912-46.998-46.912zM731.072 135.104h-438.038v625.792h438.016v-625.792z" />
<glyph unicode="&#x5e;" d="M729.344 848.79c-82.73 0-159.616-38.57-217.366-108.8-57.686 70.186-134.442 108.694-217.046 108.694-122.26-0.002-252.266-91.82-252.266-262.060 0-175.104 155.264-297.322 268.672-386.56 42.944-33.856 74.41-57.856 100.054-77.376 40.47-30.826 60.822-46.314 82.71-68.074 4.778-4.778 11.136-7.382 17.878-7.382s13.078 2.602 17.92 7.36c28.928 28.8 55.254 48.746 125.738 102.186l56.64 43.030c94.036 71.424 269.056 204.458 269.056 388.566 0 169.152-129.856 260.416-251.99 260.416z" />
<glyph unicode="&#x5f;" d="M304.534 564.010c0-19.904 15.254-35.968 33.942-35.968 0.17 0 0.406 0 0.576 0 6.976-94.826 81.686-189.674 172.928-189.674 91.178 0 165.888 94.87 172.886 189.674 0.214 0 0.448 0 0.64 0 18.688 0 33.898 16.064 33.898 35.968 0 14.678-8.192 27.242-20.054 32.832 6.848 21.334 10.602 44.074 10.602 67.862 0.022 115.946-88.598 209.962-197.93 209.962-109.354 0-197.994-94.038-197.994-209.984 0-23.786 3.798-46.528 10.646-67.862-11.906-5.588-20.14-18.154-20.14-32.81zM945.386 118.954c-80.79 78.528-179.52 133.888-285.654 160.362-2.666 1.514-5.718 2.282-8.832 2.282h-9.622c-3.072 0-6.038-0.746-8.726-2.198-32-17.194-75.99-27.050-120.534-27.050-44.586 0-88.534 9.856-120.598 27.050-2.71 1.43-5.696 2.198-8.746 2.198l-6.994 0.002c-1.45 0-2.88-0.17-4.246-0.47-108.928-25.814-210.134-81.856-292.842-162.176-3.626-3.478-5.568-8.234-5.568-13.226v-65.898c0.022-10.156 8.256-18.496 18.432-18.496h841.066c10.218 0 18.41 8.342 18.41 18.496v65.898c0.044 4.992-1.94 9.792-5.546 13.226z" />
<glyph unicode="&#x60;" d="M979.648 403.2c-4.054-8.15-13.568-12.224-28.502-12.224h-87.574l0.002-319.722c0-14.976-1.686-25.792-5.098-32.618-3.37-6.762-12.544-10.176-27.478-10.176l-213.846-0.002v321.792h-211.798v-321.77h-203.648c-12.224 0-21.718 2.026-28.522 6.122-6.784 4.032-10.858 8.47-12.202 13.226-1.344 4.758-2.048 12.586-2.048 23.446v319.724h-87.552c-14.934 0-24.106 4.054-27.498 12.224-3.414 8.128 0.362 17.642 11.222 28.502l417.448 419.518c10.88 10.858 23.744 16.298 38.678 16.298s27.862-5.418 38.678-16.298l419.542-419.542c10.878-10.836 14.292-20.35 10.196-28.5z" />
<glyph unicode="&#x61;" d="M792 672v168h-56v-168h-168v-56h168v-168h56v168h168v-560c0-15.146-5.568-28.288-16.618-39.382-11.072-11.072-24.192-16.618-39.382-16.618h-362.24c3.52 13.994 5.248 27.99 5.248 42.006 0 46.656-8.192 85.162-24.49 115.498-16.298 30.378-44.906 59.52-85.76 87.53-17.494 12.864-35.562 29.142-54.25 49.002-18.688 19.862-27.99 36.182-27.99 49.002 0 16.342 3.818 30.336 11.37 42.006s24.192 27.434 49.878 47.254c58.304 45.526 87.53 99.754 87.53 162.752 0 40.854-8.768 77.866-26.24 111.126-17.472 33.238-42.006 55.702-73.514 67.35h98.006l69.994 50.774-313.302-0.002c-73.494-0.042-138.24-24.554-194.24-73.556v89.258c0 15.146 5.568 28.288 16.618 39.382 11.072 11.072 24.192 16.618 39.382 16.618h784c15.19 0 28.31-5.526 39.382-16.618 11.028-11.094 16.618-24.236 16.618-39.382v-168h-168zM64 425.258c43.178-37.334 96.81-56 161.002-56 11.69 0 21.568 0.598 29.76 1.75-10.474-20.992-15.744-40.256-15.744-57.75 0-30.336 13.994-59.52 42.006-87.53-5.802 0-14.87 0-27.114 0s-21.312 0-27.114 0c-58.304 0-112.554-11.648-162.752-35.008l-0.002 234.538zM364.118 166.25c12.246-8.17 20.694-13.994 25.366-17.514s11.35-8.448 20.118-14.87c8.746-6.4 15.168-11.99 19.222-16.64 4.074-4.65 8.768-9.878 13.994-15.744 5.248-5.824 9.322-11.968 12.246-18.346s5.568-13.12 7.872-20.118c2.304-11.648 3.52-22.762 3.52-33.258s-0.514-20.416-1.71-29.76h-344.746c-15.19 0-28.31 5.526-39.382 16.618-11.028 11.094-16.618 24.236-16.618 39.382v59.498c20.992 24.49 49.002 44.352 84.010 59.52s72.32 22.186 112 20.992c26.816 0 52.502-4.096 76.992-12.224 5.804-3.54 14.87-9.386 27.116-17.536zM269.632 400.746c-40.256 1.152-76.992 20.992-110.25 59.52-33.238 38.528-53.354 84.010-60.352 136.47-6.998 52.502 1.43 96.534 25.344 132.118 23.936 35.584 56 52.778 96.256 51.626 40.256-1.13 76.992-20.416 110.25-57.75s53.376-82.24 60.374-134.742-1.43-97.13-25.366-133.866-56.022-54.528-96.256-53.376z" />
<glyph unicode="&#x62;" d="M916.246 852.246c29.162-29.164 43.754-64.172 43.754-105.004v-598.506c0-40.832-14.592-75.818-43.754-105.002-29.184-29.142-64.172-43.734-105.004-43.734h-598.484c-40.832 0-75.818 14.592-105.002 43.754-29.164 29.184-43.756 64.172-43.756 105.004v598.484c0 40.832 14.592 75.818 43.754 105.002 29.184 29.164 64.172 43.756 105.004 43.756h598.506c40.81 0 75.818-14.592 104.982-43.754zM326.506 629.12c13.994 13.418 20.992 30.038 20.992 49.878 0 20.992-6.698 38.208-20.118 51.626s-31.53 20.118-54.25 20.118c-22.742 0-41.408-6.698-56-20.118s-21.866-30.634-21.866-51.626c0-19.84 6.998-36.458 20.992-49.878s32.086-20.118 54.25-20.118h1.75c22.166 0 40.234 6.7 54.25 20.118zM338.752 553.002h-134.762v-407.744h134.742l-0.002 407.744zM828.758 379.754c0 60.672-14.294 106.454-42.88 137.366s-66.794 46.378-114.624 46.378c-51.328 0-91.584-22.762-120.746-68.246v57.75h-136.49c1.174-24.49 1.174-160.426 0-407.744h136.49l-0.002 227.5c0 15.168 1.152 26.24 3.498 33.258 13.994 33.834 37.334 50.752 69.994 50.752 45.504 0 68.246-30.912 68.246-92.758v-218.752h136.47l0.044 234.496z" />
<glyph unicode="&#x63;" d="M981.334 448c0-112.448-12.842-219.99-38.506-322.666-136.898-19.564-280.492-29.334-430.828-29.334s-293.93 9.77-430.826 29.334c-25.664 102.676-38.508 210.218-38.508 322.666s12.844 219.99 38.508 322.666c136.896 19.564 280.49 29.334 430.826 29.334s293.93-9.77 430.826-29.334c25.664-102.676 38.508-210.218 38.508-322.666zM688 448l-293.334 176v-352l293.334 176z" />
<glyph unicode="&#x64;" d="M981.334 739.114c-34.518-15.274-71.658-25.642-110.592-30.294 39.722 23.808 70.294 61.546 84.65 106.518-37.184-22.102-78.4-38.080-122.262-46.762-35.158 37.462-85.162 60.822-140.566 60.822-106.326 0-192.576-86.23-192.576-192.554 0-15.104 1.706-29.802 5.014-43.882-160.086 8.022-301.952 84.694-396.97 201.174-16.534-28.416-26.070-61.504-26.070-96.79 0-66.816 34.006-125.802 85.738-160.278-31.594 0.982-61.312 9.642-87.232 24.042-0.042-0.79-0.042-1.58-0.042-2.39 0-93.29 66.39-171.114 154.454-188.842-16.17-4.416-33.174-6.72-50.73-6.72-12.438 0-24.49 1.194-36.266 3.456 24.512-76.502 95.638-132.182 179.904-133.76-65.92-51.648-148.95-82.432-239.146-82.432-15.552 0-30.848 0.918-45.952 2.71 85.248-54.614 186.474-86.528 295.232-86.528 354.198 0 547.882 293.44 547.882 547.946 0 8.298-0.17 16.64-0.512 24.854 37.63 27.198 70.206 61.076 96.042 99.71z" />
<glyph unicode="&#x65;" d="M408.896 81.962c-4.374-3.264-8.704-5.462-14.144-5.462-5.418 0-9.792 2.176-14.122 5.462l-332.288 332.224c-7.552 7.594-7.552 20.672 0 28.246l136.854 136.81c7.552 7.574 20.63 7.574 28.182 0l181.354-182.422 415.892 416.962c7.574 7.658 20.63 7.658 28.182 0l136.854-136.832c7.552-7.574 7.552-20.608 0-28.202l-566.764-566.786z" />
<glyph unicode="&#x66;" d="M769.216 350.976c8.192-21.568 17.494-38.486 27.968-50.73 10.496-12.246 22.464-23.616 35.926-34.134 13.398-10.496 22.698-17.194 27.99-20.118 5.206-2.922 10.198-5.546 14.848-7.872-15.168-47.85-35.562-89.834-61.248-125.974-16.32-24.47-29.418-42.858-39.36-55.104-9.898-12.246-23.894-24.49-42.006-36.758-18.026-12.246-36.438-18.368-55.082-18.368-19.818-1.174-43.754 4.374-71.744 16.64-27.99 12.246-53.696 18.346-76.992 18.346-24.47 0-50.752-5.824-78.698-17.494-27.99-11.69-50.774-18.090-68.246-19.242-17.494-1.194-35.562 4.65-54.23 17.494-18.688 12.842-33.814 26.24-45.526 40.256-11.69 13.994-25.686 32.662-42.006 56-26.816 39.658-48.96 84.886-66.474 135.616s-26.24 105.258-26.24 163.584c0 58.304 12.246 109.078 36.778 152.234 19.798 33.814 46.016 60.65 78.698 80.47 32.682 19.84 68.246 30.336 106.752 31.51 20.992 0 48.448-6.4 82.24-19.242s55.424-19.242 64.726-19.242c8.214 0 32.064 7.296 71.722 21.866 39.68 14.57 72.938 20.694 99.734 18.346 71.168-2.326 125.974-32.064 164.48-89.238-65.28-42.006-97.386-98.582-96.214-169.706-0.062-24.554 4.012-47.572 12.204-69.14zM582.848 704.426c-23.914-12.246-48.106-17.216-72.598-14.87-5.802 47.808 10.474 93.866 49.002 138.218 15.168 18.666 35.264 34.41 60.374 47.254 25.024 12.842 48.662 19.862 70.826 20.992 5.802-51.35-9.898-99.136-47.21-143.466-16.34-19.882-36.436-35.904-60.394-48.128z" />
<glyph unicode="&#x67;" d="M960 448c0-123.648-43.754-229.248-131.242-316.758s-193.068-131.242-316.758-131.242-229.248 43.754-316.758 131.242c-87.508 87.488-131.242 193.11-131.242 316.758s43.754 229.248 131.242 316.758c87.488 87.508 193.068 131.242 316.758 131.242s229.248-43.754 316.758-131.242c87.508-87.488 131.242-193.11 131.242-316.758zM842.752 392h-162.752v112h162.752c-11.69 69.994-42.88 130.368-93.632 181.12s-111.126 81.962-181.12 93.632v-162.752h-112v162.752c-69.994-11.648-130.368-42.88-181.12-93.632s-81.942-111.126-93.632-181.12h162.752v-112h-162.752c11.69-69.994 42.88-130.368 93.632-181.12s111.126-81.962 181.12-93.632v162.752h112v-162.752c69.994 11.648 130.368 42.88 181.12 93.632s81.942 111.126 93.632 181.12z" />
<glyph unicode="&#x68;" d="M972.95 388.288c-18.838 18.838-508.224 508.202-508.224 508.202l-212.032-6.166-66.476-66.452c19.52-23.254 37.846-46.762 51.882-67.734 11.84 6.272 25.344 9.878 39.638 9.878 46.848 0 84.822-37.974 84.822-84.842 0-46.806-37.952-84.8-84.822-84.8-46.806 0-84.778 37.974-84.778 84.8 0 10.24 1.898 19.968 5.184 29.056-20.864 15.638-44.608 36.566-67.52 58.070l-51.434-51.434v-218.582l507.030-507.008c0 0 15.146-20.8 35.946 0 20.822 20.822 350.806 350.806 350.806 350.806s18.836 27.326-0.022 46.206zM248.768 697.088c0.534 0 1.578 0.022 2.006 0.47 12.010 12.010-62.208 110.23-162.262 214.954-2.774 0.512-8.448 1.43-14.976 1.43-8.448 0-19.904-1.6-25.962-9.28-5.184-6.528-6.252-16.876-3.222-30.87 64.278-68.886 175.51-176.704 204.416-176.704z" />
<glyph unicode="&#x69;" d="M42.688 545.13c0 10.646 8.554 19.158 19.136 19.158l332.864 0.81v332.864c0 10.646 8.512 19.136 19.136 19.136l196.374-0.426c10.644 0 19.136-8.49 19.136-19.094v-332.458h332.886c10.58 0 19.114-8.534 19.114-19.178v-196.266c0-10.666-8.534-18.986-19.114-19.008l-332.886-0.002v-332.65c0-10.602-8.49-19.136-19.114-19.136h-196.374c-10.666 0-19.136 8.534-19.136 19.136v332.65h-332.928c-10.54-0.020-19.116 8.704-19.116 19.372l0.022 195.092z" />
<glyph unicode="&#x6a;" d="M437.354 266.666h-85.354v85.334h-85.354v-85.334h-85.292v-85.332h85.292v-85.334h85.354v85.334h85.354zM512.022 938.666c-194.476 0-352.064-214.378-352.064-351.978 5.866-38.464 31.19-105.088 65.856-181.376h190.166l-0.002-63.978v-21.334h85.312v-213.312h-85.312v-55.68c43.542-68.544 79.958-115.008 96.044-115.008 53.29 0 330.666 510.934 352.022 650.688-0.002 137.6-157.612 351.978-352.022 351.978zM512 469.334c-64.79 0-117.334 52.544-117.334 117.334s52.544 117.332 117.334 117.332 117.334-52.544 117.334-117.334-52.544-117.332-117.334-117.332z" />
<glyph unicode="&#x6b;" d="M74.922 160.874c-8.234 8.214-8.234 21.354-0.042 29.568l256.128 257.386-256.79 256.79c-8.17 8.192-8.214 21.29 0 29.526l151.83 151.146c8.214 8.214 21.334 8.192 29.504 0l256.448-256.468 256.768 256.81c8.192 8.214 21.354 8.214 29.568 0l151.466-151.466c8.214-8.214 8.214-21.354 0-29.59l-256.768-256.746 256.448-256.448c8.192-8.214 8.234-21.334 0-29.546l-151.488-151.51c-8.256-8.214-21.376-8.17-29.546 0l-256.426 256.49-257.066-256.448c-8.214-8.17-21.354-8.17-29.59 0l-150.444 150.506z" />
<glyph unicode="&#x6c;" d="M61.802 330.624c-10.624 0-19.136 8.47-19.136 19.158l0.426 196.438c0 10.666 8.512 19.158 19.136 19.158h899.968c10.624 0 19.136-8.49 19.136-19.158v-196.438c0-10.688-8.512-19.158-19.136-19.158h-900.394z" />
<glyph unicode="&#x6e;" d="M218.666 565.334v-234.666c0-15.872-5.802-29.632-17.408-41.258-11.584-11.608-25.344-17.41-41.258-17.41-15.894 0-29.654 5.802-41.258 17.408-11.584 11.626-17.408 25.366-17.408 41.258v234.666c0 15.872 5.824 29.632 17.408 41.258 11.604 11.586 25.364 17.41 41.258 17.41 15.914 0 29.674-5.802 41.258-17.408 11.584-11.648 17.408-25.386 17.408-41.258zM248 565.334h528v-322.666c0-24.448-8.576-45.226-25.664-62.314-17.066-17.174-37.91-25.664-62.336-25.664h-29.334v-117.334c0-15.894-5.802-29.654-17.408-41.258s-25.364-17.432-41.258-17.432-29.654 5.802-41.258 17.408c-11.584 11.606-17.408 25.344-17.408 41.258v117.334h-58.666v-117.334c0-15.894-5.802-29.654-17.408-41.258s-25.366-17.408-41.26-17.408-29.654 5.802-41.258 17.408c-11.584 11.606-17.408 25.344-17.408 41.258v117.334h-29.334c-24.426 0-45.226 8.534-62.336 25.664-17.13 17.066-25.664 37.866-25.664 62.314v322.69zM725.59 750.486c27.498-37.866 43.67-80.042 48.576-126.486h-524.332c4.906 46.442 21.078 88.618 48.576 126.486 27.498 37.91 62.656 66.006 105.408 84.33l-38.506 71.51c-1.238 4.886 0.32 8.256 4.586 10.090 4.246 1.834 7.638 0.896 10.090-2.774l36.672-73.344c30.57 12.246 62.336 18.346 95.338 18.346s64.768-6.102 95.338-18.346l36.672 73.344c2.432 3.67 5.802 4.586 10.090 2.752 4.266-1.834 5.802-5.184 4.586-10.090l-38.524-71.488c42.774-18.346 77.93-46.442 105.43-84.33zM436.842 712c0 12.224-3.99 22.314-11.926 30.25-7.936 7.958-18.026 11.904-30.25 11.904s-22.314-3.968-30.25-11.904c-7.936-7.936-11.926-18.026-11.926-30.25s3.99-22.294 11.926-30.25 18.026-11.926 30.25-11.926 22.314 3.968 30.25 11.926 11.926 18.026 11.926 30.25zM671.51 712c0 12.224-3.99 22.314-11.926 30.25-7.936 7.958-18.026 11.904-30.25 11.904s-22.314-3.968-30.25-11.904c-7.936-7.936-11.926-18.026-11.926-30.25s3.99-22.294 11.926-30.25 18.026-11.926 30.25-11.926 22.314 3.968 30.25 11.926 11.926 18.026 11.926 30.25zM922.666 565.334v-234.666c0-15.872-5.824-29.632-17.408-41.258-11.606-11.584-25.344-17.408-41.258-17.408s-29.674 5.802-41.258 17.408c-11.584 11.626-17.408 25.366-17.408 41.258v234.666c0 15.872 5.802 29.632 17.408 41.258 11.584 11.584 25.344 17.408 41.258 17.408 15.894 0 29.654-5.802 41.258-17.408 11.584-11.648 17.408-25.386 17.408-41.258z" />
<glyph unicode="&#x6f;" d="M916.246 852.246c29.184-29.142 43.754-64.15 43.754-105.004v-598.506c0-40.854-14.57-75.818-43.754-105.002-29.206-29.142-64.192-43.734-105.004-43.734h-159.254l0.002 336h139.99v139.99h-139.99v71.744c0 11.648 2.944 21.59 8.746 29.76 5.824 8.17 12.246 12.246 19.242 12.246h112v138.24h-112c-46.678 0-86.314-17.77-118.998-53.376s-48.98-78.444-48.98-128.598v-69.994h-112v-139.99h112v-336.022h-299.242c-40.81 0-75.798 14.592-105.002 43.754-29.186 29.164-43.756 64.15-43.756 105.004v598.484c0 40.854 14.57 75.818 43.754 105.002 29.206 29.164 64.192 43.756 105.004 43.756h598.506c40.79 0 75.798-14.592 104.982-43.754z" />
<glyph unicode="&#x70;" d="M524.886 182.998l-154.774 79.018c-5.398-21.27-15.382-40.682-29.056-57.024l154.774-79.018c5.376 21.248 15.36 40.682 29.056 57.024zM816.448 546.026c44.266 0 80.17-35.904 80.17-80.192s-35.904-80.192-80.17-80.192c-44.288 0-80.214 35.904-80.214 80.192s35.904 80.192 80.214 80.192zM635.456 170.794c44.266 0 80.17-35.904 80.17-80.192s-35.904-80.192-80.17-80.192c-44.288 0-80.214 35.904-80.214 80.192s35.926 80.192 80.214 80.192zM230.486 377.558c44.266 0 80.192-35.904 80.192-80.192s-35.926-80.192-80.192-80.192-80.192 35.904-80.192 80.192 35.924 80.192 80.192 80.192zM183.83 925.91c44.266 0 80.192-35.904 80.192-80.192s-35.926-80.192-80.192-80.192-80.192 35.924-80.192 80.212 35.924 80.172 80.192 80.172zM712.512 565.568l-391.744 235.264c-6.826-20.758-18.24-39.402-33.046-54.826l391.744-235.264c6.848 20.756 18.262 39.424 33.046 54.826zM374.272 305.43l315.946 90.838c-10.198 18.41-16.342 39.318-17.558 61.526l-315.966-90.84c10.196-18.432 16.32-39.338 17.578-61.524z" />
<glyph unicode="&#x71;" d="M238.784 702.25c-17.92-11.222-38.4-18.71-60.416-21.12l162.666-468.394c17.92 11.222 38.4 18.71 60.416 21.12l-162.666 468.394zM832.554 842.88c44.266 0 80.17-35.904 80.17-80.192s-35.904-80.192-80.17-80.192c-44.288 0-80.214 35.904-80.214 80.192s35.926 80.192 80.214 80.192zM417.322 170.794c44.266 0 80.192-35.904 80.192-80.192s-35.926-80.192-80.192-80.192-80.192 35.904-80.192 80.192 35.926 80.192 80.192 80.192zM162.496 904.576c44.266 0 80.192-35.904 80.192-80.192s-35.926-80.192-80.192-80.192-80.192 35.926-80.192 80.214 35.926 80.17 80.192 80.17zM868.438 419.35c44.266 0 80.192-35.904 80.192-80.192s-35.926-80.192-80.192-80.192-80.192 35.904-80.192 80.192 35.924 80.192 80.192 80.192zM555.818 130.368l205.12 113.024c-14.208 15.936-24.918 34.944-30.976 56l-205.12-113.024c14.188-15.914 24.94-34.944 30.976-56zM868.438 483.35c6.806 0 13.462-0.64 20.032-1.558l-12.16 143.552c-13.802-4.416-28.502-6.826-43.754-6.826-6.826 0-13.482 0.64-20.054 1.558l12.16-143.552c13.824 4.394 28.522 6.826 43.776 6.826zM689.75 743.702c-0.81 6.23-1.386 12.544-1.386 18.986 0 15.616 2.582 30.656 7.21 44.758l-390.272 35.946c0.81-6.23 1.386-12.544 1.386-18.986 0-15.616-2.582-30.656-7.21-44.758l390.272-35.946z" />
<glyph unicode="&#x72;" d="M512.022 938.666c-194.476 0-352.064-214.378-352.064-351.978 5.866-38.464 31.19-105.088 65.856-181.376h190.166l-0.002-63.978v-21.334h85.312v-213.292h-85.312v-55.68c43.542-68.542 79.958-115.028 96.044-115.028 53.29 0 330.666 510.934 352.022 650.688-0.002 137.6-157.612 351.978-352.022 351.978zM429.546 697.77c0 45.034 36.928 81.494 82.538 81.494 45.59 0 82.538-36.458 82.538-81.494 0-9.238-1.578-18.048-4.438-26.346 4.928-2.176 8.384-7.082 8.384-12.758 0-7.702-6.336-13.952-14.122-13.952-0.106 0-0.17 0-0.256 0-2.944-36.8-34.090-73.642-72.106-73.642-38.038 0-69.184 36.864-72.106 73.642-0.086 0-0.15 0-0.256 0-7.808 0-14.166 6.25-14.166 13.952 0 5.674 3.478 10.582 8.406 12.758-2.858 8.298-4.416 17.11-4.416 26.346zM673.77 455.168c0-3.968-3.030-7.146-6.784-7.146h-309.824c-3.754 0-6.784 3.178-6.784 7.146v25.578c0 1.942 0.746 3.798 2.070 5.142 30.464 31.19 67.754 52.95 107.882 62.934 0.47 0.15 1.024 0.214 1.536 0.214h2.582c1.13 0 2.218-0.298 3.2-0.874 11.84-6.656 28.010-10.496 44.438-10.496s32.598 3.84 44.416 10.496c0.982 0.576 2.090 0.874 3.178 0.874h3.562c1.152 0 2.262-0.32 3.264-0.896 39.082-10.24 75.434-31.766 105.194-62.25 1.322-1.322 2.070-3.2 2.070-5.142v-25.58zM437.354 266.666h-85.354v85.334h-85.354v-85.334h-85.292v-85.312h85.292v-85.354h85.354v85.354h85.354z" />
<glyph unicode="&#x73;" d="M701.846 863.488l68.928-71.126-337.75-327.168 337.366-327.424-68.95-71.060-410.646 398.548z" />
<glyph unicode="&#x74;" d="M359.722 66.71l-68.928 71.124 337.75 327.148-337.386 327.444 68.97 71.062 410.646-398.57z" />
<glyph unicode="&#x75;" d="M1024 448c-1.278 66.862-15.784 133.516-42.576 194.462-26.704 61-65.462 116.258-113.042 161.92-47.552 45.696-103.944 81.82-164.984 105.652-61.004 23.924-126.596 35.352-191.398 33.966-64.81-1.282-129.332-15.374-188.334-41.356-59.048-25.896-112.542-63.47-156.734-109.576-44.224-46.082-79.16-100.708-102.186-159.798-23.114-59.062-34.128-122.52-32.746-185.27 1.286-62.76 14.964-125.148 40.134-182.206 25.088-57.1 61.476-108.828 106.11-151.548 44.61-42.754 97.472-76.504 154.614-98.72 57.118-22.304 118.446-32.902 179.142-31.526 60.708 1.29 120.962 14.554 176.076 38.914 55.15 24.282 105.116 59.48 146.366 102.644 41.282 43.14 73.844 94.236 95.254 149.43 13.034 33.458 21.88 68.4 26.542 103.798 1.246-0.072 2.498-0.12 3.762-0.12 35.346 0 64 28.652 64 64 0 1.796-0.094 3.572-0.238 5.332h0.238zM922.306 278.052c-23.472-53.202-57.484-101.4-99.178-141.18-41.67-39.81-91-71.186-144.244-91.79-53.228-20.678-110.29-30.452-166.884-29.082-56.604 1.298-112.596 13.736-163.82 36.474-51.25 22.666-97.684 55.49-135.994 95.712-38.338 40.198-68.528 87.764-88.322 139.058-19.87 51.284-29.228 106.214-27.864 160.756 1.302 54.552 13.328 108.412 35.254 157.69 21.858 49.3 53.498 93.97 92.246 130.81 38.73 36.868 84.53 65.87 133.874 84.856 49.338 19.060 102.136 28.006 154.626 26.644 52.5-1.306 104.228-12.918 151.562-34.034 47.352-21.050 90.256-51.502 125.624-88.782 35.396-37.258 63.21-81.294 81.39-128.688 18.248-47.392 26.782-98.058 25.424-148.496h0.238c-0.144-1.76-0.238-3.536-0.238-5.332 0-33.012 24.992-60.174 57.086-63.624-6.224-34.822-16.53-68.818-30.78-100.992z" />
<glyph unicode="&#x76;" d="M247.446 459.818c3.414 4.758 5.12 11.414 5.12 19.946 0 7.574-1.6 13.696-4.758 18.326-3.178 4.63-7.338 8.128-12.458 10.454-5.12 2.304-10.794 3.84-17.024 4.566s-12.266 1.11-18.134 1.11l-39.936-0.002v-70.336h35.904c6.592 0 13.184 0.298 19.776 0.918 6.592 0.598 12.63 2.048 18.112 4.374 5.504 2.346 9.962 5.888 13.398 10.644zM514.56 958.208c-283.2 0-512.768-229.568-512.768-512.768 0-283.178 229.568-512.768 512.768-512.768 283.178 0 512.768 229.59 512.768 512.768 0 283.2-229.568 512.768-512.768 512.768zM254.038 294.442l-60.074 109.866h-33.706v-109.866h-46.146v259.328h90.090c12.458 0 24.49-1.152 36.074-3.478 11.606-2.326 21.91-6.294 30.954-11.904 9.024-5.632 16.234-13.184 21.61-22.72 5.354-9.514 8.042-21.61 8.042-36.266 0-18.816-5.184-34.56-15.552-47.232-10.39-12.714-25.216-20.416-44.502-23.082l68.864-114.666h-55.654zM523.286 294.442h-178.39v259.328h171.776v-41.77h-125.632v-63.744h119.062v-41.75h-119.062v-70.336h132.266v-41.728zM723.264 334.144c-5.12-10.368-12.032-18.966-20.714-25.792s-18.752-11.968-30.208-15.382c-11.498-3.414-23.574-5.12-36.288-5.12-16.086 0-31.574 2.666-46.506 8.042-14.912 5.334-27.712 14.422-38.464 27.114l34.794 33.664c5.632-8.49 12.992-15.21 22.166-19.926 9.174-4.8 18.88-7.168 29.12-7.168 5.334 0 10.752 0.746 16.128 2.218 5.334 1.45 10.24 3.67 14.678 6.592 4.374 2.922 7.914 6.634 10.582 11.158 2.71 4.502 4.032 9.706 4.032 15.574 0 9.494-3.094 16.832-9.174 21.952s-13.718 9.45-22.698 12.992c-9.046 3.542-18.922 6.912-29.674 10.090s-20.63 7.51-29.674 12.992-16.618 12.822-22.698 21.974c-6.122 9.152-9.174 21.418-9.174 36.822 0 13.418 2.752 25.024 8.214 34.794 5.546 9.77 12.714 17.878 21.674 24.362 8.874 6.464 19.094 11.306 30.592 14.464 11.456 3.158 23.168 4.758 35.114 4.758 13.718 0 26.922-2.070 39.744-6.23 12.842-4.138 24.384-10.986 34.624-20.502l-33.706-35.542c-4.886 7.082-11.414 12.288-19.584 15.574-8.214 3.286-16.79 4.95-25.792 4.95-5.418 0-10.582-0.618-15.616-1.834-4.992-1.238-9.494-3.178-13.546-5.866-4.010-2.666-7.296-6.166-9.706-10.432-2.41-4.288-3.67-9.344-3.67-15.21 0-8.79 3.050-15.51 9.216-20.138 6.080-4.63 13.632-8.662 22.656-12.096 9.046-3.414 18.922-6.698 29.674-9.898 10.752-3.136 20.63-7.552 29.718-13.162 9.002-5.632 16.576-13.078 22.698-22.378 6.080-9.258 9.13-21.59 9.13-36.95 0.018-13.91-2.52-26.050-7.662-36.46zM878.186 512v-217.578h-46.166l0.002 217.578h-79.466v41.77h205.12l-0.002-41.77h-79.488z" />
<glyph unicode="&#x77;" d="M898.36 896h-770.36v-128h-93.64c-17.6 0-34.36-12.528-34.36-30.128v-64c0-17.6 16.76-33.872 34.36-33.872h93.64v-64h-93.64c-17.6 0-34.36-12.528-34.36-30.128v-64c0-17.6 16.76-33.872 34.36-33.872h93.64v-64h-93.64c-17.6 0-34.36-12.528-34.36-30.128v-64c0-17.598 16.76-33.872 34.36-33.872h93.64v-64h-93.64c-17.6 0-34.36-12.528-34.36-30.128v-64c0-17.6 16.76-33.872 34.36-33.872h93.64v-128h770.36c35.348 0 61.64 30.526 61.64 65.872v832c0 35.346-26.292 62.128-61.64 62.128zM320 0h-128v64h34.36c17.6 0 29.64 16.272 29.64 33.872v64c0 17.602-12.042 30.128-29.64 30.128h-34.36v64h34.36c17.6 0 29.64 16.272 29.64 33.872v64c0 17.602-12.042 30.128-29.64 30.128h-34.36v64h34.36c17.6 0 29.64 16.272 29.64 33.872v64c0 17.602-12.042 30.128-29.64 30.128h-34.36v64h34.36c17.6 0 29.64 16.272 29.64 33.872v64c0 17.602-12.040 30.128-29.64 30.128h-34.36v64h128v-832z" />
<glyph unicode="&#x78;" d="M512.814 806.83c-198.848 0-360.048-161.236-360.048-360.046 0-198.85 161.2-360.048 360.048-360.048s360.048 161.198 360.048 360.048c0 198.848-161.198 360.046-360.048 360.046zM512.814 165.006c-155.644 0-281.776 126.174-281.776 281.778 0 155.602 126.134 281.776 281.776 281.776s281.776-126.174 281.776-281.776c0-155.604-126.136-281.778-281.776-281.778zM540.21 650.29h-54.79v-214.856l133.258-133.254 38.742 38.742-117.208 117.212v192.156zM908.448 730.11c-52.724 75.77-124.874 134.37-209.284 170.196l16.764 42.002-140.64-24.366 85.114-114.762 16.51 41.368c73.468-31.452 136.29-82.624 182.28-148.716 49.77-71.522 76.076-155.568 76.076-243.050 0-234.928-191.126-426.054-426.056-426.054l0.002-60.008c268.018 0 486.064 218.048 486.064 486.064 0 99.798-30.024 195.692-86.83 277.326z" />
<glyph unicode="&#x79;" d="M46.614 763.136l382.464 52.096 0.17-368.96-382.294-2.154zM475.264 822.058l507.136 74.006v-445.078l-507.136-4.032zM428.886 403.818l0.298-369.28-382.294 52.544v319.168zM474.56 401.194l0.704-372.33 507.136-71.616 0.17 443.114z" />
</font>
</defs>
</svg>
